ScienceGothic-RegularS.ufo
<glyph name="ampersand" format="2">
  <advance width="1651.76" height="1448"/>
  <unicode hex="0026"/>
  <outline>
    <contour>
      <point x="180" y="-10" type="line"/>
      <point x="628" y="-10" type="line" smooth="yes"/>
      <point x="677" y="-10"/>
      <point x="752" y="0"/>
      <point x="817" y="22"/>
      <point x="877" y="60"/>
      <point x="912" y="87" type="qcurve" smooth="yes"/>
      <point x="1046" y="194" type="line"/>
      <point x="1204" y="0" type="line"/>
      <point x="1532" y="0" type="line"/>
      <point x="1244" y="353" type="line"/>
      <point x="1556" y="602" type="line"/>
      <point x="1411" y="776" type="line"/>
      <point x="1101" y="527" type="line"/>
      <point x="651" y="1074" type="line"/>
      <point x="651" y="1074"/>
      <point x="651" y="1074"/>
      <point x="651" y="1074"/>
      <point x="651" y="1074"/>
      <point x="651" y="1074" type="qcurve"/>
      <point x="670" y="1178" type="line"/>
      <point x="670" y="1178"/>
      <point x="670" y="1178"/>
      <point x="670" y="1178"/>
      <point x="670" y="1178"/>
      <point x="670" y="1178" type="qcurve"/>
      <point x="1026" y="1178" type="line"/>
      <point x="1026" y="1178"/>
      <point x="1026" y="1178"/>
      <point x="1026" y="1178"/>
      <point x="1026" y="1178"/>
      <point x="1026" y="1178" type="qcurve"/>
      <point x="989" y="968" type="line"/>
      <point x="1221" y="1012" type="line"/>
      <point x="1247" y="1164" type="line" smooth="yes"/>
      <point x="1257" y="1222"/>
      <point x="1233" y="1315"/>
      <point x="1170" y="1379"/>
      <point x="1069" y="1414"/>
      <point x="1002" y="1414" type="qcurve" smooth="yes"/>
      <point x="729" y="1414" type="line" smooth="yes"/>
      <point x="664" y="1414"/>
      <point x="557" y="1379"/>
      <point x="476" y="1313"/>
      <point x="422" y="1217"/>
      <point x="412" y="1156" type="qcurve"/>
      <point x="405" y="1120" type="line" smooth="yes"/>
      <point x="397" y="1074"/>
      <point x="404" y="1006"/>
      <point x="430" y="948"/>
      <point x="472" y="893"/>
      <point x="498" y="860" type="qcurve"/>
      <point x="144" y="644" type="line" smooth="yes"/>
      <point x="115" y="626"/>
      <point x="70" y="587"/>
      <point x="37" y="542"/>
      <point x="16" y="491"/>
      <point x="11" y="462" type="qcurve" smooth="yes"/>
      <point x="-34" y="204" type="line" smooth="yes"/>
      <point x="-44" y="152"/>
      <point x="-25" y="72"/>
      <point x="29" y="18"/>
      <point x="118" y="-10"/>
      <point x="180" y="-10" type="qcurve"/>
    </contour>
    <contour>
      <point x="227" y="222" type="line"/>
      <point x="227" y="222"/>
      <point x="227" y="222"/>
      <point x="227" y="222"/>
      <point x="227" y="222"/>
      <point x="227" y="222" type="qcurve"/>
      <point x="267" y="447" type="line"/>
      <point x="267" y="447"/>
      <point x="267" y="447"/>
      <point x="267" y="447"/>
      <point x="267" y="447"/>
      <point x="267" y="447" type="qcurve"/>
      <point x="647" y="679" type="line"/>
      <point x="902" y="369" type="line"/>
      <point x="719" y="222" type="line"/>
      <point x="719" y="222"/>
      <point x="719" y="222"/>
      <point x="719" y="222"/>
      <point x="719" y="222"/>
      <point x="719" y="222" type="qcurve"/>
    </contour>
  </outline>
</glyph>
<glyph name="quotesingle" format="2">
  <advance width="372" height="1448"/>
  <unicode hex="0027"/>
  <outline>
    <contour>
      <point x="148.403" y="1236" type="line"/>
      <point x="165.403" y="1335" type="line" smooth="yes"/>
      <point x="173.403" y="1378"/>
      <point x="184.403" y="1425"/>
      <point x="207.403" y="1448"/>
      <point x="248.403" y="1452"/>
      <point x="284.403" y="1452" type="qcurve" smooth="yes"/>
      <point x="358.403" y="1452" type="line" smooth="yes"/>
      <point x="394.403" y="1452"/>
      <point x="434.403" y="1448"/>
      <point x="449.403" y="1425"/>
      <point x="445.403" y="1378"/>
      <point x="437.403" y="1335" type="qcurve" smooth="yes"/>
      <point x="420.403" y="1236" type="line"/>
      <point x="270.403" y="835" type="line"/>
      <point x="158.403" y="835" type="line"/>
    </contour>
  </outline>
</glyph>
<glyph name="parenleft" format="2">
  <advance width="633.764" height="1448"/>
  <unicode hex="0028"/>
  <outline>
    <contour>
      <point x="458.625" y="-256" type="line"/>
      <point x="270.625" y="-256" type="line"/>
      <point x="213.625" y="-188"/>
      <point x="131.625" y="-7"/>
      <point x="87.6247" y="211"/>
      <point x="86.6247" y="460"/>
      <point x="110.625" y="597" type="qcurve" smooth="yes"/>
      <point x="134.625" y="734"/>
      <point x="222.625" y="980"/>
      <point x="341.625" y="1195"/>
      <point x="486.625" y="1376"/>
      <point x="568.625" y="1448" type="qcurve"/>
      <point x="756.625" y="1448" type="line"/>
      <point x="706.625" y="1399"/>
      <point x="614.625" y="1283"/>
      <point x="534.625" y="1152"/>
      <point x="465.625" y="1007"/>
      <point x="408.625" y="851"/>
      <point x="363.625" y="684"/>
      <point x="348.625" y="597" type="qcurve" smooth="yes"/>
      <point x="333.625" y="510"/>
      <point x="319.625" y="343"/>
      <point x="321.625" y="186"/>
      <point x="340.625" y="41"/>
      <point x="375.625" y="-90"/>
      <point x="425.625" y="-206"/>
      <point x="458.625" y="-256" type="qcurve"/>
    </contour>
  </outline>
</glyph>
<glyph name="asterisk" format="2">
  <advance width="1016" height="1448"/>
  <unicode hex="002A"/>
  <outline>
    <contour>
      <point x="456" y="778" type="line"/>
      <point x="498" y="988" type="line"/>
      <point x="298" y="867" type="line"/>
      <point x="238" y="982" type="line"/>
      <point x="477" y="1114" type="line"/>
      <point x="280" y="1248" type="line"/>
      <point x="371" y="1352" type="line"/>
      <point x="539" y="1224" type="line"/>
      <point x="573" y="1448" type="line"/>
      <point x="711" y="1448" type="line"/>
      <point x="664" y="1215" type="line"/>
      <point x="872" y="1341" type="line"/>
      <point x="932" y="1226" type="line"/>
      <point x="696" y="1096" type="line"/>
      <point x="878" y="972" type="line"/>
      <point x="788" y="868" type="line"/>
      <point x="626" y="991" type="line"/>
      <point x="594" y="778" type="line"/>
    </contour>
  </outline>
</glyph>
<glyph name="plus" format="2">
  <advance width="1436.47" height="1448"/>
  <unicode hex="002B"/>
  <outline>
    <contour>
      <point x="1308" y="691" type="line"/>
      <point x="1271" y="483" type="line"/>
      <point x="794" y="483" type="line"/>
      <point x="710" y="0" type="line"/>
      <point x="486" y="0" type="line"/>
      <point x="570" y="483" type="line"/>
      <point x="93" y="483" type="line"/>
      <point x="130" y="691" type="line"/>
      <point x="607" y="691" type="line"/>
      <point x="690" y="1168" type="line"/>
      <point x="914" y="1168" type="line"/>
      <point x="831" y="691" type="line"/>
    </contour>
  </outline>
</glyph>
<glyph name="comma" format="2">
  <advance width="672.962" height="1448"/>
  <unicode hex="002C"/>
  <outline>
    <contour>
      <point x="114.945" y="-302" type="line"/>
      <point x="27.9446" y="-270" type="line"/>
      <point x="204.945" y="0" type="line"/>
      <point x="176.945" y="0" type="line" smooth="yes"/>
      <point x="132.945" y="0"/>
      <point x="85.9446" y="4"/>
      <point x="66.9446" y="27"/>
      <point x="71.9446" y="75"/>
      <point x="78.9446" y="119" type="qcurve" smooth="yes"/>
      <point x="90.9446" y="190" type="line" smooth="yes"/>
      <point x="98.9446" y="233"/>
      <point x="110.945" y="280"/>
      <point x="137.945" y="303"/>
      <point x="186.945" y="307"/>
      <point x="230.945" y="307" type="qcurve" smooth="yes"/>
      <point x="307.945" y="307" type="line" smooth="yes"/>
      <point x="351.945" y="307"/>
      <point x="398.945" y="303"/>
      <point x="417.945" y="280"/>
      <point x="413.945" y="233"/>
      <point x="405.945" y="190" type="qcurve" smooth="yes"/>
      <point x="393.945" y="119" type="line" smooth="yes"/>
      <point x="389.945" y="95"/>
      <point x="381.945" y="61"/>
      <point x="371.945" y="34"/>
      <point x="358.945" y="12"/>
      <point x="348.945" y="0" type="qcurve"/>
    </contour>
  </outline>
</glyph>
<glyph name="zero" format="2">
  <advance width="1750" height="1448"/>
  <unicode hex="0030"/>
  <outline>
    <contour>
      <point x="419" y="-14" type="line"/>
      <point x="1085" y="-14" type="line" smooth="yes"/>
      <point x="1165" y="-14"/>
      <point x="1297" y="9"/>
      <point x="1396" y="72"/>
      <point x="1463" y="184"/>
      <point x="1478" y="272" type="qcurve" smooth="yes"/>
      <point x="1630" y="1140" type="line" smooth="yes"/>
      <point x="1645" y="1226"/>
      <point x="1613" y="1333"/>
      <point x="1532" y="1393"/>
      <point x="1410" y="1414"/>
      <point x="1334" y="1414" type="qcurve" smooth="yes"/>
      <point x="668" y="1414" type="line" smooth="yes"/>
      <point x="592" y="1414"/>
      <point x="463" y="1393"/>
      <point x="362" y="1333"/>
      <point x="293" y="1226"/>
      <point x="278" y="1140" type="qcurve" smooth="yes"/>
      <point x="126" y="272" type="line" smooth="yes"/>
      <point x="111" y="184"/>
      <point x="139" y="73"/>
      <point x="216" y="10"/>
      <point x="339" y="-14"/>
      <point x="419" y="-14" type="qcurve"/>
    </contour>
    <contour>
      <point x="383" y="230" type="line"/>
      <point x="383" y="230"/>
      <point x="383" y="229"/>
      <point x="383" y="230" type="qcurve"/>
      <point x="547" y="1171" type="line"/>
      <point x="547" y="1171"/>
      <point x="547" y="1171"/>
      <point x="547" y="1170"/>
      <point x="547" y="1170"/>
      <point x="547" y="1170" type="qcurve"/>
      <point x="1371" y="1170" type="line"/>
      <point x="1371" y="1170"/>
      <point x="1371" y="1170"/>
      <point x="1371" y="1170"/>
      <point x="1371" y="1170"/>
      <point x="1371" y="1170" type="qcurve"/>
      <point x="1207" y="230" type="line"/>
      <point x="1207" y="230"/>
      <point x="1207" y="230"/>
      <point x="1207" y="230"/>
      <point x="1207" y="230"/>
      <point x="1207" y="230" type="qcurve"/>
    </contour>
  </outline>
  <guideline x="875" name="halfwidth" color="0.4,0.4,0.4,1"/>
</glyph>
<glyph name="three" format="2">
  <advance width="1680" height="1448"/>
  <unicode hex="0033"/>
  <outline>
    <contour>
      <point x="144" y="380" type="line"/>
      <point x="417" y="428" type="line"/>
      <point x="382" y="230" type="line"/>
      <point x="382" y="230"/>
      <point x="382" y="230"/>
      <point x="382" y="230"/>
      <point x="382" y="230"/>
      <point x="382" y="230" type="qcurve"/>
      <point x="1022" y="230" type="line" smooth="yes"/>
      <point x="1050" y="230"/>
      <point x="1094" y="240"/>
      <point x="1128" y="265"/>
      <point x="1150" y="310"/>
      <point x="1156" y="346" type="qcurve" smooth="yes"/>
      <point x="1183" y="496" type="line" smooth="yes"/>
      <point x="1188" y="525"/>
      <point x="1180" y="564"/>
      <point x="1156" y="588"/>
      <point x="1121" y="598"/>
      <point x="1098" y="598" type="qcurve" smooth="yes"/>
      <point x="678" y="598" type="line"/>
      <point x="717" y="822" type="line"/>
      <point x="1109" y="822" type="line" smooth="yes"/>
      <point x="1134" y="822"/>
      <point x="1174" y="830"/>
      <point x="1204" y="853"/>
      <point x="1224" y="893"/>
      <point x="1229" y="924" type="qcurve" smooth="yes"/>
      <point x="1253" y="1060" type="line" smooth="yes"/>
      <point x="1259" y="1090"/>
      <point x="1250" y="1132"/>
      <point x="1226" y="1158"/>
      <point x="1188" y="1170"/>
      <point x="1164" y="1170" type="qcurve" smooth="yes"/>
      <point x="558" y="1170" type="line"/>
      <point x="558" y="1170"/>
      <point x="558" y="1170"/>
      <point x="558" y="1170"/>
      <point x="558" y="1170"/>
      <point x="558" y="1170" type="qcurve"/>
      <point x="521" y="954" type="line"/>
      <point x="265" y="1002" type="line"/>
      <point x="294" y="1166" type="line" smooth="yes"/>
      <point x="309" y="1251"/>
      <point x="372" y="1350"/>
      <point x="465" y="1400"/>
      <point x="584" y="1414"/>
      <point x="655" y="1414" type="qcurve" smooth="yes"/>
      <point x="1241" y="1414" type="line" smooth="yes"/>
      <point x="1314" y="1414"/>
      <point x="1432" y="1384"/>
      <point x="1510" y="1312"/>
      <point x="1541" y="1194"/>
      <point x="1525" y="1106" type="qcurve" smooth="yes"/>
      <point x="1506" y="995" type="line" smooth="yes"/>
      <point x="1493" y="920"/>
      <point x="1448" y="822"/>
      <point x="1381" y="762"/>
      <point x="1291" y="730"/>
      <point x="1232" y="720" type="qcurve"/>
      <point x="1289" y="715"/>
      <point x="1377" y="681"/>
      <point x="1432" y="615"/>
      <point x="1449" y="512"/>
      <point x="1436" y="438" type="qcurve" smooth="yes"/>
      <point x="1412" y="296" type="line" smooth="yes"/>
      <point x="1395" y="197"/>
      <point x="1328" y="76"/>
      <point x="1229" y="9"/>
      <point x="1100" y="-14"/>
      <point x="1020" y="-14" type="qcurve" smooth="yes"/>
      <point x="394" y="-14" type="line" smooth="yes"/>
      <point x="327" y="-14"/>
      <point x="215" y="10"/>
      <point x="139" y="70"/>
      <point x="108" y="170"/>
      <point x="121" y="246" type="qcurve" smooth="yes"/>
    </contour>
  </outline>
</glyph>
<glyph name="five" format="2">
  <advance width="1538.51" height="1448"/>
  <unicode hex="0035"/>
  <outline>
    <contour>
      <point x="653" y="-12" type="line"/>
      <point x="592" y="-12"/>
      <point x="435" y="-7"/>
      <point x="276" y="5"/>
      <point x="131" y="28"/>
      <point x="81" y="46" type="qcurve"/>
      <point x="64" y="290" type="line"/>
      <point x="101" y="281"/>
      <point x="183" y="263"/>
      <point x="279" y="248"/>
      <point x="388" y="236"/>
      <point x="514" y="227"/>
      <point x="660" y="222"/>
      <point x="744" y="222" type="qcurve" smooth="yes"/>
      <point x="825" y="222"/>
      <point x="950" y="240"/>
      <point x="1039" y="288"/>
      <point x="1094" y="370"/>
      <point x="1105" y="434" type="qcurve" smooth="yes"/>
      <point x="1115" y="491"/>
      <point x="1097" y="573"/>
      <point x="1024" y="627"/>
      <point x="885" y="652"/>
      <point x="773" y="652" type="qcurve" smooth="yes"/>
      <point x="677" y="652"/>
      <point x="502" y="642"/>
      <point x="338" y="624"/>
      <point x="184" y="602"/>
      <point x="110" y="590" type="qcurve"/>
      <point x="317" y="1400" type="line"/>
      <point x="1359" y="1400" type="line"/>
      <point x="1265" y="1156" type="line"/>
      <point x="467" y="1156" type="line"/>
      <point x="388" y="844" type="line"/>
      <point x="426" y="853"/>
      <point x="522" y="868"/>
      <point x="638" y="880"/>
      <point x="771" y="886"/>
      <point x="844" y="886" type="qcurve" smooth="yes"/>
      <point x="944" y="886"/>
      <point x="1107" y="863"/>
      <point x="1233" y="816"/>
      <point x="1321" y="743"/>
      <point x="1371" y="642"/>
      <point x="1383" y="514"/>
      <point x="1369" y="434" type="qcurve" smooth="yes"/>
      <point x="1352" y="339"/>
      <point x="1280" y="199"/>
      <point x="1177" y="100"/>
      <point x="1047" y="37"/>
      <point x="899" y="1"/>
      <point x="737" y="-12"/>
      <point x="653" y="-12" type="qcurve"/>
    </contour>
  </outline>
</glyph>
<glyph name="six" format="2">
  <advance width="1608" height="1448"/>
  <unicode hex="0036"/>
  <outline>
    <contour>
      <point x="698" y="-14" type="line"/>
      <point x="831" y="-14"/>
      <point x="1030" y="-7"/>
      <point x="1177" y="20"/>
      <point x="1278" y="72"/>
      <point x="1347" y="161"/>
      <point x="1391" y="294"/>
      <point x="1407" y="388" type="qcurve" smooth="yes"/>
      <point x="1424" y="485"/>
      <point x="1420" y="629"/>
      <point x="1376" y="732"/>
      <point x="1289" y="799"/>
      <point x="1156" y="837"/>
      <point x="975" y="852"/>
      <point x="859" y="852" type="qcurve" smooth="yes"/>
      <point x="794" y="852"/>
      <point x="650" y="841"/>
      <point x="505" y="818"/>
      <point x="366" y="783"/>
      <point x="304" y="758" type="qcurve"/>
      <point x="268" y="548" type="line"/>
      <point x="313" y="562"/>
      <point x="450" y="588"/>
      <point x="603" y="607"/>
      <point x="757" y="618"/>
      <point x="818" y="618" type="qcurve" smooth="yes"/>
      <point x="890" y="618"/>
      <point x="999" y="613"/>
      <point x="1076" y="598"/>
      <point x="1125" y="572"/>
      <point x="1150" y="530"/>
      <point x="1153" y="470"/>
      <point x="1146" y="428" type="qcurve" smooth="yes"/>
      <point x="1139" y="387"/>
      <point x="1120" y="325"/>
      <point x="1086" y="282"/>
      <point x="1032" y="254"/>
      <point x="948" y="238"/>
      <point x="827" y="232"/>
      <point x="744" y="232" type="qcurve" smooth="yes"/>
      <point x="666" y="232"/>
      <point x="545" y="236"/>
      <point x="457" y="251"/>
      <point x="400" y="280"/>
      <point x="371" y="329"/>
      <point x="367" y="401"/>
      <point x="376" y="452" type="qcurve" smooth="yes"/>
      <point x="401" y="593"/>
      <point x="467" y="813"/>
      <point x="559" y="979"/>
      <point x="682" y="1093"/>
      <point x="842" y="1164"/>
      <point x="1046" y="1196"/>
      <point x="1173" y="1196" type="qcurve" smooth="yes"/>
      <point x="1204" y="1196"/>
      <point x="1261" y="1195"/>
      <point x="1310" y="1193"/>
      <point x="1350" y="1190"/>
      <point x="1363" y="1188" type="qcurve"/>
      <point x="1241" y="1414" type="line"/>
      <point x="1236" y="1415"/>
      <point x="1217" y="1416"/>
      <point x="1188" y="1417"/>
      <point x="1150" y="1418"/>
      <point x="1125" y="1418" type="qcurve" smooth="yes"/>
      <point x="974" y="1418"/>
      <point x="720" y="1360"/>
      <point x="511" y="1249"/>
      <point x="347" y="1089"/>
      <point x="224" y="884"/>
      <point x="140" y="638"/>
      <point x="116" y="498" type="qcurve" smooth="yes"/>
      <point x="98" y="393"/>
      <point x="94" y="235"/>
      <point x="133" y="121"/>
      <point x="218" y="47"/>
      <point x="359" y="3"/>
      <point x="562" y="-14"/>
      <point x="698" y="-14" type="qcurve"/>
    </contour>
  </outline>
</glyph>
<glyph name="semicolon" format="2">
  <advance width="674" height="1448"/>
  <unicode hex="003B"/>
  <outline>
    <contour>
      <point x="80" y="121" type="line"/>
      <point x="92" y="190" type="line" smooth="yes"/>
      <point x="100" y="233"/>
      <point x="112" y="280"/>
      <point x="139" y="303"/>
      <point x="188" y="307"/>
      <point x="232" y="307" type="qcurve" smooth="yes"/>
      <point x="308" y="307" type="line" smooth="yes"/>
      <point x="352" y="307"/>
      <point x="399" y="303"/>
      <point x="418" y="280"/>
      <point x="415" y="233"/>
      <point x="407" y="190" type="qcurve" smooth="yes"/>
      <point x="395" y="121" type="line" smooth="yes"/>
      <point x="388" y="77"/>
      <point x="374" y="29"/>
      <point x="347" y="6"/>
      <point x="298" y="2"/>
      <point x="254" y="2" type="qcurve" smooth="yes"/>
      <point x="178" y="2" type="line" smooth="yes"/>
      <point x="134" y="2"/>
      <point x="87" y="6"/>
      <point x="68" y="29"/>
      <point x="73" y="77"/>
      <point x="80" y="121" type="qcurve"/>
    </contour>
    <contour>
      <point x="201" y="814" type="line"/>
      <point x="215" y="893" type="line" smooth="yes"/>
      <point x="223" y="936"/>
      <point x="235" y="983"/>
      <point x="261" y="1006"/>
      <point x="310" y="1010"/>
      <point x="354" y="1010" type="qcurve" smooth="yes"/>
      <point x="430" y="1010" type="line" smooth="yes"/>
      <point x="474" y="1010"/>
      <point x="522" y="1006"/>
      <point x="541" y="983"/>
      <point x="538" y="936"/>
      <point x="530" y="893" type="qcurve" smooth="yes"/>
      <point x="516" y="814" type="line" smooth="yes"/>
      <point x="509" y="770"/>
      <point x="495" y="722"/>
      <point x="468" y="699"/>
      <point x="419" y="695"/>
      <point x="375" y="695" type="qcurve" smooth="yes"/>
      <point x="299" y="695" type="line" smooth="yes"/>
      <point x="255" y="695"/>
      <point x="208" y="699"/>
      <point x="189" y="722"/>
      <point x="194" y="770"/>
      <point x="201" y="814" type="qcurve"/>
    </contour>
    <contour>
      <point x="29" y="-268" type="line"/>
      <point x="221" y="25" type="line"/>
      <point x="368" y="25" type="line"/>
      <point x="116" y="-300" type="line"/>
      <point x="29" y="-268" type="line"/>
    </contour>
  </outline>
</glyph>
<glyph name="less" format="2">
  <advance width="1438" height="1448"/>
  <unicode hex="003C"/>
  <outline>
    <contour>
      <point x="1187.57" y="0" type="line"/>
      <point x="1226.57" y="222" type="line"/>
      <point x="407.574" y="586" type="line"/>
      <point x="1353.57" y="949" type="line"/>
      <point x="1391.57" y="1168" type="line"/>
      <point x="128.574" y="683" type="line"/>
      <point x="94.5738" y="485" type="line"/>
    </contour>
  </outline>
</glyph>
<glyph name="greater" format="2">
  <advance width="1438" height="1448"/>
  <unicode hex="003E"/>
  <outline>
    <contour>
      <point x="217" y="1168" type="line"/>
      <point x="180" y="963" type="line"/>
      <point x="999" y="599" type="line"/>
      <point x="53" y="236" type="line"/>
      <point x="13" y="0" type="line"/>
      <point x="1276" y="485" type="line"/>
      <point x="1310" y="683" type="line"/>
      <point x="217" y="1168" type="line"/>
    </contour>
  </outline>
</glyph>
<glyph name="at" format="2">
  <advance width="1891" height="1020.84"/>
  <unicode hex="0040"/>
  <outline>
    <contour>
      <point x="64.891" y="94" type="line"/>
      <point x="215.891" y="957" type="line" smooth="yes"/>
      <point x="230.891" y="1042"/>
      <point x="298.891" y="1148"/>
      <point x="398.891" y="1208"/>
      <point x="527.891" y="1229"/>
      <point x="602.891" y="1229" type="qcurve" smooth="yes"/>
      <point x="1473.89" y="1229" type="line" smooth="yes"/>
      <point x="1548.89" y="1229"/>
      <point x="1670.89" y="1208"/>
      <point x="1750.89" y="1148"/>
      <point x="1782.89" y="1042"/>
      <point x="1767.89" y="957" type="qcurve" smooth="yes"/>
      <point x="1666.89" y="376" type="line" smooth="yes"/>
      <point x="1651.89" y="288"/>
      <point x="1587.89" y="184"/>
      <point x="1501.89" y="129"/>
      <point x="1396.89" y="113"/>
      <point x="1340.89" y="113" type="qcurve" smooth="yes"/>
      <point x="1292.89" y="113" type="line" smooth="yes"/>
      <point x="1240.89" y="113"/>
      <point x="1146.89" y="139"/>
      <point x="1078.89" y="182"/>
      <point x="1042.89" y="240"/>
      <point x="1047.89" y="272" type="qcurve"/>
      <point x="1033.89" y="240"/>
      <point x="988.891" y="197"/>
      <point x="932.891" y="171"/>
      <point x="868.891" y="160"/>
      <point x="835.891" y="160" type="qcurve" smooth="yes"/>
      <point x="631.891" y="160" type="line" smooth="yes"/>
      <point x="581.891" y="160"/>
      <point x="512.891" y="178"/>
      <point x="473.891" y="217"/>
      <point x="463.891" y="277"/>
      <point x="470.891" y="320" type="qcurve" smooth="yes"/>
      <point x="541.891" y="726" type="line" smooth="yes"/>
      <point x="548.891" y="766"/>
      <point x="579.891" y="824"/>
      <point x="632.891" y="861"/>
      <point x="706.891" y="879"/>
      <point x="756.891" y="879" type="qcurve" smooth="yes"/>
      <point x="979.891" y="879" type="line" smooth="yes"/>
      <point x="1049.89" y="879"/>
      <point x="1126.89" y="821"/>
      <point x="1136.89" y="782" type="qcurve"/>
      <point x="1152.89" y="872" type="line"/>
      <point x="1375.89" y="872" type="line"/>
      <point x="1285.89" y="355" type="line" smooth="yes"/>
      <point x="1281.89" y="334"/>
      <point x="1286.89" y="306"/>
      <point x="1303.89" y="288"/>
      <point x="1331.89" y="280"/>
      <point x="1350.89" y="280" type="qcurve" smooth="yes"/>
      <point x="1378.89" y="280" type="line" smooth="yes"/>
      <point x="1397.89" y="280"/>
      <point x="1428.89" y="288"/>
      <point x="1450.89" y="306"/>
      <point x="1465.89" y="334"/>
      <point x="1469.89" y="355" type="qcurve" smooth="yes"/>
      <point x="1574.89" y="957" type="line" smooth="yes"/>
      <point x="1578.89" y="980"/>
      <point x="1573.89" y="1018"/>
      <point x="1545.89" y="1045"/>
      <point x="1489.89" y="1060"/>
      <point x="1443.89" y="1060" type="qcurve" smooth="yes"/>
      <point x="572.891" y="1060" type="line" smooth="yes"/>
      <point x="539.891" y="1060"/>
      <point x="484.891" y="1052"/>
      <point x="441.891" y="1029"/>
      <point x="413.891" y="989"/>
      <point x="407.891" y="957" type="qcurve" smooth="yes"/>
      <point x="256.891" y="94" type="line" smooth="yes"/>
      <point x="252.891" y="69"/>
      <point x="257.891" y="28"/>
      <point x="284.891" y="-1"/>
      <point x="339.891" y="-18"/>
      <point x="384.891" y="-20" type="qcurve"/>
      <point x="1414.89" y="-20" type="line"/>
      <point x="1384.89" y="-189" type="line"/>
      <point x="354.891" y="-189" type="line" smooth="yes"/>
      <point x="275.891" y="-189"/>
      <point x="153.891" y="-166"/>
      <point x="76.891" y="-103"/>
      <point x="49.891" y="7"/>
      <point x="64.891" y="94" type="qcurve"/>
    </contour>
    <contour>
      <point x="701.891" y="347" type="line"/>
      <point x="701.891" y="347"/>
      <point x="701.891" y="347"/>
      <point x="701.891" y="347" type="qcurve"/>
      <point x="1061.89" y="347" type="line"/>
      <point x="1061.89" y="347"/>
      <point x="1061.89" y="347"/>
      <point x="1061.89" y="347" type="qcurve"/>
      <point x="1121.89" y="691" type="line"/>
      <point x="761.891" y="691" type="line"/>
      <point x="761.891" y="691"/>
      <point x="761.891" y="691"/>
      <point x="761.891" y="691" type="qcurve"/>
    </contour>
  </outline>
  <guideline y="548"/>
</glyph>
<glyph name="C" format="2">
  <advance width="1606" height="1448"/>
  <unicode hex="0043"/>
  <anchor x="978" y="1564" name="top"/>
  <anchor x="676" y="-164" name="bottom"/>
  <outline>
    <contour>
      <point x="248.157" y="1140" type="line"/>
      <point x="96.1574" y="272" type="line" smooth="yes"/>
      <point x="83.1574" y="195"/>
      <point x="101.157" y="86"/>
      <point x="171.157" y="17"/>
      <point x="296.157" y="-14"/>
      <point x="389.157" y="-14" type="qcurve" smooth="yes"/>
      <point x="1015.16" y="-14" type="line" smooth="yes"/>
      <point x="1108.16" y="-14"/>
      <point x="1244.16" y="17"/>
      <point x="1339.16" y="86"/>
      <point x="1395.16" y="195"/>
      <point x="1408.16" y="272" type="qcurve" smooth="yes"/>
      <point x="1444.16" y="478" type="line"/>
      <point x="1190.16" y="530" type="line"/>
      <point x="1137.16" y="230" type="line"/>
      <point x="1137.16" y="230"/>
      <point x="1137.16" y="230"/>
      <point x="1137.16" y="230"/>
      <point x="1137.16" y="230"/>
      <point x="1137.16" y="230" type="qcurve"/>
      <point x="353.157" y="230" type="line"/>
      <point x="353.157" y="230"/>
      <point x="353.157" y="230"/>
      <point x="353.157" y="230"/>
      <point x="353.157" y="230"/>
      <point x="353.157" y="230" type="qcurve"/>
      <point x="517.157" y="1170" type="line"/>
      <point x="517.157" y="1170"/>
      <point x="517.157" y="1170"/>
      <point x="517.157" y="1170"/>
      <point x="517.157" y="1170"/>
      <point x="517.157" y="1170" type="qcurve"/>
      <point x="1293.16" y="1170" type="line"/>
      <point x="1293.16" y="1170"/>
      <point x="1293.16" y="1170"/>
      <point x="1293.16" y="1170"/>
      <point x="1293.16" y="1170"/>
      <point x="1293.16" y="1170" type="qcurve"/>
      <point x="1245.16" y="896" type="line"/>
      <point x="1518.16" y="944" type="line"/>
      <point x="1552.16" y="1140" type="line" smooth="yes"/>
      <point x="1565.16" y="1214"/>
      <point x="1545.16" y="1318"/>
      <point x="1473.16" y="1384"/>
      <point x="1348.16" y="1414"/>
      <point x="1256.16" y="1414" type="qcurve" smooth="yes"/>
      <point x="638.157" y="1414" type="line" smooth="yes"/>
      <point x="547.157" y="1414"/>
      <point x="411.157" y="1384"/>
      <point x="317.157" y="1318"/>
      <point x="261.157" y="1214"/>
      <point x="248.157" y="1140" type="qcurve"/>
    </contour>
  </outline>
</glyph>
<glyph name="G" format="2">
  <advance width="1726.21" height="1448"/>
  <unicode hex="0047"/>
  <anchor x="1022" y="1564" name="top"/>
  <anchor x="720" y="-164" name="bottom"/>
  <outline>
    <contour>
      <point x="248.157" y="1140" type="line"/>
      <point x="96.1574" y="272" type="line" smooth="yes"/>
      <point x="83.1574" y="195"/>
      <point x="101.157" y="86"/>
      <point x="171.157" y="17"/>
      <point x="296.157" y="-14"/>
      <point x="389.157" y="-14" type="qcurve" smooth="yes"/>
      <point x="1101.16" y="-14" type="line" smooth="yes"/>
      <point x="1194.16" y="-14"/>
      <point x="1330.16" y="17"/>
      <point x="1425.16" y="86"/>
      <point x="1481.16" y="195"/>
      <point x="1494.16" y="272" type="qcurve" smooth="yes"/>
      <point x="1588.16" y="806" type="line"/>
      <point x="884.157" y="806" type="line"/>
      <point x="841.157" y="562" type="line"/>
      <point x="1281.16" y="562" type="line"/>
      <point x="1223.16" y="230" type="line"/>
      <point x="1223.16" y="230"/>
      <point x="1223.16" y="230"/>
      <point x="1223.16" y="230"/>
      <point x="1223.16" y="230"/>
      <point x="1223.16" y="230" type="qcurve"/>
      <point x="353.157" y="230" type="line"/>
      <point x="353.157" y="230"/>
      <point x="353.157" y="230"/>
      <point x="353.157" y="230"/>
      <point x="353.157" y="230"/>
      <point x="353.157" y="230" type="qcurve"/>
      <point x="517.157" y="1170" type="line"/>
      <point x="517.157" y="1170"/>
      <point x="517.157" y="1170"/>
      <point x="517.157" y="1170"/>
      <point x="517.157" y="1170"/>
      <point x="517.157" y="1170" type="qcurve"/>
      <point x="1381.16" y="1170" type="line"/>
      <point x="1381.16" y="1170"/>
      <point x="1381.16" y="1170"/>
      <point x="1381.16" y="1170"/>
      <point x="1381.16" y="1170"/>
      <point x="1381.16" y="1170" type="qcurve"/>
      <point x="1348.16" y="980" type="line"/>
      <point x="1622.16" y="1036" type="line"/>
      <point x="1640.16" y="1140" type="line" smooth="yes"/>
      <point x="1653.16" y="1214"/>
      <point x="1633.16" y="1318"/>
      <point x="1561.16" y="1384"/>
      <point x="1436.16" y="1414"/>
      <point x="1344.16" y="1414" type="qcurve" smooth="yes"/>
      <point x="638.157" y="1414" type="line" smooth="yes"/>
      <point x="547.157" y="1414"/>
      <point x="411.157" y="1384"/>
      <point x="317.157" y="1318"/>
      <point x="261.157" y="1214"/>
      <point x="248.157" y="1140" type="qcurve"/>
    </contour>
  </outline>
  <guideline angle="0" x="0" y="574"/>
  <guideline angle="0" x="0" y="1036"/>
  <guideline angle="0" x="0" y="980"/>
  <guideline angle="0" x="0" y="806"/>
  <guideline angle="0" x="0" y="700"/>
  <guideline angle="0" x="0" y="906"/>
  <guideline angle="0" x="0" y="494"/>
</glyph>
<glyph name="H" format="2">
  <advance width="1818" height="1448"/>
  <unicode hex="0048"/>
  <anchor x="1061" y="1550" name="top"/>
  <anchor x="764" y="-150" name="bottom"/>
  <outline>
    <contour>
      <point x="80" y="0" type="line"/>
      <point x="344" y="0" type="line"/>
      <point x="450" y="608" type="line"/>
      <point x="1340" y="608" type="line"/>
      <point x="1234" y="0" type="line"/>
      <point x="1498" y="0" type="line"/>
      <point x="1742" y="1400" type="line"/>
      <point x="1478" y="1400" type="line"/>
      <point x="1383" y="852" type="line"/>
      <point x="493" y="852" type="line"/>
      <point x="588" y="1400" type="line"/>
      <point x="324" y="1400" type="line"/>
    </contour>
  </outline>
  <guideline x="789" y="0" angle="260.078" color="1,0,0,1"/>
</glyph>
<glyph name="J" format="2">
  <advance width="1500.16" height="1448"/>
  <unicode hex="004A"/>
  <anchor x="1341" y="1578" name="top"/>
  <anchor x="564" y="-150" name="bottom"/>
  <outline>
    <contour>
      <point x="1440" y="1400" type="line"/>
      <point x="1176" y="1400" type="line"/>
      <point x="972" y="230" type="line"/>
      <point x="972" y="230"/>
      <point x="972" y="230"/>
      <point x="972" y="230"/>
      <point x="972" y="230"/>
      <point x="972" y="230" type="qcurve"/>
      <point x="286" y="230" type="line"/>
      <point x="286" y="230"/>
      <point x="286" y="230"/>
      <point x="286" y="230"/>
      <point x="286" y="230"/>
      <point x="286" y="230" type="qcurve"/>
      <point x="358" y="644" type="line"/>
      <point x="85" y="588" type="line"/>
      <point x="27" y="260" type="line" smooth="yes"/>
      <point x="14" y="187"/>
      <point x="35" y="83"/>
      <point x="106" y="17"/>
      <point x="232" y="-14"/>
      <point x="324" y="-14" type="qcurve" smooth="yes"/>
      <point x="852" y="-14" type="line" smooth="yes"/>
      <point x="944" y="-14"/>
      <point x="1078" y="17"/>
      <point x="1172" y="83"/>
      <point x="1228" y="187"/>
      <point x="1241" y="260" type="qcurve" smooth="yes"/>
    </contour>
  </outline>
</glyph>
<glyph name="L" format="2">
  <advance width="1391.98" height="1448"/>
  <unicode hex="004C"/>
  <anchor x="483" y="1550" name="top"/>
  <anchor x="640" y="-150" name="bottom"/>
  <anchor x="102" y="700" name="left"/>
  <anchor x="988" y="1400" name="right"/>
  <anchor x="1030" y="700" name="eldot"/>
  <outline>
    <contour>
      <point x="80" y="0" type="line"/>
      <point x="324" y="1400" type="line"/>
      <point x="588" y="1400" type="line"/>
      <point x="387" y="244" type="line"/>
      <point x="1295" y="244" type="line"/>
      <point x="1252" y="0" type="line"/>
    </contour>
  </outline>
</glyph>
<glyph name="O" format="2">
  <advance width="1790" height="1448"/>
  <unicode hex="004F"/>
  <anchor x="1041" y="1564" name="top"/>
  <anchor x="742" y="-164" name="bottom"/>
  <anchor x="1700" y="1140" name="horn"/>
  <anchor x="866" y="0" name="ogonek"/>
  <outline>
    <contour>
      <point x="248.155" y="1140" type="line"/>
      <point x="96.1552" y="272" type="line" smooth="yes"/>
      <point x="81.1552" y="184"/>
      <point x="109.155" y="73"/>
      <point x="186.155" y="10"/>
      <point x="309.155" y="-14"/>
      <point x="389.155" y="-14" type="qcurve" smooth="yes"/>
      <point x="1155.16" y="-14" type="line" smooth="yes"/>
      <point x="1235.16" y="-14"/>
      <point x="1367.16" y="9"/>
      <point x="1466.16" y="72"/>
      <point x="1533.16" y="184"/>
      <point x="1548.16" y="272" type="qcurve" smooth="yes"/>
      <point x="1700.16" y="1140" type="line" smooth="yes"/>
      <point x="1715.16" y="1226"/>
      <point x="1683.16" y="1333"/>
      <point x="1602.16" y="1393"/>
      <point x="1480.16" y="1414"/>
      <point x="1404.16" y="1414" type="qcurve" smooth="yes"/>
      <point x="638.155" y="1414" type="line" smooth="yes"/>
      <point x="562.155" y="1414"/>
      <point x="433.155" y="1393"/>
      <point x="332.155" y="1333"/>
      <point x="263.155" y="1226"/>
      <point x="248.155" y="1140" type="qcurve"/>
    </contour>
    <contour>
      <point x="517.155" y="1170" type="line"/>
      <point x="517.155" y="1170"/>
      <point x="517.155" y="1170"/>
      <point x="517.155" y="1170"/>
      <point x="517.155" y="1170"/>
      <point x="517.155" y="1170" type="qcurve"/>
      <point x="1441.16" y="1170" type="line"/>
      <point x="1441.16" y="1170"/>
      <point x="1441.16" y="1170"/>
      <point x="1441.16" y="1170"/>
      <point x="1441.16" y="1170"/>
      <point x="1441.16" y="1170" type="qcurve"/>
      <point x="1277.16" y="230" type="line"/>
      <point x="1277.16" y="230"/>
      <point x="1277.16" y="230"/>
      <point x="1277.16" y="230"/>
      <point x="1277.16" y="230"/>
      <point x="1277.16" y="230" type="qcurve"/>
      <point x="353.155" y="230" type="line"/>
      <point x="353.155" y="230"/>
      <point x="353.155" y="230"/>
      <point x="353.155" y="230"/>
      <point x="353.155" y="230"/>
      <point x="353.155" y="230" type="qcurve"/>
    </contour>
  </outline>
</glyph>
<glyph name="S" format="2">
  <advance width="1589" height="1448"/>
  <unicode hex="0053"/>
  <anchor x="944" y="1564" name="top"/>
  <anchor x="641" y="-164" name="bottom"/>
  <outline>
    <contour>
      <point x="61.3252" y="364" type="line"/>
      <point x="322.325" y="416" type="line"/>
      <point x="290.325" y="230" type="line"/>
      <point x="290.325" y="230"/>
      <point x="290.325" y="230"/>
      <point x="290.325" y="230"/>
      <point x="290.325" y="230"/>
      <point x="290.325" y="230" type="qcurve"/>
      <point x="1128.33" y="230" type="line"/>
      <point x="1128.33" y="230"/>
      <point x="1128.33" y="230"/>
      <point x="1128.33" y="230"/>
      <point x="1128.33" y="230"/>
      <point x="1128.33" y="230" type="qcurve"/>
      <point x="1190.33" y="586" type="line"/>
      <point x="1190.33" y="586"/>
      <point x="1190.33" y="586"/>
      <point x="1190.33" y="586"/>
      <point x="1190.33" y="586"/>
      <point x="1190.33" y="586" type="qcurve"/>
      <point x="472.325" y="586" type="line" smooth="yes"/>
      <point x="393.325" y="586"/>
      <point x="270.325" y="610"/>
      <point x="192.325" y="673"/>
      <point x="165.325" y="786"/>
      <point x="180.325" y="874" type="qcurve" smooth="yes"/>
      <point x="227.325" y="1140" type="line" smooth="yes"/>
      <point x="242.325" y="1226"/>
      <point x="310.325" y="1333"/>
      <point x="411.325" y="1393"/>
      <point x="540.325" y="1414"/>
      <point x="616.325" y="1414" type="qcurve" smooth="yes"/>
      <point x="1222.33" y="1414" type="line" smooth="yes"/>
      <point x="1299.33" y="1414"/>
      <point x="1421.33" y="1393"/>
      <point x="1502.33" y="1333"/>
      <point x="1534.33" y="1226"/>
      <point x="1519.33" y="1140" type="qcurve" smooth="yes"/>
      <point x="1501.33" y="1040" type="line"/>
      <point x="1240.33" y="990" type="line"/>
      <point x="1272.33" y="1170" type="line"/>
      <point x="1272.33" y="1170"/>
      <point x="1272.33" y="1170"/>
      <point x="1272.33" y="1170"/>
      <point x="1272.33" y="1170"/>
      <point x="1272.33" y="1170" type="qcurve"/>
      <point x="484.325" y="1170" type="line"/>
      <point x="484.325" y="1170"/>
      <point x="484.325" y="1170"/>
      <point x="484.325" y="1170"/>
      <point x="484.325" y="1170"/>
      <point x="484.325" y="1170" type="qcurve"/>
      <point x="424.325" y="830" type="line"/>
      <point x="424.325" y="830"/>
      <point x="424.325" y="830"/>
      <point x="424.325" y="830"/>
      <point x="424.325" y="830"/>
      <point x="424.325" y="830" type="qcurve"/>
      <point x="1140.33" y="830" type="line" smooth="yes"/>
      <point x="1217.33" y="830"/>
      <point x="1340.33" y="809"/>
      <point x="1420.33" y="749"/>
      <point x="1452.33" y="642"/>
      <point x="1437.33" y="556" type="qcurve" smooth="yes"/>
      <point x="1387.33" y="272" type="line" smooth="yes"/>
      <point x="1372.33" y="184"/>
      <point x="1305.33" y="72"/>
      <point x="1205.33" y="9"/>
      <point x="1073.33" y="-14"/>
      <point x="993.325" y="-14" type="qcurve" smooth="yes"/>
      <point x="337.325" y="-14" type="line" smooth="yes"/>
      <point x="258.325" y="-14"/>
      <point x="135.325" y="9"/>
      <point x="57.3252" y="72"/>
      <point x="30.3252" y="184"/>
      <point x="45.3252" y="272" type="qcurve" smooth="yes"/>
    </contour>
  </outline>
</glyph>
<glyph name="W" format="2">
  <advance width="1974" height="1448"/>
  <unicode hex="0057"/>
  <anchor x="987" y="-150" name="bottom"/>
  <anchor x="1140" y="1550" name="top"/>
  <outline>
    <contour>
      <point x="354.858" y="0" type="line"/>
      <point x="557.858" y="0" type="line"/>
      <point x="1019.86" y="901" type="line"/>
      <point x="1179.86" y="0" type="line"/>
      <point x="1376.86" y="0" type="line"/>
      <point x="2100.86" y="1400" type="line"/>
      <point x="1838.86" y="1400" type="line"/>
      <point x="1370.86" y="476" type="line"/>
      <point x="1206.86" y="1400" type="line"/>
      <point x="1024.86" y="1400" type="line"/>
      <point x="555.858" y="476" type="line"/>
      <point x="421.858" y="1400" type="line"/>
      <point x="126.858" y="1400" type="line"/>
    </contour>
  </outline>
</glyph>
<glyph name="X" format="2">
  <advance width="1483" height="1448"/>
  <unicode hex="0058"/>
  <anchor x="894" y="1550" name="top"/>
  <anchor x="597" y="-150" name="bottom"/>
  <outline>
    <contour>
      <point x="-119.142" y="0" type="line"/>
      <point x="195.858" y="0" type="line"/>
      <point x="708.858" y="551" type="line"/>
      <point x="1049.86" y="0" type="line"/>
      <point x="1362.86" y="0" type="line"/>
      <point x="902.858" y="727" type="line"/>
      <point x="1530.86" y="1400" type="line"/>
      <point x="1218.86" y="1400" type="line"/>
      <point x="761.858" y="897" type="line"/>
      <point x="446.858" y="1400" type="line"/>
      <point x="126.858" y="1400" type="line"/>
      <point x="568.858" y="723" type="line"/>
    </contour>
  </outline>
</glyph>
<glyph name="Y" format="2">
  <advance width="1566" height="1448"/>
  <unicode hex="0059"/>
  <anchor x="995" y="1550" name="top"/>
  <anchor x="703" y="-150" name="bottom"/>
  <outline>
    <contour>
      <point x="546.858" y="0" type="line"/>
      <point x="810.858" y="0" type="line"/>
      <point x="917.858" y="613" type="line"/>
      <point x="1692.86" y="1400" type="line"/>
      <point x="1364.86" y="1400" type="line"/>
      <point x="818.858" y="834" type="line"/>
      <point x="453.858" y="1400" type="line"/>
      <point x="126.858" y="1400" type="line"/>
      <point x="653.858" y="612" type="line"/>
    </contour>
  </outline>
  <guideline angle="260.076" color="1,0,0,1" x="723" y="0"/>
</glyph>
<glyph name="Z" format="2">
  <advance width="1429" height="1448"/>
  <unicode hex="005A"/>
  <anchor x="899" y="1550" name="top"/>
  <anchor x="588" y="-150" name="bottom"/>
  <outline>
    <contour>
      <point x="-49.4881" y="0" type="line"/>
      <point x="1224.51" y="0" type="line"/>
      <point x="1266.51" y="240" type="line"/>
      <point x="406.512" y="240" type="line"/>
      <point x="410.512" y="231" type="line"/>
      <point x="1445.51" y="1278" type="line"/>
      <point x="1466.51" y="1400" type="line"/>
      <point x="278.512" y="1400" type="line"/>
      <point x="236.512" y="1160" type="line"/>
      <point x="1010.51" y="1160" type="line"/>
      <point x="1006.51" y="1169" type="line"/>
      <point x="-28.4881" y="122" type="line"/>
    </contour>
  </outline>
</glyph>
<glyph name="bracketleft" format="2">
  <advance width="793.603" height="1448"/>
  <unicode hex="005B"/>
  <outline>
    <contour>
      <point x="34.4637" y="-256" type="line"/>
      <point x="332.464" y="1448" type="line"/>
      <point x="866.464" y="1448" type="line"/>
      <point x="827.464" y="1224" type="line"/>
      <point x="541.464" y="1224" type="line"/>
      <point x="321.464" y="-32" type="line"/>
      <point x="607.464" y="-32" type="line"/>
      <point x="568.464" y="-256" type="line"/>
    </contour>
  </outline>
</glyph>
<glyph name="asciicircum" format="2">
  <advance width="976" height="1448"/>
  <unicode hex="005E"/>
  <outline>
    <contour>
      <point x="40" y="850" type="line"/>
      <point x="533" y="1400" type="line"/>
      <point x="694" y="1400" type="line"/>
      <point x="996" y="850" type="line"/>
      <point x="788" y="850" type="line"/>
      <point x="598" y="1257" type="line"/>
      <point x="278" y="850" type="line"/>
    </contour>
  </outline>
  <guideline angle="0" x="0" y="850"/>
</glyph>
<glyph name="a" format="2">
  <advance width="1345.38" height="1448"/>
  <unicode hex="0061"/>
  <anchor x="751" y="1150" name="top"/>
  <anchor x="514" y="-150" name="bottom"/>
  <anchor x="1008" y="0" name="ogonek"/>
  <outline>
    <contour>
      <point x="263.383" y="-10" type="line" smooth="yes"/>
      <point x="205.383" y="-10"/>
      <point x="117.383" y="7"/>
      <point x="62.3828" y="52"/>
      <point x="42.3828" y="131"/>
      <point x="53.3828" y="194" type="qcurve" smooth="yes"/>
      <point x="90.3828" y="404" type="line" smooth="yes"/>
      <point x="101.383" y="466"/>
      <point x="162.383" y="542"/>
      <point x="249.383" y="584"/>
      <point x="354.383" y="598"/>
      <point x="409.383" y="598" type="qcurve" smooth="yes"/>
      <point x="915.383" y="598" type="line"/>
      <point x="952.383" y="806" type="line"/>
      <point x="952.383" y="806"/>
      <point x="952.383" y="806"/>
      <point x="952.383" y="806" type="qcurve"/>
      <point x="422.383" y="806" type="line"/>
      <point x="422.383" y="806"/>
      <point x="422.383" y="806"/>
      <point x="422.383" y="806" type="qcurve"/>
      <point x="406.383" y="718" type="line"/>
      <point x="166.383" y="764" type="line"/>
      <point x="175.383" y="814" type="line" smooth="yes"/>
      <point x="186.383" y="876"/>
      <point x="235.383" y="952"/>
      <point x="307.383" y="995"/>
      <point x="400.383" y="1010"/>
      <point x="455.383" y="1010" type="qcurve" smooth="yes"/>
      <point x="989.383" y="1010" type="line" smooth="yes"/>
      <point x="1044.38" y="1010"/>
      <point x="1132.38" y="995"/>
      <point x="1189.38" y="952"/>
      <point x="1212.38" y="876"/>
      <point x="1201.38" y="814" type="qcurve" smooth="yes"/>
      <point x="1059.38" y="0" type="line"/>
      <point x="811.383" y="0" type="line"/>
      <point x="837.383" y="150" type="line"/>
      <point x="816.383" y="104"/>
      <point x="754.383" y="43"/>
      <point x="678.383" y="6"/>
      <point x="592.383" y="-10"/>
      <point x="547.383" y="-10" type="qcurve" smooth="yes"/>
    </contour>
    <contour>
      <point x="301.383" y="194" type="line"/>
      <point x="301.383" y="194"/>
      <point x="301.383" y="194"/>
      <point x="301.383" y="194" type="qcurve"/>
      <point x="845.383" y="194" type="line"/>
      <point x="880.383" y="394" type="line"/>
      <point x="336.383" y="394" type="line"/>
      <point x="336.383" y="394"/>
      <point x="336.383" y="394"/>
      <point x="336.383" y="394" type="qcurve"/>
    </contour>
  </outline>
  <guideline angle="260.096" color="1,0,0,1" x="812" y="0"/>
</glyph>
<glyph name="c" format="2">
  <advance width="1340.51" height="1448"/>
  <unicode hex="0063"/>
  <anchor x="758" y="1150" name="top"/>
  <anchor x="531" y="-150" name="bottom"/>
  <outline>
    <contour>
      <point x="66.2673" y="204" type="line"/>
      <point x="171.267" y="806" type="line" smooth="yes"/>
      <point x="180.267" y="861"/>
      <point x="222.267" y="938"/>
      <point x="293.267" y="987"/>
      <point x="394.267" y="1010"/>
      <point x="462.267" y="1010" type="qcurve" smooth="yes"/>
      <point x="1020.27" y="1010" type="line" smooth="yes"/>
      <point x="1089.27" y="1010"/>
      <point x="1182.27" y="987"/>
      <point x="1235.27" y="938"/>
      <point x="1250.27" y="861"/>
      <point x="1241.27" y="806" type="qcurve" smooth="yes"/>
      <point x="1222.27" y="700" type="line"/>
      <point x="966.267" y="652" type="line"/>
      <point x="989.267" y="786" type="line"/>
      <point x="989.267" y="786"/>
      <point x="989.267" y="786"/>
      <point x="989.267" y="786" type="qcurve"/>
      <point x="415.267" y="786" type="line"/>
      <point x="415.267" y="786"/>
      <point x="415.267" y="786"/>
      <point x="415.267" y="786" type="qcurve"/>
      <point x="315.267" y="214" type="line"/>
      <point x="315.267" y="214"/>
      <point x="315.267" y="214"/>
      <point x="315.267" y="214" type="qcurve"/>
      <point x="893.267" y="214" type="line"/>
      <point x="893.267" y="214"/>
      <point x="893.267" y="214"/>
      <point x="893.267" y="214" type="qcurve"/>
      <point x="918.267" y="358" type="line"/>
      <point x="1157.27" y="306" type="line"/>
      <point x="1140.27" y="204" type="line" smooth="yes"/>
      <point x="1130.27" y="146"/>
      <point x="1088.27" y="65"/>
      <point x="1017.27" y="14"/>
      <point x="916.267" y="-10"/>
      <point x="846.267" y="-10" type="qcurve" smooth="yes"/>
      <point x="284.267" y="-10" type="line" smooth="yes"/>
      <point x="214.267" y="-10"/>
      <point x="121.267" y="14"/>
      <point x="69.2673" y="65"/>
      <point x="56.2673" y="146"/>
      <point x="66.2673" y="204" type="qcurve"/>
    </contour>
  </outline>
</glyph>
<glyph name="d" format="2">
  <advance width="1412.26" height="1448"/>
  <unicode hex="0064"/>
  <anchor x="845" y="1598" name="top"/>
  <anchor x="540" y="-150" name="bottom"/>
  <anchor x="1365" y="1448" name="right"/>
  <outline>
    <contour>
      <point x="66.2633" y="204" type="line"/>
      <point x="171.263" y="806" type="line" smooth="yes"/>
      <point x="180.263" y="860"/>
      <point x="222.263" y="937"/>
      <point x="293.263" y="987"/>
      <point x="394.263" y="1010"/>
      <point x="462.263" y="1010" type="qcurve" smooth="yes"/>
      <point x="800.263" y="1010" type="line" smooth="yes"/>
      <point x="900.263" y="1010"/>
      <point x="1010.26" y="956"/>
      <point x="1021.26" y="900" type="qcurve"/>
      <point x="1117.26" y="1448" type="line"/>
      <point x="1365.26" y="1448" type="line"/>
      <point x="1112.26" y="0" type="line"/>
      <point x="864.263" y="0" type="line"/>
      <point x="881.263" y="100" type="line"/>
      <point x="851.263" y="44"/>
      <point x="722.263" y="-10"/>
      <point x="622.263" y="-10" type="qcurve" smooth="yes"/>
      <point x="284.263" y="-10" type="line" smooth="yes"/>
      <point x="215.263" y="-10"/>
      <point x="122.263" y="14"/>
      <point x="70.2633" y="65"/>
      <point x="56.2633" y="146"/>
      <point x="66.2633" y="204" type="qcurve"/>
    </contour>
    <contour>
      <point x="1001.26" y="786" type="line"/>
      <point x="415.263" y="786" type="line"/>
      <point x="415.263" y="786"/>
      <point x="415.263" y="786"/>
      <point x="415.263" y="786" type="qcurve"/>
      <point x="315.263" y="214" type="line"/>
      <point x="315.263" y="214"/>
      <point x="315.263" y="214"/>
      <point x="315.263" y="214" type="qcurve"/>
      <point x="901.263" y="214" type="line"/>
    </contour>
  </outline>
  <guideline angle="0" x="0" y="988"/>
  <guideline angle="0" x="0" y="42"/>
</glyph>
<glyph name="e" format="2">
  <advance width="1374" height="1448"/>
  <unicode hex="0065"/>
  <anchor x="768" y="1150" name="top"/>
  <anchor x="541" y="-150" name="bottom"/>
  <anchor x="783" y="-10" name="ogonek"/>
  <outline>
    <contour>
      <point x="74.4406" y="250" type="line"/>
      <point x="168.441" y="790" type="line" smooth="yes"/>
      <point x="177.441" y="843"/>
      <point x="225.441" y="925"/>
      <point x="301.441" y="981"/>
      <point x="408.441" y="1010"/>
      <point x="476.441" y="1010" type="qcurve" smooth="yes"/>
      <point x="1006.44" y="1010" type="line" smooth="yes"/>
      <point x="1074.44" y="1010"/>
      <point x="1171.44" y="981"/>
      <point x="1229.44" y="924"/>
      <point x="1248.44" y="840"/>
      <point x="1239.44" y="786" type="qcurve" smooth="yes"/>
      <point x="1172.44" y="402" type="line"/>
      <point x="348.441" y="402" type="line"/>
      <point x="312.441" y="194" type="line"/>
      <point x="312.441" y="194"/>
      <point x="312.441" y="194"/>
      <point x="312.441" y="194" type="qcurve"/>
      <point x="888.441" y="194" type="line"/>
      <point x="888.441" y="194"/>
      <point x="888.441" y="194"/>
      <point x="888.441" y="194" type="qcurve"/>
      <point x="907.441" y="304" type="line"/>
      <point x="1147.44" y="260" type="line"/>
      <point x="1146.44" y="250" type="line"/>
      <point x="1134.44" y="180"/>
      <point x="1081.44" y="82"/>
      <point x="993.441" y="19"/>
      <point x="868.441" y="-10"/>
      <point x="782.441" y="-10" type="qcurve" smooth="yes"/>
      <point x="326.441" y="-10" type="line" smooth="yes"/>
      <point x="251.441" y="-10"/>
      <point x="144.441" y="18"/>
      <point x="81.4406" y="81"/>
      <point x="62.4406" y="180"/>
      <point x="74.4406" y="250" type="qcurve"/>
    </contour>
    <contour>
      <point x="384.441" y="606" type="line"/>
      <point x="960.441" y="606" type="line"/>
      <point x="995.441" y="806" type="line"/>
      <point x="995.441" y="806"/>
      <point x="995.441" y="806"/>
      <point x="995.441" y="806" type="qcurve"/>
      <point x="419.441" y="806" type="line"/>
      <point x="419.441" y="806"/>
      <point x="419.441" y="806"/>
      <point x="419.441" y="806" type="qcurve"/>
    </contour>
  </outline>
  <guideline y="-1010" color="1,0,0,1"/>
</glyph>
<glyph name="g" format="2">
  <advance width="1399" height="1448"/>
  <unicode hex="0067"/>
  <anchor x="765" y="1150" name="top"/>
  <anchor x="700" y="-578" name="bottom"/>
  <outline>
    <contour>
      <point x="315" y="214" type="line"/>
      <point x="415" y="786" type="line"/>
      <point x="415" y="786"/>
      <point x="415" y="786"/>
      <point x="415" y="786" type="qcurve"/>
      <point x="1001" y="786" type="line"/>
      <point x="901" y="214" type="line"/>
      <point x="315" y="214" type="line"/>
      <point x="315" y="214"/>
      <point x="315" y="214"/>
      <point x="315" y="214" type="qcurve"/>
    </contour>
    <contour>
      <point x="21" y="-428" type="line"/>
      <point x="723" y="-428" type="line" smooth="yes"/>
      <point x="808" y="-428"/>
      <point x="930" y="-414"/>
      <point x="1014" y="-362"/>
      <point x="1067" y="-261"/>
      <point x="1082" y="-174" type="qcurve" smooth="yes"/>
      <point x="1287" y="1000" type="line"/>
      <point x="1039" y="1000" type="line"/>
      <point x="1021" y="900" type="line"/>
      <point x="1010" y="956"/>
      <point x="900" y="1010"/>
      <point x="800" y="1010" type="qcurve" smooth="yes"/>
      <point x="462" y="1010" type="line" smooth="yes"/>
      <point x="394" y="1010"/>
      <point x="293" y="987"/>
      <point x="222" y="937"/>
      <point x="180" y="860"/>
      <point x="171" y="806" type="qcurve" smooth="yes"/>
      <point x="66" y="204" type="line" smooth="yes"/>
      <point x="56" y="146"/>
      <point x="70" y="65"/>
      <point x="122" y="14"/>
      <point x="215" y="-10"/>
      <point x="284" y="-10" type="qcurve" smooth="yes"/>
      <point x="622" y="-10" type="line" smooth="yes"/>
      <point x="722" y="-10"/>
      <point x="851" y="44"/>
      <point x="881" y="100" type="qcurve"/>
      <point x="828" y="-204" type="line"/>
      <point x="828" y="-204"/>
      <point x="828" y="-204"/>
      <point x="828" y="-204" type="qcurve"/>
      <point x="14" y="-204" type="line"/>
    </contour>
  </outline>
  <guideline angle="0" x="0" y="988"/>
  <guideline angle="0" x="0" y="42"/>
</glyph>
<glyph name="h" format="2">
  <advance width="1377" height="1448"/>
  <unicode hex="0068"/>
  <anchor x="457" y="1568" name="top"/>
  <anchor x="549" y="-150" name="bottom"/>
  <anchor x="47" y="506" name="left"/>
  <outline>
    <contour>
      <point x="59.4637" y="0" type="line"/>
      <point x="312.464" y="1448" type="line"/>
      <point x="560.464" y="1448" type="line"/>
      <point x="465.464" y="906" type="line"/>
      <point x="504.464" y="957"/>
      <point x="647.464" y="1010"/>
      <point x="765.464" y="1010" type="qcurve" smooth="yes"/>
      <point x="949.464" y="1010" type="line" smooth="yes"/>
      <point x="1034.46" y="1010"/>
      <point x="1150.46" y="982"/>
      <point x="1216.46" y="922"/>
      <point x="1236.46" y="827"/>
      <point x="1224.46" y="760" type="qcurve" smooth="yes"/>
      <point x="1091.46" y="0" type="line"/>
      <point x="843.464" y="0" type="line"/>
      <point x="980.464" y="786" type="line"/>
      <point x="980.464" y="786"/>
      <point x="980.464" y="786"/>
      <point x="980.464" y="786" type="qcurve"/>
      <point x="444.464" y="786" type="line"/>
      <point x="307.464" y="0" type="line"/>
    </contour>
  </outline>
  <guideline y="988"/>
  <guideline y="870"/>
</glyph>
<glyph name="k" format="2">
  <advance width="1377" height="1448"/>
  <unicode hex="006B"/>
  <anchor x="460" y="1598" name="top"/>
  <anchor x="497" y="-150" name="bottom"/>
  <anchor x="85" y="724" name="left"/>
  <outline>
    <contour>
      <point x="59" y="0" type="line"/>
      <point x="307" y="0" type="line"/>
      <point x="397" y="516" type="line"/>
      <point x="373" y="516" type="line"/>
      <point x="909" y="0" type="line"/>
      <point x="1248" y="0" type="line"/>
      <point x="666" y="557" type="line"/>
      <point x="672" y="523" type="line"/>
      <point x="1304" y="1000" type="line"/>
      <point x="975" y="1000" type="line"/>
      <point x="385" y="550" type="line"/>
      <point x="402" y="545" type="line"/>
      <point x="560" y="1448" type="line"/>
      <point x="312" y="1448" type="line"/>
    </contour>
  </outline>
</glyph>
<glyph name="m" format="2">
  <advance width="1980" height="1448"/>
  <unicode hex="006D"/>
  <anchor x="990" y="1160" name="top"/>
  <anchor x="990" y="-150" name="bottom"/>
  <anchor x="47" y="506" name="left"/>
  <outline>
    <contour>
      <point x="58" y="0" type="line"/>
      <point x="306" y="0" type="line"/>
      <point x="443" y="786" type="line"/>
      <point x="889" y="786" type="line"/>
      <point x="752" y="0" type="line"/>
      <point x="1000" y="0" type="line"/>
      <point x="1137" y="786" type="line"/>
      <point x="1583" y="786" type="line"/>
      <point x="1583" y="786"/>
      <point x="1583" y="786"/>
      <point x="1583" y="786" type="qcurve"/>
      <point x="1446" y="0" type="line"/>
      <point x="1694" y="0" type="line"/>
      <point x="1827" y="760" type="line" smooth="yes"/>
      <point x="1839" y="827"/>
      <point x="1820" y="922"/>
      <point x="1753" y="982"/>
      <point x="1637" y="1010"/>
      <point x="1552" y="1010" type="qcurve" smooth="yes"/>
      <point x="1458" y="1010" type="line" smooth="yes"/>
      <point x="1391" y="1010"/>
      <point x="1286" y="992"/>
      <point x="1207" y="956"/>
      <point x="1153" y="904"/>
      <point x="1136" y="870" type="qcurve"/>
      <point x="1127" y="916"/>
      <point x="1072" y="971"/>
      <point x="994" y="1001"/>
      <point x="903" y="1010"/>
      <point x="858" y="1010" type="qcurve" smooth="yes"/>
      <point x="764" y="1010" type="line" smooth="yes"/>
      <point x="647" y="1010"/>
      <point x="504" y="957"/>
      <point x="464" y="906" type="qcurve"/>
      <point x="481" y="1000" type="line"/>
      <point x="233" y="1000" type="line"/>
    </contour>
  </outline>
</glyph>
<glyph name="o" format="2">
  <advance width="1394" height="1448"/>
  <unicode hex="006F"/>
  <anchor x="777" y="1150" name="top"/>
  <anchor x="550" y="-150" name="bottom"/>
  <anchor x="1262" y="804" name="horn"/>
  <anchor x="674" y="0" name="ogonek"/>
  <outline>
    <contour>
      <point x="66" y="204" type="line"/>
      <point x="171" y="806" type="line" smooth="yes"/>
      <point x="180" y="860"/>
      <point x="222" y="937"/>
      <point x="293" y="987"/>
      <point x="394" y="1010"/>
      <point x="462" y="1010" type="qcurve" smooth="yes"/>
      <point x="1042" y="1010" type="line" smooth="yes"/>
      <point x="1179" y="1010"/>
      <point x="1282" y="914"/>
      <point x="1263" y="806" type="qcurve" smooth="yes"/>
      <point x="1158" y="204" type="line" smooth="yes"/>
      <point x="1148" y="146"/>
      <point x="1106" y="65"/>
      <point x="1035" y="14"/>
      <point x="934" y="-10"/>
      <point x="864" y="-10" type="qcurve" smooth="yes"/>
      <point x="284" y="-10" type="line" smooth="yes"/>
      <point x="215" y="-10"/>
      <point x="122" y="14"/>
      <point x="70" y="65"/>
      <point x="56" y="146"/>
      <point x="66" y="204" type="qcurve"/>
    </contour>
    <contour>
      <point x="315" y="214" type="line"/>
      <point x="315" y="214"/>
      <point x="315" y="214"/>
      <point x="315" y="214" type="qcurve"/>
      <point x="911" y="214" type="line"/>
      <point x="911" y="214"/>
      <point x="911" y="214"/>
      <point x="911" y="214" type="qcurve"/>
      <point x="1011" y="786" type="line"/>
      <point x="1011" y="786"/>
      <point x="1011" y="786"/>
      <point x="1011" y="786" type="qcurve"/>
      <point x="415" y="786" type="line"/>
      <point x="415" y="786"/>
      <point x="415" y="786"/>
      <point x="415" y="786" type="qcurve"/>
    </contour>
  </outline>
</glyph>
<glyph name="p" format="2">
  <advance width="1412" height="1448"/>
  <unicode hex="0070"/>
  <anchor x="862" y="1598" name="top"/>
  <outline>
    <contour>
      <point x="-17" y="-428" type="line"/>
      <point x="233" y="1000" type="line"/>
      <point x="481" y="1000" type="line"/>
      <point x="463" y="900" type="line"/>
      <point x="494" y="956"/>
      <point x="622" y="1010"/>
      <point x="722" y="1010" type="qcurve" smooth="yes"/>
      <point x="1060" y="1010" type="line" smooth="yes"/>
      <point x="1129" y="1010"/>
      <point x="1222" y="986"/>
      <point x="1275" y="935"/>
      <point x="1289" y="854"/>
      <point x="1279" y="796" type="qcurve" smooth="yes"/>
      <point x="1174" y="194" type="line" smooth="yes"/>
      <point x="1165" y="140"/>
      <point x="1122" y="63"/>
      <point x="1052" y="13"/>
      <point x="950" y="-10"/>
      <point x="882" y="-10" type="qcurve" smooth="yes"/>
      <point x="544" y="-10" type="line" smooth="yes"/>
      <point x="444" y="-10"/>
      <point x="335" y="44"/>
      <point x="323" y="100" type="qcurve"/>
      <point x="231" y="-428" type="line"/>
    </contour>
    <contour>
      <point x="343" y="214" type="line"/>
      <point x="929" y="214" type="line"/>
      <point x="929" y="214"/>
      <point x="929" y="214"/>
      <point x="929" y="214" type="qcurve"/>
      <point x="1029" y="786" type="line"/>
      <point x="1029" y="786"/>
      <point x="1029" y="786"/>
      <point x="1029" y="786" type="qcurve"/>
      <point x="443" y="786" type="line"/>
    </contour>
  </outline>
</glyph>
<glyph name="s" format="2">
  <advance width="1275.35" height="1448"/>
  <unicode hex="0073"/>
  <anchor x="719" y="1150" name="top"/>
  <anchor x="492" y="-150" name="bottom"/>
  <outline>
    <contour>
      <point x="64.3497" y="252" type="line"/>
      <point x="292.35" y="298" type="line"/>
      <point x="273.35" y="194" type="line"/>
      <point x="273.35" y="194"/>
      <point x="273.35" y="194"/>
      <point x="273.35" y="194" type="qcurve"/>
      <point x="827.35" y="194" type="line"/>
      <point x="827.35" y="194"/>
      <point x="827.35" y="194"/>
      <point x="827.35" y="194" type="qcurve"/>
      <point x="863.35" y="400" type="line"/>
      <point x="863.35" y="400"/>
      <point x="863.35" y="400"/>
      <point x="863.35" y="400" type="qcurve"/>
      <point x="355.35" y="400" type="line" smooth="yes"/>
      <point x="298.35" y="400"/>
      <point x="211.35" y="417"/>
      <point x="156.35" y="463"/>
      <point x="136.35" y="543"/>
      <point x="147.35" y="606" type="qcurve" smooth="yes"/>
      <point x="184.35" y="814" type="line" smooth="yes"/>
      <point x="195.35" y="875"/>
      <point x="244.35" y="951"/>
      <point x="316.35" y="994"/>
      <point x="408.35" y="1010"/>
      <point x="462.35" y="1010" type="qcurve" smooth="yes"/>
      <point x="930.35" y="1010" type="line" smooth="yes"/>
      <point x="985.35" y="1010"/>
      <point x="1073.35" y="994"/>
      <point x="1130.35" y="951"/>
      <point x="1153.35" y="875"/>
      <point x="1142.35" y="814" type="qcurve" smooth="yes"/>
      <point x="1132.35" y="760" type="line"/>
      <point x="905.35" y="716" type="line"/>
      <point x="920.35" y="806" type="line"/>
      <point x="920.35" y="806"/>
      <point x="920.35" y="806"/>
      <point x="920.35" y="806" type="qcurve"/>
      <point x="402.35" y="806" type="line"/>
      <point x="402.35" y="806"/>
      <point x="402.35" y="806"/>
      <point x="402.35" y="806" type="qcurve"/>
      <point x="368.35" y="610" type="line"/>
      <point x="368.35" y="610"/>
      <point x="368.35" y="610"/>
      <point x="368.35" y="610" type="qcurve"/>
      <point x="874.35" y="610" type="line" smooth="yes"/>
      <point x="929.35" y="610"/>
      <point x="1017.35" y="595"/>
      <point x="1074.35" y="553"/>
      <point x="1097.35" y="476"/>
      <point x="1086.35" y="414" type="qcurve" smooth="yes"/>
      <point x="1047.35" y="194" type="line" smooth="yes"/>
      <point x="1036.35" y="131"/>
      <point x="989.35" y="52"/>
      <point x="918.35" y="7"/>
      <point x="824.35" y="-10"/>
      <point x="766.35" y="-10" type="qcurve" smooth="yes"/>
      <point x="262.35" y="-10" type="line" smooth="yes"/>
      <point x="205.35" y="-10"/>
      <point x="117.35" y="7"/>
      <point x="62.3497" y="52"/>
      <point x="42.3497" y="131"/>
      <point x="53.3497" y="194" type="qcurve" smooth="yes"/>
    </contour>
  </outline>
</glyph>
<glyph name="t" format="2">
  <advance width="862.615" height="1448"/>
  <unicode hex="0074"/>
  <anchor x="491" y="1394" name="top"/>
  <anchor x="352" y="-160" name="bottom"/>
  <anchor x="616" y="1400" name="right"/>
  <outline>
    <contour>
      <point x="378.213" y="-10" type="line" smooth="yes"/>
      <point x="309.213" y="-10"/>
      <point x="216.213" y="14"/>
      <point x="164.213" y="65"/>
      <point x="150.213" y="146"/>
      <point x="160.213" y="204" type="qcurve" smooth="yes"/>
      <point x="263.213" y="796" type="line"/>
      <point x="91.2132" y="796" type="line"/>
      <point x="127.213" y="1000" type="line"/>
      <point x="299.213" y="1000" type="line"/>
      <point x="341.213" y="1244" type="line"/>
      <point x="589.213" y="1244" type="line"/>
      <point x="547.213" y="1000" type="line"/>
      <point x="849.213" y="1000" type="line"/>
      <point x="813.213" y="796" type="line"/>
      <point x="511.213" y="796" type="line"/>
      <point x="406.213" y="194" type="line"/>
      <point x="406.213" y="194"/>
      <point x="406.213" y="194"/>
      <point x="406.213" y="194" type="qcurve"/>
      <point x="698.213" y="194" type="line"/>
      <point x="620.213" y="-10" type="line"/>
    </contour>
  </outline>
</glyph>
<glyph name="u" format="2">
  <advance width="1362" height="1448"/>
  <unicode hex="0075"/>
  <anchor x="762" y="1150" name="top"/>
  <anchor x="533" y="-160" name="bottom"/>
  <anchor x="659" y="0" name="ogonek"/>
  <anchor x="1252" y="1000" name="horn"/>
  <outline>
    <contour>
      <point x="78.4692" y="194" type="line"/>
      <point x="219.469" y="1000" type="line"/>
      <point x="467.469" y="1000" type="line"/>
      <point x="329.469" y="214" type="line"/>
      <point x="329.469" y="214"/>
      <point x="329.469" y="214"/>
      <point x="329.469" y="214" type="qcurve"/>
      <point x="865.469" y="214" type="line"/>
      <point x="865.469" y="214"/>
      <point x="865.469" y="214"/>
      <point x="865.469" y="214" type="qcurve"/>
      <point x="1003.47" y="1000" type="line"/>
      <point x="1251.47" y="1000" type="line"/>
      <point x="1110.47" y="194" type="line" smooth="yes"/>
      <point x="1099.47" y="131"/>
      <point x="1051.47" y="52"/>
      <point x="979.469" y="7"/>
      <point x="885.469" y="-10"/>
      <point x="828.469" y="-10" type="qcurve" smooth="yes"/>
      <point x="286.469" y="-10" type="line" smooth="yes"/>
      <point x="229.469" y="-10"/>
      <point x="142.469" y="7"/>
      <point x="87.4692" y="52"/>
      <point x="67.4692" y="131"/>
      <point x="78.4692" y="194" type="qcurve"/>
    </contour>
  </outline>
</glyph>
<glyph name="v" format="2">
  <advance width="1181.71" height="1448"/>
  <unicode hex="0076"/>
  <anchor x="673.184" y="1150" name="top"/>
  <anchor x="446.184" y="-150" name="bottom"/>
  <outline>
    <contour>
      <point x="392" y="0" type="line"/>
      <point x="570" y="0" type="line"/>
      <point x="1229" y="1000" type="line"/>
      <point x="973" y="1000" type="line"/>
      <point x="535" y="336" type="line"/>
      <point x="333" y="1000" type="line"/>
      <point x="65" y="1000" type="line"/>
    </contour>
  </outline>
</glyph>
<glyph name="x" format="2">
  <advance width="1173.71" height="1448"/>
  <unicode hex="0078"/>
  <anchor x="667.857" y="1150" name="top"/>
  <anchor x="440.857" y="-150" name="bottom"/>
  <outline>
    <contour>
      <point x="-111.143" y="0" type="line"/>
      <point x="196.857" y="0" type="line"/>
      <point x="519.857" y="327" type="line"/>
      <point x="726.857" y="5" type="line"/>
      <point x="1044.86" y="0" type="line"/>
      <point x="710.857" y="499" type="line"/>
      <point x="1217.86" y="1000" type="line"/>
      <point x="915.857" y="1000" type="line"/>
      <point x="583.857" y="663" type="line"/>
      <point x="383.857" y="1000" type="line"/>
      <point x="69.8571" y="1000" type="line"/>
      <point x="397.857" y="499" type="line"/>
    </contour>
  </outline>
</glyph>
<glyph name="y" format="2">
  <advance width="1184" height="1448"/>
  <unicode hex="0079"/>
  <anchor x="674" y="1150" name="top"/>
  <anchor x="763" y="-190" name="bottom"/>
  <outline>
    <contour>
      <point x="-112.816" y="-428" type="line"/>
      <point x="108.184" y="-428" type="line" smooth="yes"/>
      <point x="164.184" y="-428"/>
      <point x="247.184" y="-413"/>
      <point x="313.184" y="-377"/>
      <point x="370.184" y="-316"/>
      <point x="400.184" y="-270" type="qcurve" smooth="yes"/>
      <point x="1231.18" y="1000" type="line"/>
      <point x="957.184" y="1000" type="line"/>
      <point x="537.184" y="343" type="line"/>
      <point x="337.184" y="1000" type="line"/>
      <point x="65.1841" y="1000" type="line"/>
      <point x="363.184" y="83" type="line"/>
      <point x="180.184" y="-204" type="line"/>
      <point x="180.184" y="-204"/>
      <point x="180.184" y="-204"/>
      <point x="180.184" y="-204"/>
      <point x="180.184" y="-204"/>
      <point x="180.184" y="-204" type="qcurve"/>
      <point x="-119.816" y="-204" type="line"/>
    </contour>
  </outline>
</glyph>
<glyph name="z" format="2">
  <advance width="1136" height="1448"/>
  <unicode hex="007A"/>
  <anchor x="648" y="1150" name="top"/>
  <anchor x="421" y="-150" name="bottom"/>
  <outline>
    <contour>
      <point x="-40" y="0" type="line"/>
      <point x="936" y="0" type="line"/>
      <point x="973" y="209" type="line"/>
      <point x="372" y="209" type="line"/>
      <point x="372" y="189" type="line"/>
      <point x="1089" y="912" type="line"/>
      <point x="1105" y="1000" type="line"/>
      <point x="195" y="1000" type="line"/>
      <point x="158" y="791" type="line"/>
      <point x="693" y="791" type="line"/>
      <point x="685" y="805" type="line"/>
      <point x="-25" y="88" type="line"/>
    </contour>
  </outline>
</glyph>
<glyph name="braceleft" format="2">
  <advance width="827" height="1448"/>
  <unicode hex="007B"/>
  <outline>
    <contour>
      <point x="170" y="18" type="line"/>
      <point x="221" y="307" type="line" smooth="yes"/>
      <point x="228" y="348"/>
      <point x="217" y="414"/>
      <point x="179" y="460"/>
      <point x="112" y="485"/>
      <point x="62" y="485" type="qcurve"/>
      <point x="101" y="709" type="line"/>
      <point x="151" y="709"/>
      <point x="227" y="734"/>
      <point x="281" y="781"/>
      <point x="315" y="847"/>
      <point x="322" y="887" type="qcurve" smooth="yes"/>
      <point x="370" y="1164" type="line" smooth="yes"/>
      <point x="382" y="1232"/>
      <point x="443" y="1337"/>
      <point x="534" y="1410"/>
      <point x="651" y="1448"/>
      <point x="718" y="1448" type="qcurve" smooth="yes"/>
      <point x="939" y="1448" type="line"/>
      <point x="900" y="1224" type="line"/>
      <point x="751" y="1224" type="line" smooth="yes"/>
      <point x="718" y="1224"/>
      <point x="670" y="1211"/>
      <point x="635" y="1183"/>
      <point x="614" y="1141"/>
      <point x="609" y="1112" type="qcurve" smooth="yes"/>
      <point x="568" y="877" type="line" smooth="yes"/>
      <point x="549" y="766"/>
      <point x="421" y="624"/>
      <point x="320" y="597" type="qcurve"/>
      <point x="365" y="584"/>
      <point x="431" y="534"/>
      <point x="470" y="464"/>
      <point x="480" y="373"/>
      <point x="471" y="317" type="qcurve" smooth="yes"/>
      <point x="429" y="80" type="line" smooth="yes"/>
      <point x="424" y="51"/>
      <point x="431" y="9"/>
      <point x="455" y="-19"/>
      <point x="499" y="-32"/>
      <point x="532" y="-32" type="qcurve" smooth="yes"/>
      <point x="681" y="-32" type="line"/>
      <point x="642" y="-256" type="line"/>
      <point x="421" y="-256" type="line" smooth="yes"/>
      <point x="354" y="-256"/>
      <point x="250" y="-218"/>
      <point x="184" y="-147"/>
      <point x="159" y="-46"/>
      <point x="170" y="18" type="qcurve"/>
    </contour>
  </outline>
</glyph>
<glyph name="bar" format="2">
  <advance width="630.796" height="1448"/>
  <unicode hex="007C"/>
  <outline>
    <contour>
      <point x="345" y="1520" type="line"/>
      <point x="575" y="1520" type="line"/>
      <point x="226" y="-480" type="line"/>
      <point x="-4" y="-480" type="line"/>
    </contour>
  </outline>
</glyph>
<glyph name="asciitilde" format="2">
  <advance width="1217" height="1448"/>
  <unicode hex="007E"/>
  <outline>
    <contour>
      <point x="-15" y="481" type="line"/>
      <point x="7" y="534"/>
      <point x="65" y="616"/>
      <point x="132" y="677"/>
      <point x="205" y="718"/>
      <point x="282" y="743"/>
      <point x="360" y="754"/>
      <point x="397" y="754" type="qcurve" smooth="yes"/>
      <point x="442" y="754"/>
      <point x="526" y="735"/>
      <point x="603" y="705"/>
      <point x="675" y="672"/>
      <point x="742" y="642"/>
      <point x="805" y="623"/>
      <point x="835" y="623" type="qcurve" smooth="yes"/>
      <point x="856" y="623"/>
      <point x="904" y="633"/>
      <point x="949" y="658"/>
      <point x="989" y="700"/>
      <point x="1002" y="731" type="qcurve"/>
      <point x="1200" y="695" type="line"/>
      <point x="1178" y="641"/>
      <point x="1120" y="558"/>
      <point x="1053" y="497"/>
      <point x="979" y="456"/>
      <point x="903" y="431"/>
      <point x="825" y="420"/>
      <point x="788" y="420" type="qcurve" smooth="yes"/>
      <point x="743" y="420"/>
      <point x="659" y="440"/>
      <point x="582" y="469"/>
      <point x="510" y="504"/>
      <point x="443" y="533"/>
      <point x="381" y="553"/>
      <point x="351" y="553" type="qcurve" smooth="yes"/>
      <point x="330" y="553"/>
      <point x="282" y="543"/>
      <point x="236" y="518"/>
      <point x="197" y="476"/>
      <point x="184" y="445" type="qcurve"/>
    </contour>
  </outline>
</glyph>
<glyph name="cent" format="2">
  <advance width="1341" height="1448"/>
  <unicode hex="00A2"/>
  <outline>
    <contour>
      <point x="434" y="-100" type="line"/>
      <point x="648" y="-100" type="line"/>
      <point x="689" y="140" type="line"/>
      <point x="873" y="140" type="line" smooth="yes"/>
      <point x="942" y="140"/>
      <point x="1044" y="164"/>
      <point x="1115" y="215"/>
      <point x="1157" y="296"/>
      <point x="1167" y="354" type="qcurve" smooth="yes"/>
      <point x="1185" y="456" type="line"/>
      <point x="945" y="506" type="line"/>
      <point x="921" y="364" type="line"/>
      <point x="921" y="364"/>
      <point x="921" y="364"/>
      <point x="921" y="364" type="qcurve"/>
      <point x="729" y="364" type="line"/>
      <point x="828" y="936" type="line"/>
      <point x="1016" y="936" type="line"/>
      <point x="1016" y="936"/>
      <point x="1016" y="936"/>
      <point x="1016" y="936" type="qcurve"/>
      <point x="993" y="804" type="line"/>
      <point x="1249" y="850" type="line"/>
      <point x="1268" y="956" type="line" smooth="yes"/>
      <point x="1277" y="1011"/>
      <point x="1262" y="1088"/>
      <point x="1209" y="1137"/>
      <point x="1116" y="1160"/>
      <point x="1047" y="1160" type="qcurve" smooth="yes"/>
      <point x="867" y="1160" type="line"/>
      <point x="909" y="1400" type="line"/>
      <point x="695" y="1400" type="line"/>
      <point x="653" y="1160" type="line"/>
      <point x="489" y="1160" type="line" smooth="yes"/>
      <point x="420" y="1160"/>
      <point x="319" y="1137"/>
      <point x="249" y="1088"/>
      <point x="207" y="1011"/>
      <point x="198" y="956" type="qcurve" smooth="yes"/>
      <point x="93" y="354" type="line" smooth="yes"/>
      <point x="83" y="296"/>
      <point x="96" y="215"/>
      <point x="148" y="164"/>
      <point x="241" y="140"/>
      <point x="311" y="140" type="qcurve" smooth="yes"/>
      <point x="475" y="140" type="line"/>
    </contour>
    <contour>
      <point x="614" y="936" type="line"/>
      <point x="515" y="364" type="line"/>
      <point x="343" y="364" type="line"/>
      <point x="343" y="364"/>
      <point x="343" y="364"/>
      <point x="343" y="364" type="qcurve"/>
      <point x="442" y="936" type="line"/>
      <point x="442" y="936"/>
      <point x="442" y="936"/>
      <point x="442" y="936" type="qcurve"/>
    </contour>
  </outline>
</glyph>
<glyph name="section" format="2">
  <advance width="1423.88" height="1448"/>
  <unicode hex="00A7"/>
  <outline>
    <contour>
      <point x="300" y="-135" type="line"/>
      <point x="809" y="-135" type="line" smooth="yes"/>
      <point x="867" y="-135"/>
      <point x="962" y="-119"/>
      <point x="1033" y="-74"/>
      <point x="1081" y="6"/>
      <point x="1091" y="69" type="qcurve" smooth="yes"/>
      <point x="1129" y="289" type="line"/>
      <point x="1132" y="301"/>
      <point x="1134" y="323"/>
      <point x="1133" y="334" type="qcurve"/>
      <point x="1155" y="347"/>
      <point x="1191" y="382"/>
      <point x="1219" y="428"/>
      <point x="1239" y="485"/>
      <point x="1245" y="519" type="qcurve" smooth="yes"/>
      <point x="1289" y="774" type="line" smooth="yes"/>
      <point x="1300" y="836"/>
      <point x="1279" y="921"/>
      <point x="1223" y="972"/>
      <point x="1136" y="994"/>
      <point x="1081" y="994" type="qcurve" smooth="yes"/>
      <point x="525" y="994" type="line"/>
      <point x="525" y="994"/>
      <point x="525" y="994"/>
      <point x="525" y="994" type="qcurve"/>
      <point x="561" y="1196" type="line"/>
      <point x="561" y="1196"/>
      <point x="561" y="1196"/>
      <point x="561" y="1196" type="qcurve"/>
      <point x="1074" y="1196" type="line"/>
      <point x="1074" y="1196"/>
      <point x="1074" y="1196"/>
      <point x="1074" y="1196" type="qcurve"/>
      <point x="1058" y="1106" type="line"/>
      <point x="1286" y="1150" type="line"/>
      <point x="1295" y="1204" type="line" smooth="yes"/>
      <point x="1306" y="1265"/>
      <point x="1283" y="1341"/>
      <point x="1226" y="1384"/>
      <point x="1138" y="1400"/>
      <point x="1083" y="1400" type="qcurve" smooth="yes"/>
      <point x="620" y="1400" type="line" smooth="yes"/>
      <point x="566" y="1400"/>
      <point x="474" y="1384"/>
      <point x="402" y="1341"/>
      <point x="353" y="1265"/>
      <point x="342" y="1204" type="qcurve" smooth="yes"/>
      <point x="306" y="996" type="line" smooth="yes"/>
      <point x="304" y="985"/>
      <point x="302" y="965"/>
      <point x="301" y="956" type="qcurve"/>
      <point x="278" y="946"/>
      <point x="238" y="917"/>
      <point x="207" y="875"/>
      <point x="185" y="820"/>
      <point x="179" y="784" type="qcurve" smooth="yes"/>
      <point x="127" y="487" type="line" smooth="yes"/>
      <point x="117" y="424"/>
      <point x="136" y="344"/>
      <point x="191" y="298"/>
      <point x="278" y="281"/>
      <point x="335" y="281" type="qcurve" smooth="yes"/>
      <point x="908" y="281" type="line"/>
      <point x="908" y="281"/>
      <point x="908" y="281"/>
      <point x="908" y="281" type="qcurve"/>
      <point x="871" y="69" type="line"/>
      <point x="871" y="69"/>
      <point x="871" y="69"/>
      <point x="871" y="69" type="qcurve"/>
      <point x="312" y="69" type="line"/>
      <point x="312" y="69"/>
      <point x="312" y="69"/>
      <point x="312" y="69" type="qcurve"/>
      <point x="330" y="173" type="line"/>
      <point x="102" y="127" type="line"/>
      <point x="92" y="69" type="line" smooth="yes"/>
      <point x="82" y="6"/>
      <point x="101" y="-74"/>
      <point x="156" y="-119"/>
      <point x="243" y="-135"/>
      <point x="300" y="-135" type="qcurve"/>
    </contour>
    <contour>
      <point x="347" y="485" type="line"/>
      <point x="347" y="485"/>
      <point x="347" y="485"/>
      <point x="347" y="485" type="qcurve"/>
      <point x="400" y="790" type="line"/>
      <point x="400" y="790"/>
      <point x="400" y="790"/>
      <point x="400" y="790" type="qcurve"/>
      <point x="1072" y="790" type="line"/>
      <point x="1072" y="790"/>
      <point x="1072" y="790"/>
      <point x="1072" y="790" type="qcurve"/>
      <point x="1019" y="485" type="line"/>
      <point x="1019" y="485"/>
      <point x="1019" y="485"/>
      <point x="1019" y="485" type="qcurve"/>
    </contour>
  </outline>
</glyph>
<glyph name="logicalnot" format="2">
  <advance width="1438" height="1448"/>
  <unicode hex="00AC"/>
  <outline>
    <contour>
      <point x="1236" y="273" type="line"/>
      <point x="1012" y="273" type="line"/>
      <point x="1085" y="693" type="line"/>
      <point x="131" y="693" type="line"/>
      <point x="167" y="901" type="line"/>
      <point x="1345" y="901" type="line"/>
    </contour>
  </outline>
</glyph>
<glyph name="registered" format="2">
  <advance width="834" height="1448"/>
  <unicode hex="00AE"/>
  <outline>
    <contour>
      <point x="141" y="1053" type="line"/>
      <point x="204" y="1413" type="line" smooth="yes"/>
      <point x="215" y="1482"/>
      <point x="303" y="1555"/>
      <point x="372" y="1555" type="qcurve" smooth="yes"/>
      <point x="766" y="1555" type="line" smooth="yes"/>
      <point x="835" y="1555"/>
      <point x="898" y="1482"/>
      <point x="887" y="1413" type="qcurve" smooth="yes"/>
      <point x="824" y="1053" type="line" smooth="yes"/>
      <point x="812" y="984"/>
      <point x="723" y="910"/>
      <point x="654" y="910" type="qcurve" smooth="yes"/>
      <point x="260" y="910" type="line" smooth="yes"/>
      <point x="191" y="910"/>
      <point x="129" y="984"/>
      <point x="141" y="1053" type="qcurve"/>
    </contour>
    <contour>
      <point x="271" y="1413" type="line"/>
      <point x="208" y="1053" type="line" smooth="yes"/>
      <point x="201" y="1013"/>
      <point x="230" y="971"/>
      <point x="270" y="971" type="qcurve" smooth="yes"/>
      <point x="664" y="971" type="line" smooth="yes"/>
      <point x="704" y="971"/>
      <point x="750" y="1013"/>
      <point x="757" y="1053" type="qcurve" smooth="yes"/>
      <point x="820" y="1413" type="line" smooth="yes"/>
      <point x="827" y="1453"/>
      <point x="796" y="1494"/>
      <point x="756" y="1494" type="qcurve" smooth="yes"/>
      <point x="362" y="1494" type="line" smooth="yes"/>
      <point x="322" y="1494"/>
      <point x="278" y="1453"/>
      <point x="271" y="1413" type="qcurve"/>
    </contour>
    <contour>
      <point x="362" y="1400" type="line"/>
      <point x="643" y="1400" type="line" smooth="yes"/>
      <point x="684" y="1400"/>
      <point x="730" y="1371"/>
      <point x="722" y="1326" type="qcurve" smooth="yes"/>
      <point x="706" y="1231" type="line"/>
      <point x="702" y="1211"/>
      <point x="687" y="1188"/>
      <point x="663" y="1176"/>
      <point x="631" y="1173"/>
      <point x="611" y="1173" type="qcurve"/>
      <point x="611" y="1173" type="line"/>
      <point x="706" y="1060" type="line"/>
      <point x="573" y="1060" type="line"/>
      <point x="482" y="1173" type="line"/>
      <point x="429" y="1173" type="line"/>
      <point x="409" y="1060" type="line"/>
      <point x="303" y="1060" type="line"/>
    </contour>
    <contour>
      <point x="443" y="1252" type="line"/>
      <point x="583" y="1252" type="line" smooth="yes"/>
      <point x="593" y="1252"/>
      <point x="604" y="1260"/>
      <point x="607" y="1271" type="qcurve"/>
      <point x="611" y="1296" type="line"/>
      <point x="612" y="1306"/>
      <point x="604" y="1315"/>
      <point x="594" y="1315" type="qcurve" smooth="yes"/>
      <point x="454" y="1315" type="line"/>
    </contour>
  </outline>
</glyph>
<glyph name="paragraph" format="2">
  <advance width="1168" height="1448"/>
  <unicode hex="00B6"/>
  <outline>
    <contour>
      <point x="848" y="0" type="line"/>
      <point x="768" y="0" type="line"/>
      <point x="993" y="1288" type="line"/>
      <point x="889" y="1288" type="line"/>
      <point x="664" y="0" type="line"/>
      <point x="584" y="0" type="line"/>
      <point x="676" y="528" type="line"/>
      <point x="398" y="528" type="line" smooth="yes"/>
      <point x="312" y="528"/>
      <point x="188" y="560"/>
      <point x="114" y="625"/>
      <point x="88" y="723"/>
      <point x="100" y="788" type="qcurve" smooth="yes"/>
      <point x="159" y="1126" type="line" smooth="yes"/>
      <point x="174" y="1212"/>
      <point x="243" y="1319"/>
      <point x="344" y="1379"/>
      <point x="474" y="1400"/>
      <point x="550" y="1400" type="qcurve" smooth="yes"/>
      <point x="1092" y="1400" type="line"/>
    </contour>
  </outline>
  <guideline x="584" name="halfwidth" color="0.4,0.4,0.4,1"/>
</glyph>
<glyph name="multiply" format="2">
  <advance width="1272.16" height="1448"/>
  <unicode hex="00D7"/>
  <outline>
    <contour>
      <point x="184" y="82" type="line"/>
      <point x="51" y="242" type="line"/>
      <point x="472" y="601" type="line"/>
      <point x="177" y="960" type="line"/>
      <point x="335" y="1095" type="line"/>
      <point x="634" y="732" type="line"/>
      <point x="1053" y="1095" type="line"/>
      <point x="1186" y="935" type="line"/>
      <point x="763" y="576" type="line"/>
      <point x="1060" y="217" type="line"/>
      <point x="902" y="82" type="line"/>
      <point x="605" y="449" type="line"/>
      <point x="184" y="82" type="line"/>
    </contour>
  </outline>
  <guideline angle="40.4152" color="1,0,0,1" x="185.416" y="82"/>
  <guideline angle="309.544" color="1,0,0,1" x="188.416" y="948"/>
</glyph>
<glyph name="Oslash" format="2">
  <advance width="2012.61" height="1448"/>
  <unicode hex="00D8"/>
  <anchor x="1167" y="1610" name="top"/>
  <outline>
    <contour>
      <point x="359.306" y="1140" type="line"/>
      <point x="207.306" y="272" type="line" smooth="yes"/>
      <point x="192.306" y="184"/>
      <point x="220.306" y="73"/>
      <point x="297.306" y="10"/>
      <point x="420.306" y="-14"/>
      <point x="500.306" y="-14" type="qcurve" smooth="yes"/>
      <point x="1266.31" y="-14" type="line" smooth="yes"/>
      <point x="1346.31" y="-14"/>
      <point x="1478.31" y="9"/>
      <point x="1577.31" y="72"/>
      <point x="1644.31" y="184"/>
      <point x="1659.31" y="272" type="qcurve" smooth="yes"/>
      <point x="1811.31" y="1140" type="line" smooth="yes"/>
      <point x="1826.31" y="1226"/>
      <point x="1794.31" y="1333"/>
      <point x="1713.31" y="1393"/>
      <point x="1591.31" y="1414"/>
      <point x="1515.31" y="1414" type="qcurve" smooth="yes"/>
      <point x="749.306" y="1414" type="line" smooth="yes"/>
      <point x="673.306" y="1414"/>
      <point x="544.306" y="1393"/>
      <point x="443.306" y="1333"/>
      <point x="374.306" y="1226"/>
      <point x="359.306" y="1140" type="qcurve"/>
    </contour>
    <contour>
      <point x="628.306" y="1170" type="line"/>
      <point x="628.306" y="1170"/>
      <point x="628.306" y="1170"/>
      <point x="628.306" y="1170"/>
      <point x="628.306" y="1170"/>
      <point x="628.306" y="1170" type="qcurve"/>
      <point x="1552.31" y="1170" type="line"/>
      <point x="1552.31" y="1170"/>
      <point x="1552.31" y="1170"/>
      <point x="1552.31" y="1170"/>
      <point x="1552.31" y="1170"/>
      <point x="1552.31" y="1170" type="qcurve"/>
      <point x="1388.31" y="230" type="line"/>
      <point x="1388.31" y="230"/>
      <point x="1388.31" y="230"/>
      <point x="1388.31" y="230"/>
      <point x="1388.31" y="230"/>
      <point x="1388.31" y="230" type="qcurve"/>
      <point x="464.306" y="230" type="line"/>
      <point x="464.306" y="230"/>
      <point x="464.306" y="230"/>
      <point x="464.306" y="230"/>
      <point x="464.306" y="230"/>
      <point x="464.306" y="230" type="qcurve"/>
    </contour>
    <contour>
      <point x="169.306" y="-60" type="line"/>
      <point x="387.306" y="108" type="line"/>
      <point x="398.306" y="116" type="line"/>
      <point x="1700.31" y="1118" type="line"/>
      <point x="1700.31" y="1118" type="line"/>
      <point x="1954.31" y="1314" type="line"/>
      <point x="1848.31" y="1460" type="line"/>
      <point x="1598.31" y="1268" type="line"/>
      <point x="1597.31" y="1267" type="line"/>
      <point x="298.306" y="267" type="line"/>
      <point x="292.306" y="263" type="line"/>
      <point x="62.3063" y="86" type="line"/>
    </contour>
  </outline>
  <guideline angle="0" x="0" y="-60"/>
  <guideline angle="0" x="0" y="-60"/>
  <guideline angle="0" x="0" y="1460"/>
</glyph>
<glyph name="germandbls" format="2">
  <advance width="1357.29" height="1448"/>
  <unicode hex="00DF"/>
  <outline>
    <contour>
      <point x="45" y="0" type="line"/>
      <point x="293" y="0" type="line"/>
      <point x="510" y="1244" type="line"/>
      <point x="510" y="1244"/>
      <point x="510" y="1244"/>
      <point x="510" y="1244" type="qcurve"/>
      <point x="1028" y="1244" type="line"/>
      <point x="1028" y="1244"/>
      <point x="1028" y="1244"/>
      <point x="1028" y="1244" type="qcurve"/>
      <point x="986" y="1000" type="line"/>
      <point x="986" y="1000"/>
      <point x="986" y="1000"/>
      <point x="986" y="1000" type="qcurve"/>
      <point x="695" y="1000" type="line"/>
      <point x="655" y="776" type="line"/>
      <point x="982" y="776" type="line"/>
      <point x="982" y="776"/>
      <point x="982" y="776"/>
      <point x="982" y="776"/>
      <point x="982" y="776"/>
      <point x="982" y="776" type="qcurve"/>
      <point x="884" y="214" type="line"/>
      <point x="884" y="214"/>
      <point x="884" y="214"/>
      <point x="884" y="214"/>
      <point x="884" y="214"/>
      <point x="884" y="214" type="qcurve"/>
      <point x="488" y="214" type="line"/>
      <point x="449" y="-10" type="line"/>
      <point x="847" y="-10" type="line" smooth="yes"/>
      <point x="905" y="-10"/>
      <point x="1000" y="7"/>
      <point x="1071" y="52"/>
      <point x="1119" y="131"/>
      <point x="1129" y="194" type="qcurve" smooth="yes"/>
      <point x="1229" y="767" type="line" smooth="yes"/>
      <point x="1237" y="808"/>
      <point x="1232" y="868"/>
      <point x="1210" y="912"/>
      <point x="1172" y="940"/>
      <point x="1146" y="948" type="qcurve"/>
      <point x="1193" y="973"/>
      <point x="1245" y="1060"/>
      <point x="1256" y="1127" type="qcurve" smooth="yes"/>
      <point x="1276" y="1244" type="line" smooth="yes"/>
      <point x="1295" y="1352"/>
      <point x="1193" y="1448"/>
      <point x="1056" y="1448" type="qcurve" smooth="yes"/>
      <point x="554" y="1448" type="line" smooth="yes"/>
      <point x="486" y="1448"/>
      <point x="385" y="1425"/>
      <point x="314" y="1375"/>
      <point x="272" y="1298"/>
      <point x="262" y="1244" type="qcurve" smooth="yes"/>
    </contour>
  </outline>
</glyph>
<glyph name="ae" format="2">
  <advance width="2100" height="1448"/>
  <unicode hex="00E6"/>
  <anchor x="1146" y="1150" name="top"/>
  <anchor x="899" y="-150" name="bottom"/>
  <outline>
    <contour>
      <point x="264" y="-10" type="line"/>
      <point x="634" y="-10" type="line" smooth="yes"/>
      <point x="712" y="-10"/>
      <point x="837" y="35"/>
      <point x="876" y="83" type="qcurve"/>
      <point x="900" y="35"/>
      <point x="1014" y="-10"/>
      <point x="1092" y="-10" type="qcurve" smooth="yes"/>
      <point x="1574" y="-10" type="line" smooth="yes"/>
      <point x="1631" y="-10"/>
      <point x="1725" y="7"/>
      <point x="1796" y="52"/>
      <point x="1843" y="131"/>
      <point x="1854" y="194" type="qcurve" smooth="yes"/>
      <point x="1864" y="252" type="line"/>
      <point x="1624" y="298" type="line"/>
      <point x="1606" y="194" type="line"/>
      <point x="1606" y="194"/>
      <point x="1606" y="194"/>
      <point x="1606" y="194" type="qcurve"/>
      <point x="1082" y="194" type="line"/>
      <point x="1082" y="194"/>
      <point x="1082" y="194"/>
      <point x="1082" y="194" type="qcurve"/>
      <point x="1118" y="400" type="line"/>
      <point x="1898" y="400" type="line"/>
      <point x="1970" y="814" type="line" smooth="yes"/>
      <point x="1981" y="875"/>
      <point x="1958" y="951"/>
      <point x="1901" y="994"/>
      <point x="1814" y="1010"/>
      <point x="1760" y="1010" type="qcurve" smooth="yes"/>
      <point x="1404" y="1010" type="line" smooth="yes"/>
      <point x="1321" y="1010"/>
      <point x="1185" y="969"/>
      <point x="1143" y="921" type="qcurve"/>
      <point x="1120" y="968"/>
      <point x="1010" y="1010"/>
      <point x="932" y="1010" type="qcurve" smooth="yes"/>
      <point x="456" y="1010" type="line" smooth="yes"/>
      <point x="401" y="1010"/>
      <point x="308" y="994"/>
      <point x="236" y="951"/>
      <point x="187" y="875"/>
      <point x="176" y="814" type="qcurve" smooth="yes"/>
      <point x="167" y="760" type="line"/>
      <point x="407" y="716" type="line"/>
      <point x="423" y="806" type="line"/>
      <point x="423" y="806"/>
      <point x="423" y="806"/>
      <point x="423" y="806" type="qcurve"/>
      <point x="941" y="806" type="line"/>
      <point x="941" y="806"/>
      <point x="941" y="806"/>
      <point x="941" y="806" type="qcurve"/>
      <point x="906" y="610" type="line"/>
      <point x="372" y="610" type="line" smooth="yes"/>
      <point x="317" y="610"/>
      <point x="224" y="595"/>
      <point x="152" y="553"/>
      <point x="103" y="476"/>
      <point x="92" y="414" type="qcurve" smooth="yes"/>
      <point x="54" y="194" type="line" smooth="yes"/>
      <point x="43" y="131"/>
      <point x="63" y="52"/>
      <point x="118" y="7"/>
      <point x="206" y="-10"/>
      <point x="264" y="-10" type="qcurve"/>
    </contour>
    <contour>
      <point x="302" y="194" type="line"/>
      <point x="302" y="194"/>
      <point x="302" y="194"/>
      <point x="302" y="194" type="qcurve"/>
      <point x="338" y="400" type="line"/>
      <point x="338" y="400"/>
      <point x="338" y="400"/>
      <point x="338" y="400" type="qcurve"/>
      <point x="870" y="400" type="line"/>
      <point x="834" y="194" type="line"/>
      <point x="834" y="194"/>
      <point x="834" y="194"/>
      <point x="834" y="194" type="qcurve"/>
    </contour>
    <contour>
      <point x="1154" y="610" type="line"/>
      <point x="1189" y="806" type="line"/>
      <point x="1189" y="806"/>
      <point x="1189" y="806"/>
      <point x="1189" y="806" type="qcurve"/>
      <point x="1721" y="806" type="line"/>
      <point x="1721" y="806"/>
      <point x="1721" y="806"/>
      <point x="1721" y="806" type="qcurve"/>
      <point x="1686" y="610" type="line"/>
    </contour>
  </outline>
</glyph>
<glyph name="divide" format="2">
  <advance width="1436.82" height="1448"/>
  <unicode hex="00F7"/>
  <outline>
    <contour>
      <point x="634" y="940" type="line"/>
      <point x="646" y="1011" type="line" smooth="yes"/>
      <point x="652" y="1047"/>
      <point x="665" y="1089"/>
      <point x="688" y="1110"/>
      <point x="727" y="1115"/>
      <point x="759" y="1115" type="qcurve" smooth="yes"/>
      <point x="829" y="1115" type="line" smooth="yes"/>
      <point x="862" y="1115"/>
      <point x="899" y="1110"/>
      <point x="915" y="1089"/>
      <point x="912" y="1047"/>
      <point x="906" y="1011" type="qcurve" smooth="yes"/>
      <point x="894" y="940" type="line" smooth="yes"/>
      <point x="888" y="904"/>
      <point x="875" y="862"/>
      <point x="852" y="841"/>
      <point x="813" y="835"/>
      <point x="780" y="835" type="qcurve" smooth="yes"/>
      <point x="710" y="835" type="line" smooth="yes"/>
      <point x="677" y="835"/>
      <point x="641" y="841"/>
      <point x="625" y="862"/>
      <point x="628" y="904"/>
      <point x="634" y="940" type="qcurve"/>
    </contour>
    <contour>
      <point x="94" y="483" type="line"/>
      <point x="130" y="691" type="line"/>
      <point x="1308" y="691" type="line"/>
      <point x="1272" y="483" type="line"/>
    </contour>
    <contour>
      <point x="498" y="162" type="line"/>
      <point x="511" y="233" type="line" smooth="yes"/>
      <point x="517" y="269"/>
      <point x="529" y="311"/>
      <point x="552" y="332"/>
      <point x="591" y="337"/>
      <point x="623" y="337" type="qcurve" smooth="yes"/>
      <point x="693" y="337" type="line" smooth="yes"/>
      <point x="726" y="337"/>
      <point x="763" y="332"/>
      <point x="779" y="311"/>
      <point x="777" y="269"/>
      <point x="771" y="233" type="qcurve" smooth="yes"/>
      <point x="758" y="162" type="line" smooth="yes"/>
      <point x="752" y="126"/>
      <point x="739" y="84"/>
      <point x="716" y="63"/>
      <point x="677" y="57"/>
      <point x="644" y="57" type="qcurve" smooth="yes"/>
      <point x="574" y="57" type="line" smooth="yes"/>
      <point x="541" y="57"/>
      <point x="505" y="63"/>
      <point x="489" y="84"/>
      <point x="492" y="126"/>
      <point x="498" y="162" type="qcurve"/>
    </contour>
  </outline>
</glyph>
<glyph name="oslash" format="2">
  <advance width="1535" height="1448"/>
  <unicode hex="00F8"/>
  <anchor x="849" y="1150" name="top"/>
  <outline>
    <contour>
      <point x="137.309" y="204" type="line"/>
      <point x="242.309" y="806" type="line" smooth="yes"/>
      <point x="251.309" y="860"/>
      <point x="293.309" y="937"/>
      <point x="364.309" y="987"/>
      <point x="465.309" y="1010"/>
      <point x="533.309" y="1010" type="qcurve" smooth="yes"/>
      <point x="1113.31" y="1010" type="line" smooth="yes"/>
      <point x="1250.31" y="1010"/>
      <point x="1353.31" y="914"/>
      <point x="1334.31" y="806" type="qcurve" smooth="yes"/>
      <point x="1229.31" y="204" type="line" smooth="yes"/>
      <point x="1219.31" y="146"/>
      <point x="1177.31" y="65"/>
      <point x="1106.31" y="14"/>
      <point x="1005.31" y="-10"/>
      <point x="935.309" y="-10" type="qcurve" smooth="yes"/>
      <point x="355.309" y="-10" type="line" smooth="yes"/>
      <point x="286.309" y="-10"/>
      <point x="193.309" y="14"/>
      <point x="141.309" y="65"/>
      <point x="127.309" y="146"/>
      <point x="137.309" y="204" type="qcurve"/>
    </contour>
    <contour>
      <point x="386.309" y="214" type="line"/>
      <point x="386.309" y="214"/>
      <point x="386.309" y="214"/>
      <point x="386.309" y="214" type="qcurve"/>
      <point x="982.309" y="214" type="line"/>
      <point x="982.309" y="214"/>
      <point x="982.309" y="214"/>
      <point x="982.309" y="214" type="qcurve"/>
      <point x="1082.31" y="786" type="line"/>
      <point x="1082.31" y="786"/>
      <point x="1082.31" y="786"/>
      <point x="1082.31" y="786" type="qcurve"/>
      <point x="486.309" y="786" type="line"/>
      <point x="486.309" y="786"/>
      <point x="486.309" y="786"/>
      <point x="486.309" y="786" type="qcurve"/>
    </contour>
    <contour>
      <point x="136.309" y="-60" type="line"/>
      <point x="41.3088" y="69" type="line"/>
      <point x="272.309" y="245" type="line"/>
      <point x="276.309" y="249" type="line"/>
      <point x="1082.31" y="867" type="line"/>
      <point x="1083.31" y="868" type="line"/>
      <point x="1333.31" y="1060" type="line"/>
      <point x="1427.31" y="931" type="line"/>
      <point x="1174.31" y="736" type="line"/>
      <point x="1174.31" y="736" type="line"/>
      <point x="365.309" y="117" type="line"/>
      <point x="358.309" y="111" type="line"/>
    </contour>
  </outline>
  <guideline y="1060"/>
  <guideline y="-60"/>
</glyph>
<glyph name="thorn" format="2">
  <advance width="1413.26" height="1448"/>
  <unicode hex="00FE"/>
  <outline>
    <contour>
      <point x="-16" y="-428" type="line"/>
      <point x="312" y="1448" type="line"/>
      <point x="560" y="1448" type="line"/>
      <point x="464" y="900" type="line"/>
      <point x="495" y="956"/>
      <point x="624" y="1010"/>
      <point x="723" y="1010" type="qcurve" smooth="yes"/>
      <point x="1061" y="1010" type="line" smooth="yes"/>
      <point x="1130" y="1010"/>
      <point x="1224" y="986"/>
      <point x="1276" y="935"/>
      <point x="1291" y="854"/>
      <point x="1280" y="796" type="qcurve" smooth="yes"/>
      <point x="1175" y="194" type="line" smooth="yes"/>
      <point x="1166" y="140"/>
      <point x="1124" y="63"/>
      <point x="1053" y="13"/>
      <point x="952" y="-10"/>
      <point x="883" y="-10" type="qcurve" smooth="yes"/>
      <point x="545" y="-10" type="line" smooth="yes"/>
      <point x="446" y="-10"/>
      <point x="337" y="44"/>
      <point x="324" y="100" type="qcurve"/>
      <point x="232" y="-428" type="line"/>
    </contour>
    <contour>
      <point x="344" y="214" type="line"/>
      <point x="930" y="214" type="line"/>
      <point x="930" y="214"/>
      <point x="930" y="214"/>
      <point x="930" y="214" type="qcurve"/>
      <point x="1030" y="786" type="line"/>
      <point x="1030" y="786"/>
      <point x="1030" y="786"/>
      <point x="1030" y="786" type="qcurve"/>
      <point x="444" y="786" type="line"/>
    </contour>
  </outline>
</glyph>
<glyph name="dcroat" format="2">
  <advance width="1431.77" height="1448"/>
  <unicode hex="0111"/>
  <anchor x="869.263" y="1598" name="top"/>
  <outline>
    <contour>
      <point x="286" y="-10" type="line" smooth="yes"/>
      <point x="217" y="-10"/>
      <point x="124" y="14"/>
      <point x="72" y="65"/>
      <point x="58" y="146"/>
      <point x="67" y="204" type="qcurve" smooth="yes"/>
      <point x="171" y="806" type="line" smooth="yes"/>
      <point x="181" y="860"/>
      <point x="223" y="937"/>
      <point x="293" y="987"/>
      <point x="394" y="1010"/>
      <point x="462" y="1010" type="qcurve" smooth="yes"/>
      <point x="800" y="1010" type="line" smooth="yes"/>
      <point x="900" y="1010"/>
      <point x="1010" y="956"/>
      <point x="1021" y="900" type="qcurve"/>
      <point x="1056" y="1103" type="line"/>
      <point x="693" y="1103" type="line"/>
      <point x="727" y="1307" type="line"/>
      <point x="1092" y="1307" type="line"/>
      <point x="1116" y="1448" type="line"/>
      <point x="1364" y="1448" type="line"/>
      <point x="1340" y="1307" type="line"/>
      <point x="1515" y="1307" type="line"/>
      <point x="1481" y="1103" type="line"/>
      <point x="1304" y="1103" type="line"/>
      <point x="1114" y="0" type="line"/>
      <point x="866" y="0" type="line"/>
      <point x="882" y="100" type="line"/>
      <point x="853" y="44"/>
      <point x="724" y="-10"/>
      <point x="624" y="-10" type="qcurve" smooth="yes"/>
    </contour>
    <contour>
      <point x="1001" y="786" type="line"/>
      <point x="415" y="786" type="line"/>
      <point x="415" y="786"/>
      <point x="415" y="786"/>
      <point x="415" y="786" type="qcurve"/>
      <point x="316" y="214" type="line"/>
      <point x="316" y="214"/>
      <point x="316" y="214"/>
      <point x="316" y="214" type="qcurve"/>
      <point x="902" y="214" type="line"/>
    </contour>
  </outline>
  <guideline angle="0" x="0" y="988"/>
  <guideline angle="0" x="0" y="42"/>
</glyph>
<glyph name="Hbar" format="2">
  <advance width="1916" height="1448"/>
  <unicode hex="0126"/>
  <anchor x="1110" y="1550" name="top"/>
  <anchor x="813" y="-150" name="bottom"/>
  <outline>
    <contour>
      <point x="129" y="0" type="line"/>
      <point x="393" y="0" type="line"/>
      <point x="499" y="608" type="line"/>
      <point x="1389" y="608" type="line"/>
      <point x="1283" y="0" type="line"/>
      <point x="1547" y="0" type="line"/>
      <point x="1791" y="1400" type="line"/>
      <point x="1527" y="1400" type="line"/>
      <point x="1431" y="852" type="line"/>
      <point x="541" y="852" type="line"/>
      <point x="637" y="1400" type="line"/>
      <point x="373" y="1400" type="line"/>
    </contour>
    <contour>
      <point x="1811" y="938" type="line"/>
      <point x="1850" y="1162" type="line"/>
      <point x="232" y="1162" type="line"/>
      <point x="193" y="938" type="line"/>
    </contour>
  </outline>
  <guideline angle="0" color="1,0,0,1" x="0" y="1050"/>
</glyph>
<glyph name="dotlessi" format="2">
  <advance width="606.469" height="1448"/>
  <unicode hex="0131"/>
  <anchor x="156" y="-150" name="bottom"/>
  <anchor x="383" y="1150" name="top"/>
  <anchor x="254" y="0" name="ogonek"/>
  <outline>
    <contour>
      <point x="58.4692" y="0" type="line"/>
      <point x="306.469" y="0" type="line"/>
      <point x="481.469" y="1000" type="line"/>
      <point x="233.469" y="1000" type="line"/>
    </contour>
  </outline>
</glyph>
<glyph name="lslash" format="2">
  <advance width="627.91" height="1448"/>
  <unicode hex="0142"/>
  <outline>
    <contour>
      <point x="69" y="0" type="line"/>
      <point x="317" y="0" type="line"/>
      <point x="431" y="648" type="line"/>
      <point x="580" y="699" type="line"/>
      <point x="609" y="867" type="line"/>
      <point x="460" y="816" type="line"/>
      <point x="570" y="1448" type="line"/>
      <point x="322" y="1448" type="line"/>
      <point x="196" y="726" type="line"/>
      <point x="47" y="675" type="line"/>
      <point x="18" y="507" type="line"/>
      <point x="167" y="558" type="line"/>
    </contour>
  </outline>
  <guideline angle="0" x="0" y="724"/>
</glyph>
<glyph name="Eng" format="2">
  <advance width="1830"/>
  <unicode hex="014A"/>
  <outline>
    <contour>
      <point x="80" y="0" type="line"/>
      <point x="324" y="0" type="line"/>
      <point x="495" y="978" type="line"/>
      <point x="1281" y="30" type="line"/>
      <point x="1239" y="-204" type="line"/>
      <point x="1239" y="-204"/>
      <point x="1239" y="-204"/>
      <point x="1239" y="-204" type="qcurve"/>
      <point x="763" y="-204" type="line"/>
      <point x="774" y="-428" type="line"/>
      <point x="1120" y="-428" type="line" smooth="yes"/>
      <point x="1205" y="-428"/>
      <point x="1325" y="-420"/>
      <point x="1409" y="-372"/>
      <point x="1462" y="-269"/>
      <point x="1479" y="-174" type="qcurve" smooth="yes"/>
      <point x="1754" y="1400" type="line"/>
      <point x="1510" y="1400" type="line"/>
      <point x="1339" y="416" type="line"/>
      <point x="528" y="1400" type="line"/>
      <point x="324" y="1400" type="line"/>
    </contour>
  </outline>
  <guideline x="867"/>
  <guideline x="631"/>
</glyph>
<glyph name="OE" format="2">
  <advance width="2725.14" height="1448"/>
  <unicode hex="0152"/>
  <outline>
    <contour>
      <point x="391" y="0" type="line"/>
      <point x="2495" y="0" type="line"/>
      <point x="2535" y="230" type="line"/>
      <point x="1541" y="230" type="line"/>
      <point x="1605" y="596" type="line"/>
      <point x="2193" y="596" type="line"/>
      <point x="2236" y="840" type="line"/>
      <point x="1648" y="840" type="line"/>
      <point x="1705" y="1170" type="line"/>
      <point x="2679" y="1170" type="line"/>
      <point x="2719" y="1400" type="line"/>
      <point x="635" y="1400" type="line" smooth="yes"/>
      <point x="559" y="1400"/>
      <point x="431" y="1383"/>
      <point x="331" y="1328"/>
      <point x="263" y="1226"/>
      <point x="248" y="1140" type="qcurve" smooth="yes"/>
      <point x="96" y="272" type="line" smooth="yes"/>
      <point x="81" y="184"/>
      <point x="109" y="77"/>
      <point x="187" y="19"/>
      <point x="311" y="0"/>
      <point x="391" y="0" type="qcurve"/>
    </contour>
    <contour>
      <point x="1277" y="230" type="line"/>
      <point x="353" y="230" type="line"/>
      <point x="353" y="230"/>
      <point x="353" y="230"/>
      <point x="353" y="230"/>
      <point x="353" y="230"/>
      <point x="353" y="230" type="qcurve"/>
      <point x="517" y="1170" type="line"/>
      <point x="517" y="1170"/>
      <point x="517" y="1170"/>
      <point x="517" y="1170"/>
      <point x="517" y="1170"/>
      <point x="517" y="1170" type="qcurve"/>
      <point x="1441" y="1170" type="line"/>
    </contour>
  </outline>
  <guideline angle="260.09" color="1,0,0,1" x="1441.16" y="1170"/>
</glyph>
<glyph name="tbar" format="2">
  <advance width="862.615" height="1448"/>
  <unicode hex="0167"/>
  <anchor x="765.213" y="1394" name="top"/>
  <anchor x="352.213" y="-160" name="bottom"/>
  <outline>
    <contour>
      <point x="378" y="-10" type="line" smooth="yes"/>
      <point x="309" y="-10"/>
      <point x="217" y="14"/>
      <point x="164" y="65"/>
      <point x="150" y="146"/>
      <point x="160" y="204" type="qcurve" smooth="yes"/>
      <point x="213" y="510" type="line"/>
      <point x="81" y="510" type="line"/>
      <point x="109" y="670" type="line"/>
      <point x="241" y="670" type="line"/>
      <point x="263" y="796" type="line"/>
      <point x="91" y="796" type="line"/>
      <point x="127" y="1000" type="line"/>
      <point x="299" y="1000" type="line"/>
      <point x="341" y="1244" type="line"/>
      <point x="589" y="1244" type="line"/>
      <point x="547" y="1000" type="line"/>
      <point x="849" y="1000" type="line"/>
      <point x="813" y="796" type="line"/>
      <point x="511" y="796" type="line"/>
      <point x="489" y="670" type="line"/>
      <point x="729" y="670" type="line"/>
      <point x="701" y="510" type="line"/>
      <point x="461" y="510" type="line"/>
      <point x="406" y="194" type="line"/>
      <point x="406" y="194"/>
      <point x="406" y="194"/>
      <point x="406" y="194" type="qcurve"/>
      <point x="698" y="194" type="line"/>
      <point x="620" y="-10" type="line"/>
    </contour>
  </outline>
</glyph>
<glyph name="uni018F" format="2">
  <advance width="1728.17" height="1448"/>
  <unicode hex="018F"/>
  <anchor x="1013" y="1564" name="top"/>
  <anchor x="711" y="-164" name="bottom"/>
  <outline>
    <contour>
      <point x="383.119" y="-14" type="line" smooth="yes"/>
      <point x="290.119" y="-14"/>
      <point x="165.119" y="17"/>
      <point x="94.1195" y="86"/>
      <point x="75.1195" y="195"/>
      <point x="88.1195" y="272" type="qcurve" smooth="yes"/>
      <point x="182.119" y="806" type="line"/>
      <point x="1315.12" y="806" type="line"/>
      <point x="1379.12" y="1170" type="line"/>
      <point x="1379.12" y="1170"/>
      <point x="1379.12" y="1170"/>
      <point x="1379.12" y="1170"/>
      <point x="1379.12" y="1170"/>
      <point x="1379.12" y="1170" type="qcurve"/>
      <point x="515.119" y="1170" type="line"/>
      <point x="515.119" y="1170"/>
      <point x="515.119" y="1170"/>
      <point x="515.119" y="1170"/>
      <point x="515.119" y="1170"/>
      <point x="515.119" y="1170" type="qcurve"/>
      <point x="482.119" y="980" type="line"/>
      <point x="228.119" y="1036" type="line"/>
      <point x="246.119" y="1140" type="line" smooth="yes"/>
      <point x="259.119" y="1214"/>
      <point x="315.119" y="1318"/>
      <point x="410.119" y="1384"/>
      <point x="546.119" y="1414"/>
      <point x="638.119" y="1414" type="qcurve" smooth="yes"/>
      <point x="1344.12" y="1414" type="line" smooth="yes"/>
      <point x="1436.12" y="1414"/>
      <point x="1560.12" y="1384"/>
      <point x="1631.12" y="1318"/>
      <point x="1651.12" y="1214"/>
      <point x="1638.12" y="1140" type="qcurve" smooth="yes"/>
      <point x="1486.12" y="272" type="line" smooth="yes"/>
      <point x="1473.12" y="195"/>
      <point x="1417.12" y="86"/>
      <point x="1324.12" y="17"/>
      <point x="1188.12" y="-14"/>
      <point x="1095.12" y="-14" type="qcurve" smooth="yes"/>
    </contour>
    <contour>
      <point x="403.119" y="562" type="line"/>
      <point x="345.119" y="230" type="line"/>
      <point x="345.119" y="230"/>
      <point x="345.119" y="230"/>
      <point x="345.119" y="230"/>
      <point x="345.119" y="230"/>
      <point x="345.119" y="230" type="qcurve"/>
      <point x="1215.12" y="230" type="line"/>
      <point x="1215.12" y="230"/>
      <point x="1215.12" y="230"/>
      <point x="1215.12" y="230"/>
      <point x="1215.12" y="230"/>
      <point x="1215.12" y="230" type="qcurve"/>
      <point x="1273.12" y="562" type="line"/>
    </contour>
  </outline>
</glyph>
<glyph name="florin" format="2">
  <advance width="1242.21" height="1448"/>
  <unicode hex="0192"/>
  <outline>
    <contour>
      <point x="-195" y="-428" type="line"/>
      <point x="-81" y="-224" type="line"/>
      <point x="210" y="-224" type="line"/>
      <point x="210" y="-224"/>
      <point x="210" y="-224"/>
      <point x="210" y="-224" type="qcurve"/>
      <point x="526" y="676" type="line"/>
      <point x="364" y="676" type="line"/>
      <point x="435" y="880" type="line"/>
      <point x="597" y="880" type="line"/>
      <point x="707" y="1194" type="line" smooth="yes"/>
      <point x="730" y="1261"/>
      <point x="799" y="1357"/>
      <point x="889" y="1419"/>
      <point x="1001" y="1448"/>
      <point x="1067" y="1448" type="qcurve" smooth="yes"/>
      <point x="1378" y="1448" type="line"/>
      <point x="1264" y="1244" type="line"/>
      <point x="973" y="1244" type="line"/>
      <point x="973" y="1244"/>
      <point x="973" y="1244"/>
      <point x="973" y="1244" type="qcurve"/>
      <point x="845" y="880" type="line"/>
      <point x="1127" y="880" type="line"/>
      <point x="1056" y="676" type="line"/>
      <point x="774" y="676" type="line"/>
      <point x="476" y="-174" type="line" smooth="yes"/>
      <point x="442" y="-269"/>
      <point x="371" y="-372"/>
      <point x="278" y="-420"/>
      <point x="156" y="-428"/>
      <point x="72" y="-428" type="qcurve" smooth="yes"/>
    </contour>
  </outline>
</glyph>
<glyph name="uni0237" format="2">
  <advance width="606" height="1448"/>
  <unicode hex="0237"/>
  <anchor x="383" y="1150" name="top"/>
  <outline>
    <contour>
      <point x="-440" y="-204" type="line"/>
      <point x="-429" y="-428" type="line"/>
      <point x="-83" y="-428" type="line" smooth="yes"/>
      <point x="2" y="-428"/>
      <point x="122" y="-420"/>
      <point x="206" y="-372"/>
      <point x="259" y="-269"/>
      <point x="276" y="-174" type="qcurve" smooth="yes"/>
      <point x="481" y="1000" type="line"/>
      <point x="233" y="1000" type="line"/>
      <point x="22" y="-204" type="line"/>
      <point x="22" y="-204"/>
      <point x="22" y="-204"/>
      <point x="22" y="-204" type="qcurve"/>
    </contour>
  </outline>
</glyph>
<glyph name="tildecomb" format="2">
  <advance width="0" height="1448"/>
  <unicode hex="0303"/>
  <anchor x="79" y="1150" name="_top"/>
  <anchor x="135" y="1465" name="top"/>
  <outline>
    <contour>
      <point x="-319" y="1159" type="line"/>
      <point x="-293" y="1231"/>
      <point x="-223" y="1324"/>
      <point x="-143" y="1379"/>
      <point x="-61" y="1400"/>
      <point x="-23" y="1400" type="qcurve" smooth="yes"/>
      <point x="8" y="1400"/>
      <point x="63" y="1387"/>
      <point x="113" y="1367"/>
      <point x="158" y="1344"/>
      <point x="199" y="1324"/>
      <point x="237" y="1311"/>
      <point x="255" y="1311" type="qcurve" smooth="yes"/>
      <point x="269" y="1311"/>
      <point x="299" y="1319"/>
      <point x="328" y="1339"/>
      <point x="353" y="1374"/>
      <point x="363" y="1400" type="qcurve"/>
      <point x="518" y="1372" type="line"/>
      <point x="492" y="1299"/>
      <point x="421" y="1205"/>
      <point x="342" y="1151"/>
      <point x="260" y="1130"/>
      <point x="222" y="1130" type="qcurve" smooth="yes"/>
      <point x="191" y="1130"/>
      <point x="136" y="1143"/>
      <point x="87" y="1163"/>
      <point x="42" y="1187"/>
      <point x="1" y="1207"/>
      <point x="-37" y="1220"/>
      <point x="-55" y="1220" type="qcurve" smooth="yes"/>
      <point x="-69" y="1220"/>
      <point x="-100" y="1212"/>
      <point x="-128" y="1192"/>
      <point x="-154" y="1157"/>
      <point x="-164" y="1131" type="qcurve"/>
    </contour>
  </outline>
</glyph>
<glyph name="uni0306" format="2">
  <advance width="0" height="1448"/>
  <unicode hex="0306"/>
  <anchor x="78" y="1150" name="_top"/>
  <anchor x="142" y="1510" name="top"/>
  <outline>
    <contour>
      <point x="-165.417" y="1410" type="line"/>
      <point x="-181.46" y="1319"/>
      <point x="-170.44" y="1200"/>
      <point x="-110.781" y="1130"/>
      <point x="1.4589" y="1103"/>
      <point x="87.4589" y="1103" type="qcurve" smooth="yes"/>
      <point x="172.459" y="1103"/>
      <point x="283.219" y="1130"/>
      <point x="354.56" y="1200"/>
      <point x="396.54" y="1319"/>
      <point x="412.583" y="1410" type="qcurve"/>
      <point x="257.583" y="1410" type="line"/>
      <point x="249.473" y="1364"/>
      <point x="227.895" y="1304"/>
      <point x="192.077" y="1271"/>
      <point x="138.785" y="1258"/>
      <point x="97.7854" y="1258" type="qcurve" smooth="yes"/>
      <point x="55.7854" y="1258"/>
      <point x="6.07731" y="1271"/>
      <point x="-18.1048" y="1304"/>
      <point x="-18.5268" y="1364"/>
      <point x="-10.417" y="1410" type="qcurve"/>
    </contour>
  </outline>
</glyph>
<glyph name="uni0309" format="2">
  <advance width="0" height="1448"/>
  <unicode hex="0309"/>
  <anchor x="78" y="1150" name="_top"/>
  <anchor x="36" y="1100" name="_topright"/>
  <outline>
    <contour>
      <point x="-24" y="1100" type="line"/>
      <point x="137" y="1100" type="line"/>
      <point x="167" y="1113"/>
      <point x="218" y="1143"/>
      <point x="259" y="1178"/>
      <point x="286" y="1219"/>
      <point x="290" y="1244" type="qcurve" smooth="yes"/>
      <point x="296" y="1279"/>
      <point x="278" y="1341"/>
      <point x="233" y="1387"/>
      <point x="163" y="1413"/>
      <point x="117" y="1413" type="qcurve" smooth="yes"/>
      <point x="89" y="1413"/>
      <point x="34" y="1404"/>
      <point x="-17" y="1387"/>
      <point x="-66" y="1361"/>
      <point x="-90" y="1343" type="qcurve"/>
      <point x="-55" y="1252" type="line"/>
      <point x="-41" y="1262"/>
      <point x="1" y="1275"/>
      <point x="26" y="1275" type="qcurve" smooth="yes"/>
      <point x="58" y="1275"/>
      <point x="90" y="1237"/>
      <point x="85" y="1205" type="qcurve" smooth="yes"/>
      <point x="79" y="1171"/>
      <point x="18" y="1119"/>
      <point x="-24" y="1100" type="qcurve"/>
    </contour>
  </outline>
</glyph>
<glyph name="uni030A" format="2">
  <advance width="0" height="1448"/>
  <unicode hex="030A"/>
  <anchor x="75" y="1150" name="_top"/>
  <anchor x="149" y="1574" name="top"/>
  <outline>
    <contour>
      <point x="-104" y="1267" type="line"/>
      <point x="-114" y="1208"/>
      <point x="-113" y="1135"/>
      <point x="-77" y="1094"/>
      <point x="-2" y="1079"/>
      <point x="62" y="1079" type="qcurve" smooth="yes"/>
      <point x="125" y="1079"/>
      <point x="206" y="1094"/>
      <point x="256" y="1135"/>
      <point x="284" y="1208"/>
      <point x="294" y="1267" type="qcurve" smooth="yes"/>
      <point x="305" y="1326"/>
      <point x="303" y="1399"/>
      <point x="267" y="1440"/>
      <point x="191" y="1454"/>
      <point x="128" y="1454" type="qcurve" smooth="yes"/>
      <point x="64" y="1454"/>
      <point x="-16" y="1440"/>
      <point x="-66" y="1399"/>
      <point x="-94" y="1326"/>
      <point x="-104" y="1267" type="qcurve"/>
    </contour>
    <contour>
      <point x="23" y="1267" type="line"/>
      <point x="27" y="1287"/>
      <point x="36" y="1316"/>
      <point x="54" y="1334"/>
      <point x="84" y="1342"/>
      <point x="108" y="1342" type="qcurve" smooth="yes"/>
      <point x="132" y="1342"/>
      <point x="159" y="1334"/>
      <point x="171" y="1316"/>
      <point x="171" y="1287"/>
      <point x="167" y="1267" type="qcurve" smooth="yes"/>
      <point x="163" y="1246"/>
      <point x="154" y="1217"/>
      <point x="136" y="1199"/>
      <point x="106" y="1191"/>
      <point x="82" y="1191" type="qcurve" smooth="yes"/>
      <point x="58" y="1191"/>
      <point x="30" y="1199"/>
      <point x="18" y="1217"/>
      <point x="19" y="1246"/>
      <point x="23" y="1267" type="qcurve"/>
    </contour>
  </outline>
</glyph>
<glyph name="uni031B" format="2">
  <advance width="0" height="1448"/>
  <unicode hex="031B"/>
  <anchor x="55" y="1000" name="_horn"/>
  <outline>
    <contour>
      <point x="30" y="856" type="line"/>
      <point x="128" y="860"/>
      <point x="262" y="895"/>
      <point x="350" y="965"/>
      <point x="401" y="1073"/>
      <point x="414" y="1151" type="qcurve" smooth="yes"/>
      <point x="422" y="1197"/>
      <point x="432" y="1314"/>
      <point x="431" y="1377" type="qcurve"/>
      <point x="240" y="1342" type="line"/>
      <point x="239" y="1294"/>
      <point x="232" y="1213"/>
      <point x="226" y="1179" type="qcurve" smooth="yes"/>
      <point x="218" y="1131"/>
      <point x="190" y="1064"/>
      <point x="148" y="1020"/>
      <point x="92" y="1000"/>
      <point x="55" y="1000" type="qcurve"/>
    </contour>
  </outline>
</glyph>
<glyph name="uni0327" format="2">
  <advance width="0" height="1448"/>
  <unicode hex="0327"/>
  <anchor x="-26" y="-150" name="_bottom"/>
  <outline>
    <contour>
      <point x="-43" y="0" type="line"/>
      <point x="-187" y="-225" type="line"/>
      <point x="-161" y="-217"/>
      <point x="-117" y="-210"/>
      <point x="-94" y="-210" type="qcurve" smooth="yes"/>
      <point x="-76" y="-210"/>
      <point x="-50" y="-217"/>
      <point x="-33" y="-232"/>
      <point x="-26" y="-254"/>
      <point x="-29" y="-269" type="qcurve" smooth="yes"/>
      <point x="-32" y="-284"/>
      <point x="-46" y="-307"/>
      <point x="-68" y="-323"/>
      <point x="-97" y="-331"/>
      <point x="-115" y="-331" type="qcurve" smooth="yes"/>
      <point x="-137" y="-331"/>
      <point x="-180" y="-320"/>
      <point x="-190" y="-312" type="qcurve"/>
      <point x="-247" y="-388" type="line"/>
      <point x="-232" y="-400"/>
      <point x="-198" y="-419"/>
      <point x="-159" y="-431"/>
      <point x="-113" y="-438"/>
      <point x="-87" y="-438" type="qcurve" smooth="yes"/>
      <point x="-41" y="-438"/>
      <point x="37" y="-416"/>
      <point x="97" y="-373"/>
      <point x="138" y="-308"/>
      <point x="145" y="-265" type="qcurve" smooth="yes"/>
      <point x="152" y="-226"/>
      <point x="136" y="-167"/>
      <point x="92" y="-128"/>
      <point x="22" y="-108"/>
      <point x="-26" y="-108" type="qcurve"/>
      <point x="43" y="0" type="line"/>
    </contour>
  </outline>
</glyph>
<glyph name="uni0328" format="2">
  <advance width="0" height="1448"/>
  <unicode hex="0328"/>
  <anchor x="-26" y="-150" name="_bottom"/>
  <anchor x="147" y="0" name="_ogonek"/>
  <outline>
    <contour>
      <point x="147" y="0" type="line"/>
      <point x="111" y="-6"/>
      <point x="49" y="-33"/>
      <point x="0" y="-72"/>
      <point x="-32" y="-119"/>
      <point x="-36" y="-144" type="qcurve" smooth="yes"/>
      <point x="-40" y="-166"/>
      <point x="-30" y="-201"/>
      <point x="-3" y="-226"/>
      <point x="39" y="-239"/>
      <point x="67" y="-239" type="qcurve" smooth="yes"/>
      <point x="81" y="-239"/>
      <point x="111" y="-235"/>
      <point x="141" y="-228"/>
      <point x="172" y="-217"/>
      <point x="187" y="-209" type="qcurve"/>
      <point x="118" y="-388" type="line"/>
      <point x="96" y="-398"/>
      <point x="58" y="-413"/>
      <point x="20" y="-423"/>
      <point x="-20" y="-428"/>
      <point x="-42" y="-428" type="qcurve" smooth="yes"/>
      <point x="-95" y="-428"/>
      <point x="-184" y="-400"/>
      <point x="-246" y="-348"/>
      <point x="-274" y="-275"/>
      <point x="-266" y="-230" type="qcurve" smooth="yes"/>
      <point x="-260" y="-195"/>
      <point x="-222" y="-127"/>
      <point x="-165" y="-67"/>
      <point x="-92" y="-17"/>
      <point x="-49" y="0" type="qcurve"/>
    </contour>
  </outline>
</glyph>
<glyph name="uni0402" format="2">
  <advance width="1938.54" height="1448"/>
  <unicode hex="0402"/>
  <outline>
    <contour>
      <point x="459" y="0" type="line"/>
      <point x="723" y="0" type="line"/>
      <point x="831" y="621" type="line"/>
      <point x="1437" y="621" type="line" smooth="yes"/>
      <point x="1463" y="621"/>
      <point x="1501" y="612"/>
      <point x="1524" y="590"/>
      <point x="1531" y="551"/>
      <point x="1526" y="521" type="qcurve" smooth="yes"/>
      <point x="1495" y="344" type="line" smooth="yes"/>
      <point x="1490" y="318"/>
      <point x="1470" y="280"/>
      <point x="1440" y="256"/>
      <point x="1398" y="244"/>
      <point x="1372" y="244" type="qcurve" smooth="yes"/>
      <point x="1141" y="244" type="line"/>
      <point x="1098" y="0" type="line"/>
      <point x="1355" y="0" type="line" smooth="yes"/>
      <point x="1431" y="0"/>
      <point x="1561" y="22"/>
      <point x="1662" y="82"/>
      <point x="1732" y="189"/>
      <point x="1747" y="274" type="qcurve" smooth="yes"/>
      <point x="1805" y="605" type="line" smooth="yes"/>
      <point x="1816" y="670"/>
      <point x="1790" y="768"/>
      <point x="1716" y="833"/>
      <point x="1592" y="865"/>
      <point x="1506" y="865" type="qcurve" smooth="yes"/>
      <point x="874" y="865" type="line"/>
      <point x="925" y="1156" type="line"/>
      <point x="1481" y="1156" type="line"/>
      <point x="1523" y="1400" type="line"/>
      <point x="147" y="1400" type="line"/>
      <point x="105" y="1156" type="line"/>
      <point x="661" y="1156" type="line"/>
    </contour>
  </outline>
  <guideline angle="260.121" color="1,0,0,1" x="660.858" y="1156"/>
</glyph>
<glyph name="uni0404" format="2">
  <advance width="1606" height="1448"/>
  <unicode hex="0404"/>
  <anchor x="976" y="1550" name="top"/>
  <outline>
    <contour>
      <point x="389" y="-14" type="line"/>
      <point x="1015" y="-14" type="line" smooth="yes"/>
      <point x="1108" y="-14"/>
      <point x="1244" y="17"/>
      <point x="1339" y="86"/>
      <point x="1395" y="195"/>
      <point x="1408" y="272" type="qcurve" smooth="yes"/>
      <point x="1434" y="419" type="line"/>
      <point x="1179" y="471" type="line"/>
      <point x="1137" y="230" type="line"/>
      <point x="1137" y="230"/>
      <point x="1137" y="230"/>
      <point x="1137" y="230"/>
      <point x="1137" y="230"/>
      <point x="1137" y="230" type="qcurve"/>
      <point x="353" y="230" type="line"/>
      <point x="353" y="230"/>
      <point x="353" y="230"/>
      <point x="353" y="230"/>
      <point x="353" y="230"/>
      <point x="353" y="230" type="qcurve"/>
      <point x="417" y="596" type="line"/>
      <point x="1006" y="596" type="line"/>
      <point x="1049" y="840" type="line"/>
      <point x="460" y="840" type="line"/>
      <point x="517" y="1170" type="line"/>
      <point x="517" y="1170"/>
      <point x="517" y="1170"/>
      <point x="517" y="1170"/>
      <point x="517" y="1170"/>
      <point x="517" y="1170" type="qcurve"/>
      <point x="1293" y="1170" type="line"/>
      <point x="1293" y="1170"/>
      <point x="1293" y="1170"/>
      <point x="1293" y="1170"/>
      <point x="1293" y="1170"/>
      <point x="1293" y="1170" type="qcurve"/>
      <point x="1257" y="960" type="line"/>
      <point x="1529" y="1008" type="line"/>
      <point x="1552" y="1140" type="line" smooth="yes"/>
      <point x="1565" y="1214"/>
      <point x="1545" y="1318"/>
      <point x="1473" y="1384"/>
      <point x="1348" y="1414"/>
      <point x="1256" y="1414" type="qcurve" smooth="yes"/>
      <point x="638" y="1414" type="line" smooth="yes"/>
      <point x="547" y="1414"/>
      <point x="411" y="1384"/>
      <point x="317" y="1318"/>
      <point x="261" y="1214"/>
      <point x="248" y="1140" type="qcurve" smooth="yes"/>
      <point x="96" y="272" type="line" smooth="yes"/>
      <point x="83" y="195"/>
      <point x="101" y="86"/>
      <point x="171" y="17"/>
      <point x="296" y="-14"/>
      <point x="389" y="-14" type="qcurve"/>
    </contour>
  </outline>
</glyph>
<glyph name="uni0409" format="2">
  <advance width="2384.45" height="1448"/>
  <unicode hex="0409"/>
  <outline>
    <contour>
      <point x="-120" y="0" type="line"/>
      <point x="200" y="0" type="line"/>
      <point x="1089" y="1156" type="line"/>
      <point x="1221" y="1156" type="line"/>
      <point x="1019" y="0" type="line"/>
      <point x="1809" y="0" type="line" smooth="yes"/>
      <point x="1881" y="0"/>
      <point x="2008" y="21"/>
      <point x="2108" y="78"/>
      <point x="2177" y="182"/>
      <point x="2191" y="264" type="qcurve" smooth="yes"/>
      <point x="2247" y="582" type="line" smooth="yes"/>
      <point x="2258" y="647"/>
      <point x="2232" y="745"/>
      <point x="2159" y="810"/>
      <point x="2039" y="842"/>
      <point x="1956" y="842" type="qcurve" smooth="yes"/>
      <point x="1430" y="842" type="line"/>
      <point x="1527" y="1400" type="line"/>
      <point x="968" y="1400" type="line"/>
    </contour>
    <contour>
      <point x="1325" y="243" type="line"/>
      <point x="1388" y="599" type="line"/>
      <point x="1885" y="599" type="line" smooth="yes"/>
      <point x="1910" y="599"/>
      <point x="1946" y="590"/>
      <point x="1967" y="568"/>
      <point x="1973" y="529"/>
      <point x="1968" y="499" type="qcurve" smooth="yes"/>
      <point x="1940" y="336" type="line" smooth="yes"/>
      <point x="1936" y="312"/>
      <point x="1916" y="276"/>
      <point x="1886" y="254"/>
      <point x="1847" y="243"/>
      <point x="1822" y="243" type="qcurve" smooth="yes"/>
    </contour>
  </outline>
</glyph>
<glyph name="uni040A" format="2">
  <advance width="2483.63" height="1448"/>
  <unicode hex="040A"/>
  <outline>
    <contour>
      <point x="80" y="-1" type="line"/>
      <point x="344" y="-1" type="line"/>
      <point x="448" y="598" type="line"/>
      <point x="1221" y="598" type="line"/>
      <point x="1117" y="-1" type="line"/>
      <point x="1908" y="-1" type="line" smooth="yes"/>
      <point x="1980" y="-1"/>
      <point x="2107" y="20"/>
      <point x="2207" y="77"/>
      <point x="2276" y="181"/>
      <point x="2290" y="263" type="qcurve" smooth="yes"/>
      <point x="2345" y="581" type="line" smooth="yes"/>
      <point x="2357" y="647"/>
      <point x="2331" y="745"/>
      <point x="2258" y="810"/>
      <point x="2138" y="842"/>
      <point x="2055" y="842" type="qcurve" smooth="yes"/>
      <point x="1528" y="842" type="line"/>
      <point x="1625" y="1400" type="line"/>
      <point x="1361" y="1400" type="line"/>
      <point x="1264" y="842" type="line"/>
      <point x="491" y="842" type="line"/>
      <point x="588" y="1400" type="line"/>
      <point x="324" y="1400" type="line"/>
    </contour>
    <contour>
      <point x="1423" y="242" type="line"/>
      <point x="1485" y="598" type="line"/>
      <point x="1983" y="598" type="line" smooth="yes"/>
      <point x="2008" y="598"/>
      <point x="2044" y="589"/>
      <point x="2066" y="567"/>
      <point x="2072" y="528"/>
      <point x="2067" y="498" type="qcurve" smooth="yes"/>
      <point x="2038" y="335" type="line" smooth="yes"/>
      <point x="2034" y="311"/>
      <point x="2015" y="275"/>
      <point x="1985" y="253"/>
      <point x="1946" y="242"/>
      <point x="1921" y="242" type="qcurve" smooth="yes"/>
    </contour>
  </outline>
</glyph>
<glyph name="uni0411" format="2">
  <advance width="1596" height="1448"/>
  <unicode hex="0411"/>
  <outline>
    <contour>
      <point x="80" y="0" type="line"/>
      <point x="1012" y="0" type="line" smooth="yes"/>
      <point x="1088" y="0"/>
      <point x="1218" y="22"/>
      <point x="1320" y="82"/>
      <point x="1389" y="189"/>
      <point x="1404" y="274" type="qcurve" smooth="yes"/>
      <point x="1462" y="605" type="line" smooth="yes"/>
      <point x="1473" y="670"/>
      <point x="1447" y="768"/>
      <point x="1373" y="833"/>
      <point x="1249" y="865"/>
      <point x="1163" y="865" type="qcurve" smooth="yes"/>
      <point x="495" y="865" type="line"/>
      <point x="546" y="1156" type="line"/>
      <point x="1493" y="1156" type="line"/>
      <point x="1535" y="1400" type="line"/>
      <point x="324" y="1400" type="line"/>
    </contour>
    <contour>
      <point x="387" y="244" type="line"/>
      <point x="454" y="628" type="line"/>
      <point x="1096" y="628" type="line" smooth="yes"/>
      <point x="1149" y="628"/>
      <point x="1195" y="588"/>
      <point x="1184" y="528" type="qcurve" smooth="yes"/>
      <point x="1152" y="344" type="line" smooth="yes"/>
      <point x="1148" y="318"/>
      <point x="1128" y="280"/>
      <point x="1097" y="256"/>
      <point x="1055" y="244"/>
      <point x="1029" y="244" type="qcurve" smooth="yes"/>
    </contour>
  </outline>
</glyph>
<glyph name="uni0413" format="2">
  <advance width="1355.14" height="1448"/>
  <unicode hex="0413"/>
  <anchor x="920" y="1550" name="top"/>
  <outline>
    <contour>
      <point x="80" y="0" type="line"/>
      <point x="344" y="0" type="line"/>
      <point x="546" y="1156" type="line"/>
      <point x="1419" y="1156" type="line"/>
      <point x="1461" y="1400" type="line"/>
      <point x="324" y="1400" type="line"/>
    </contour>
  </outline>
</glyph>
<glyph name="uni0417" format="2">
  <advance width="1495" height="1448"/>
  <unicode hex="0417"/>
  <anchor x="914" y="1550" name="top"/>
  <anchor x="730" y="0" name="ogonek"/>
  <outline>
    <contour>
      <point x="77" y="395" type="line"/>
      <point x="54" y="261" type="line" smooth="yes"/>
      <point x="41" y="185"/>
      <point x="72" y="84"/>
      <point x="147" y="24"/>
      <point x="259" y="0"/>
      <point x="326" y="0" type="qcurve" smooth="yes"/>
      <point x="911" y="0" type="line" smooth="yes"/>
      <point x="992" y="0"/>
      <point x="1124" y="23"/>
      <point x="1224" y="91"/>
      <point x="1293" y="215"/>
      <point x="1310" y="315" type="qcurve" smooth="yes"/>
      <point x="1328" y="421" type="line" smooth="yes"/>
      <point x="1339" y="483"/>
      <point x="1332" y="584"/>
      <point x="1295" y="661"/>
      <point x="1226" y="712"/>
      <point x="1174" y="724" type="qcurve"/>
      <point x="1225" y="738"/>
      <point x="1305" y="787"/>
      <point x="1365" y="855"/>
      <point x="1404" y="943"/>
      <point x="1413" y="996" type="qcurve" smooth="yes"/>
      <point x="1430" y="1093" type="line" smooth="yes"/>
      <point x="1445" y="1181"/>
      <point x="1414" y="1299"/>
      <point x="1334" y="1370"/>
      <point x="1213" y="1400"/>
      <point x="1139" y="1400" type="qcurve" smooth="yes"/>
      <point x="570" y="1400" type="line" smooth="yes"/>
      <point x="499" y="1400"/>
      <point x="380" y="1386"/>
      <point x="287" y="1335"/>
      <point x="224" y="1236"/>
      <point x="209" y="1151" type="qcurve" smooth="yes"/>
      <point x="180" y="988" type="line"/>
      <point x="436" y="940" type="line"/>
      <point x="474" y="1156" type="line"/>
      <point x="474" y="1156"/>
      <point x="474" y="1156"/>
      <point x="474" y="1156"/>
      <point x="474" y="1156"/>
      <point x="474" y="1156" type="qcurve"/>
      <point x="1071" y="1156" type="line" smooth="yes"/>
      <point x="1094" y="1156"/>
      <point x="1131" y="1146"/>
      <point x="1155" y="1122"/>
      <point x="1164" y="1084"/>
      <point x="1159" y="1056" type="qcurve" smooth="yes"/>
      <point x="1138" y="935" type="line" smooth="yes"/>
      <point x="1133" y="906"/>
      <point x="1113" y="867"/>
      <point x="1083" y="844"/>
      <point x="1041" y="835"/>
      <point x="1015" y="835" type="qcurve" smooth="yes"/>
      <point x="624" y="835" type="line"/>
      <point x="582" y="598" type="line"/>
      <point x="989" y="598" type="line" smooth="yes"/>
      <point x="1015" y="598"/>
      <point x="1054" y="589"/>
      <point x="1076" y="566"/>
      <point x="1083" y="527"/>
      <point x="1078" y="498" type="qcurve" smooth="yes"/>
      <point x="1051" y="344" type="line" smooth="yes"/>
      <point x="1045" y="313"/>
      <point x="1024" y="273"/>
      <point x="994" y="252"/>
      <point x="953" y="244"/>
      <point x="928" y="244" type="qcurve" smooth="yes"/>
      <point x="315" y="244" type="line"/>
      <point x="315" y="244"/>
      <point x="315" y="244"/>
      <point x="315" y="244"/>
      <point x="315" y="244"/>
      <point x="315" y="244" type="qcurve"/>
      <point x="349" y="442" type="line"/>
    </contour>
  </outline>
</glyph>
<glyph name="uni0423" format="2">
  <advance width="1699" height="1448"/>
  <unicode hex="0423"/>
  <anchor x="999" y="1550" name="top"/>
  <outline>
    <contour>
      <point x="403" y="-14" type="line"/>
      <point x="1049" y="-14" type="line" smooth="yes"/>
      <point x="1129" y="-14"/>
      <point x="1261" y="9"/>
      <point x="1360" y="72"/>
      <point x="1427" y="185"/>
      <point x="1443" y="274" type="qcurve" smooth="yes"/>
      <point x="1639" y="1400" type="line"/>
      <point x="1375" y="1400" type="line"/>
      <point x="1273" y="811" type="line"/>
      <point x="489" y="811" type="line"/>
      <point x="489" y="811"/>
      <point x="489" y="811"/>
      <point x="489" y="811"/>
      <point x="489" y="811"/>
      <point x="489" y="811" type="qcurve"/>
      <point x="591" y="1400" type="line"/>
      <point x="327" y="1400" type="line"/>
      <point x="233" y="857" type="line" smooth="yes"/>
      <point x="217" y="768"/>
      <point x="245" y="655"/>
      <point x="322" y="591"/>
      <point x="445" y="567"/>
      <point x="524" y="567" type="qcurve" smooth="yes"/>
      <point x="1230" y="567" type="line"/>
      <point x="1172" y="236" type="line"/>
      <point x="1172" y="236"/>
      <point x="1172" y="236"/>
      <point x="1172" y="236"/>
      <point x="1172" y="236"/>
      <point x="1172" y="236" type="qcurve"/>
      <point x="368" y="236" type="line"/>
      <point x="368" y="236"/>
      <point x="368" y="236"/>
      <point x="368" y="236"/>
      <point x="368" y="236"/>
      <point x="368" y="236" type="qcurve"/>
      <point x="397" y="401" type="line"/>
      <point x="124" y="349" type="line"/>
      <point x="111" y="274" type="line" smooth="yes"/>
      <point x="95" y="185"/>
      <point x="123" y="72"/>
      <point x="201" y="9"/>
      <point x="324" y="-14"/>
      <point x="403" y="-14" type="qcurve"/>
    </contour>
  </outline>
</glyph>
<glyph name="uni0424" format="2">
  <advance width="2322" height="1448"/>
  <unicode hex="0424"/>
  <anchor x="1308" y="1550" name="top"/>
  <anchor x="1011" y="-150" name="bottom"/>
  <outline>
    <contour>
      <point x="909" y="0" type="line"/>
      <point x="1173" y="0" type="line"/>
      <point x="1210" y="210" type="line"/>
      <point x="1726" y="210" type="line" smooth="yes"/>
      <point x="1812" y="210"/>
      <point x="1946" y="242"/>
      <point x="2044" y="307"/>
      <point x="2103" y="405"/>
      <point x="2115" y="470" type="qcurve" smooth="yes"/>
      <point x="2206" y="989" type="line" smooth="yes"/>
      <point x="2220" y="1075"/>
      <point x="2188" y="1182"/>
      <point x="2107" y="1242"/>
      <point x="1984" y="1263"/>
      <point x="1909" y="1263" type="qcurve" smooth="yes"/>
      <point x="1393" y="1263" type="line"/>
      <point x="1427" y="1458" type="line"/>
      <point x="1163" y="1458" type="line"/>
      <point x="1129" y="1263" type="line"/>
      <point x="613" y="1263" type="line" smooth="yes"/>
      <point x="537" y="1263"/>
      <point x="407" y="1242"/>
      <point x="305" y="1182"/>
      <point x="236" y="1075"/>
      <point x="222" y="989" type="qcurve" smooth="yes"/>
      <point x="131" y="470" type="line" smooth="yes"/>
      <point x="119" y="405"/>
      <point x="145" y="307"/>
      <point x="220" y="242"/>
      <point x="343" y="210"/>
      <point x="430" y="210" type="qcurve" smooth="yes"/>
      <point x="946" y="210" type="line"/>
    </contour>
    <contour>
      <point x="1252" y="454" type="line"/>
      <point x="1351" y="1019" type="line"/>
      <point x="1841" y="1019" type="line" smooth="yes"/>
      <point x="1867" y="1019"/>
      <point x="1905" y="1007"/>
      <point x="1927" y="983"/>
      <point x="1933" y="945"/>
      <point x="1929" y="919" type="qcurve" smooth="yes"/>
      <point x="1866" y="554" type="line"/>
      <point x="1860" y="524"/>
      <point x="1840" y="485"/>
      <point x="1809" y="463"/>
      <point x="1768" y="454"/>
      <point x="1742" y="454" type="qcurve" smooth="yes"/>
    </contour>
    <contour>
      <point x="498" y="454" type="line" smooth="yes"/>
      <point x="471" y="454"/>
      <point x="433" y="463"/>
      <point x="411" y="485"/>
      <point x="404" y="524"/>
      <point x="410" y="554" type="qcurve"/>
      <point x="473" y="919" type="line" smooth="yes"/>
      <point x="477" y="945"/>
      <point x="498" y="983"/>
      <point x="529" y="1007"/>
      <point x="570" y="1019"/>
      <point x="597" y="1019" type="qcurve" smooth="yes"/>
      <point x="1087" y="1019" type="line"/>
      <point x="988" y="454" type="line"/>
    </contour>
  </outline>
  <guideline angle="90" x="1036" y="0"/>
</glyph>
<glyph name="uni0426" format="2">
  <advance width="1811" height="1448"/>
  <unicode hex="0426"/>
  <outline>
    <contour>
      <point x="80" y="0" type="line"/>
      <point x="1388" y="0" type="line"/>
      <point x="1355" y="-260" type="line"/>
      <point x="1585" y="-260" type="line"/>
      <point x="1673" y="244" type="line"/>
      <point x="1493" y="244" type="line"/>
      <point x="1694" y="1400" type="line"/>
      <point x="1430" y="1400" type="line"/>
      <point x="1229" y="244" type="line"/>
      <point x="387" y="244" type="line"/>
      <point x="588" y="1400" type="line"/>
      <point x="324" y="1400" type="line"/>
    </contour>
  </outline>
</glyph>
<glyph name="uni0429" format="2">
  <advance width="2424.84" height="1448"/>
  <unicode hex="0429"/>
  <outline>
    <contour>
      <point x="80" y="0" type="line"/>
      <point x="2002" y="0" type="line"/>
      <point x="1969" y="-260" type="line"/>
      <point x="2199" y="-260" type="line"/>
      <point x="2287" y="244" type="line"/>
      <point x="2107" y="244" type="line"/>
      <point x="2308" y="1400" type="line"/>
      <point x="2044" y="1400" type="line"/>
      <point x="1843" y="244" type="line"/>
      <point x="1247" y="244" type="line"/>
      <point x="1448" y="1400" type="line"/>
      <point x="1184" y="1400" type="line"/>
      <point x="983" y="244" type="line"/>
      <point x="387" y="244" type="line"/>
      <point x="588" y="1400" type="line"/>
      <point x="324" y="1400" type="line"/>
    </contour>
  </outline>
</glyph>
<glyph name="uni042A" format="2">
  <advance width="1813.54" height="1448"/>
  <unicode hex="042A"/>
  <outline>
    <contour>
      <point x="372" y="0" type="line"/>
      <point x="1230" y="0" type="line" smooth="yes"/>
      <point x="1306" y="0"/>
      <point x="1436" y="22"/>
      <point x="1537" y="82"/>
      <point x="1607" y="189"/>
      <point x="1622" y="274" type="qcurve" smooth="yes"/>
      <point x="1683" y="622" type="line" smooth="yes"/>
      <point x="1694" y="687"/>
      <point x="1668" y="785"/>
      <point x="1594" y="850"/>
      <point x="1470" y="882"/>
      <point x="1384" y="882" type="qcurve" smooth="yes"/>
      <point x="790" y="882" type="line"/>
      <point x="880" y="1400" type="line"/>
      <point x="147" y="1400" type="line"/>
      <point x="105" y="1156" type="line"/>
      <point x="574" y="1156" type="line"/>
    </contour>
    <contour>
      <point x="679" y="244" type="line"/>
      <point x="747" y="638" type="line"/>
      <point x="1315" y="638" type="line" smooth="yes"/>
      <point x="1341" y="638"/>
      <point x="1379" y="629"/>
      <point x="1402" y="607"/>
      <point x="1409" y="568"/>
      <point x="1404" y="538" type="qcurve" smooth="yes"/>
      <point x="1370" y="344" type="line" smooth="yes"/>
      <point x="1365" y="318"/>
      <point x="1345" y="280"/>
      <point x="1315" y="256"/>
      <point x="1273" y="244"/>
      <point x="1247" y="244" type="qcurve" smooth="yes"/>
    </contour>
  </outline>
</glyph>
<glyph name="uni042C" format="2">
  <advance width="1560" height="1448"/>
  <unicode hex="042C"/>
  <outline>
    <contour>
      <point x="80" y="0" type="line"/>
      <point x="976" y="0" type="line" smooth="yes"/>
      <point x="1052" y="0"/>
      <point x="1182" y="22"/>
      <point x="1284" y="82"/>
      <point x="1353" y="189"/>
      <point x="1368" y="274" type="qcurve" smooth="yes"/>
      <point x="1429" y="622" type="line" smooth="yes"/>
      <point x="1440" y="687"/>
      <point x="1414" y="785"/>
      <point x="1340" y="850"/>
      <point x="1216" y="882"/>
      <point x="1130" y="882" type="qcurve" smooth="yes"/>
      <point x="498" y="882" type="line"/>
      <point x="588" y="1400" type="line"/>
      <point x="324" y="1400" type="line"/>
    </contour>
    <contour>
      <point x="387" y="244" type="line"/>
      <point x="455" y="638" type="line"/>
      <point x="1061" y="638" type="line" smooth="yes"/>
      <point x="1114" y="638"/>
      <point x="1161" y="598"/>
      <point x="1150" y="538" type="qcurve" smooth="yes"/>
      <point x="1116" y="344" type="line" smooth="yes"/>
      <point x="1112" y="318"/>
      <point x="1092" y="280"/>
      <point x="1061" y="256"/>
      <point x="1019" y="244"/>
      <point x="993" y="244" type="qcurve" smooth="yes"/>
    </contour>
  </outline>
</glyph>
<glyph name="uni042D" format="2">
  <advance width="1606.06" height="1448"/>
  <unicode hex="042D"/>
  <anchor x="933.881" y="1550" name="top"/>
  <outline>
    <contour>
      <point x="348" y="-14" type="line"/>
      <point x="974" y="-14" type="line" smooth="yes"/>
      <point x="1067" y="-14"/>
      <point x="1203" y="17"/>
      <point x="1296" y="86"/>
      <point x="1353" y="195"/>
      <point x="1367" y="272" type="qcurve" smooth="yes"/>
      <point x="1518" y="1140" type="line" smooth="yes"/>
      <point x="1531" y="1214"/>
      <point x="1510" y="1318"/>
      <point x="1439" y="1384"/>
      <point x="1314" y="1414"/>
      <point x="1223" y="1414" type="qcurve" smooth="yes"/>
      <point x="605" y="1414" type="line" smooth="yes"/>
      <point x="513" y="1414"/>
      <point x="377" y="1384"/>
      <point x="283" y="1318"/>
      <point x="227" y="1214"/>
      <point x="214" y="1140" type="qcurve" smooth="yes"/>
      <point x="191" y="1008" type="line"/>
      <point x="446" y="960" type="line"/>
      <point x="483" y="1170" type="line"/>
      <point x="483" y="1170"/>
      <point x="483" y="1170"/>
      <point x="483" y="1170"/>
      <point x="483" y="1170"/>
      <point x="483" y="1170" type="qcurve"/>
      <point x="1259" y="1170" type="line"/>
      <point x="1259" y="1170"/>
      <point x="1259" y="1170"/>
      <point x="1259" y="1170"/>
      <point x="1259" y="1170"/>
      <point x="1259" y="1170" type="qcurve"/>
      <point x="1201" y="840" type="line"/>
      <point x="612" y="840" type="line"/>
      <point x="570" y="596" type="line"/>
      <point x="1159" y="596" type="line"/>
      <point x="1095" y="230" type="line"/>
      <point x="1095" y="230"/>
      <point x="1095" y="230"/>
      <point x="1095" y="230"/>
      <point x="1095" y="230"/>
      <point x="1095" y="230" type="qcurve"/>
      <point x="311" y="230" type="line"/>
      <point x="311" y="230"/>
      <point x="311" y="230"/>
      <point x="311" y="230"/>
      <point x="311" y="230"/>
      <point x="311" y="230" type="qcurve"/>
      <point x="353" y="471" type="line"/>
      <point x="80" y="419" type="line"/>
      <point x="55" y="272" type="line" smooth="yes"/>
      <point x="41" y="195"/>
      <point x="59" y="86"/>
      <point x="130" y="17"/>
      <point x="255" y="-14"/>
      <point x="348" y="-14" type="qcurve"/>
    </contour>
  </outline>
</glyph>
<glyph name="uni042E" format="2">
  <advance width="2447.04" height="1448"/>
  <unicode hex="042E"/>
  <outline>
    <contour>
      <point x="80" y="0" type="line"/>
      <point x="344" y="0" type="line"/>
      <point x="450" y="608" type="line"/>
      <point x="895" y="608" type="line"/>
      <point x="836" y="272" type="line" smooth="yes"/>
      <point x="821" y="184"/>
      <point x="846" y="73"/>
      <point x="919" y="10"/>
      <point x="1039" y="-14"/>
      <point x="1119" y="-14" type="qcurve" smooth="yes"/>
      <point x="1812" y="-14" type="line" smooth="yes"/>
      <point x="1892" y="-14"/>
      <point x="2024" y="9"/>
      <point x="2123" y="72"/>
      <point x="2190" y="184"/>
      <point x="2205" y="272" type="qcurve" smooth="yes"/>
      <point x="2357" y="1140" type="line" smooth="yes"/>
      <point x="2372" y="1226"/>
      <point x="2340" y="1333"/>
      <point x="2259" y="1393"/>
      <point x="2137" y="1414"/>
      <point x="2061" y="1414" type="qcurve" smooth="yes"/>
      <point x="1368" y="1414" type="line" smooth="yes"/>
      <point x="1292" y="1414"/>
      <point x="1166" y="1393"/>
      <point x="1069" y="1333"/>
      <point x="1003" y="1226"/>
      <point x="988" y="1140" type="qcurve" smooth="yes"/>
      <point x="938" y="852" type="line"/>
      <point x="493" y="852" type="line"/>
      <point x="588" y="1400" type="line"/>
      <point x="324" y="1400" type="line"/>
    </contour>
    <contour>
      <point x="1083" y="230" type="line"/>
      <point x="1083" y="230"/>
      <point x="1083" y="230"/>
      <point x="1083" y="230"/>
      <point x="1083" y="230"/>
      <point x="1083" y="230" type="qcurve"/>
      <point x="1247" y="1170" type="line"/>
      <point x="1247" y="1170"/>
      <point x="1247" y="1170"/>
      <point x="1247" y="1170"/>
      <point x="1247" y="1170"/>
      <point x="1247" y="1170" type="qcurve"/>
      <point x="2098" y="1170" type="line"/>
      <point x="2098" y="1170"/>
      <point x="2098" y="1170"/>
      <point x="2098" y="1170"/>
      <point x="2098" y="1170"/>
      <point x="2098" y="1170" type="qcurve"/>
      <point x="1934" y="230" type="line"/>
      <point x="1934" y="230"/>
      <point x="1934" y="230"/>
      <point x="1934" y="230"/>
      <point x="1934" y="230"/>
      <point x="1934" y="230" type="qcurve"/>
    </contour>
  </outline>
</glyph>
<glyph name="uni042F" format="2">
  <advance width="1719.14" height="1448"/>
  <unicode hex="042F"/>
  <outline>
    <contour>
      <point x="47" y="0" type="line"/>
      <point x="411" y="0" type="line"/>
      <point x="1012" y="516" type="line"/>
      <point x="1225" y="516" type="line"/>
      <point x="1135" y="0" type="line"/>
      <point x="1399" y="0" type="line"/>
      <point x="1643" y="1400" type="line"/>
      <point x="1511" y="1400" type="line"/>
      <point x="695" y="1400" type="line" smooth="yes"/>
      <point x="619" y="1400"/>
      <point x="489" y="1379"/>
      <point x="388" y="1319"/>
      <point x="319" y="1212"/>
      <point x="304" y="1126" type="qcurve" smooth="yes"/>
      <point x="242" y="776" type="line" smooth="yes"/>
      <point x="231" y="711"/>
      <point x="257" y="613"/>
      <point x="331" y="548"/>
      <point x="455" y="516"/>
      <point x="541" y="516" type="qcurve" smooth="yes"/>
      <point x="648" y="516" type="line"/>
    </contour>
    <contour>
      <point x="610" y="760" type="line" smooth="yes"/>
      <point x="558" y="760"/>
      <point x="511" y="800"/>
      <point x="521" y="860" type="qcurve" smooth="yes"/>
      <point x="555" y="1056" type="line" smooth="yes"/>
      <point x="560" y="1082"/>
      <point x="580" y="1120"/>
      <point x="611" y="1144"/>
      <point x="653" y="1156"/>
      <point x="679" y="1156" type="qcurve" smooth="yes"/>
      <point x="1337" y="1156" type="line"/>
      <point x="1268" y="760" type="line"/>
    </contour>
  </outline>
</glyph>
<glyph name="uni0432" format="2">
  <advance width="1424.87" height="1448"/>
  <unicode hex="0432"/>
  <outline>
    <contour>
      <point x="58" y="0" type="line"/>
      <point x="838" y="0" type="line" smooth="yes"/>
      <point x="910" y="0"/>
      <point x="1032" y="27"/>
      <point x="1124" y="85"/>
      <point x="1184" y="177"/>
      <point x="1195" y="242" type="qcurve" smooth="yes"/>
      <point x="1203" y="287" type="line" smooth="yes"/>
      <point x="1219" y="375"/>
      <point x="1159" y="493"/>
      <point x="1087" y="515" type="qcurve"/>
      <point x="1163" y="535"/>
      <point x="1250" y="639"/>
      <point x="1264" y="720" type="qcurve" smooth="yes"/>
      <point x="1272" y="765" type="line" smooth="yes"/>
      <point x="1283" y="828"/>
      <point x="1257" y="917"/>
      <point x="1188" y="974"/>
      <point x="1081" y="1000"/>
      <point x="1011" y="1000" type="qcurve" smooth="yes"/>
      <point x="233" y="1000" type="line"/>
    </contour>
    <contour>
      <point x="342" y="204" type="line"/>
      <point x="378" y="410" type="line"/>
      <point x="883" y="410" type="line" smooth="yes"/>
      <point x="904" y="410"/>
      <point x="938" y="403"/>
      <point x="959" y="387"/>
      <point x="968" y="363"/>
      <point x="965" y="345" type="qcurve" smooth="yes"/>
      <point x="952" y="269" type="line" smooth="yes"/>
      <point x="949" y="251"/>
      <point x="932" y="227"/>
      <point x="904" y="211"/>
      <point x="868" y="204"/>
      <point x="847" y="204" type="qcurve" smooth="yes"/>
    </contour>
    <contour>
      <point x="412" y="608" type="line"/>
      <point x="445" y="796" type="line"/>
      <point x="948" y="796" type="line" smooth="yes"/>
      <point x="967" y="796"/>
      <point x="996" y="788"/>
      <point x="1014" y="772"/>
      <point x="1021" y="748"/>
      <point x="1018" y="732" type="qcurve" smooth="yes"/>
      <point x="1007" y="672" type="line"/>
      <point x="1005" y="656"/>
      <point x="990" y="632"/>
      <point x="966" y="616"/>
      <point x="934" y="608"/>
      <point x="915" y="608" type="qcurve" smooth="yes"/>
    </contour>
  </outline>
</glyph>
<glyph name="uni0433" format="2">
  <advance width="1108" height="1448"/>
  <unicode hex="0433"/>
  <anchor x="699" y="1150" name="top"/>
  <outline>
    <contour>
      <point x="58.4692" y="0" type="line"/>
      <point x="306.469" y="0" type="line"/>
      <point x="441.469" y="776" type="line"/>
      <point x="1073.47" y="776" type="line"/>
      <point x="1113.47" y="1000" type="line"/>
      <point x="233.469" y="1000" type="line"/>
    </contour>
  </outline>
</glyph>
<glyph name="uni0436" format="2">
  <advance width="1780.71" height="1448"/>
  <unicode hex="0436"/>
  <anchor x="971.857" y="1150" name="top"/>
  <outline>
    <contour>
      <point x="-111.143" y="0" type="line"/>
      <point x="242.857" y="0" type="line"/>
      <point x="722.857" y="442" type="line"/>
      <point x="645.857" y="0" type="line"/>
      <point x="893.857" y="0" type="line"/>
      <point x="970.857" y="443" type="line"/>
      <point x="1297.86" y="0" type="line"/>
      <point x="1651.86" y="0" type="line"/>
      <point x="1239.86" y="542" type="line"/>
      <point x="1740.86" y="1000" type="line"/>
      <point x="1452.86" y="1000" type="line"/>
      <point x="993.857" y="574" type="line"/>
      <point x="1068.86" y="1000" type="line"/>
      <point x="820.857" y="1000" type="line"/>
      <point x="745.857" y="575" type="line"/>
      <point x="437.857" y="1000" type="line"/>
      <point x="149.857" y="1000" type="line"/>
      <point x="490.857" y="542" type="line"/>
    </contour>
  </outline>
</glyph>
<glyph name="uni0437" format="2">
  <advance width="1354" height="1448"/>
  <unicode hex="0437"/>
  <anchor x="742" y="1150" name="top"/>
  <anchor x="639" y="0" name="ogonek"/>
  <outline>
    <contour>
      <point x="285" y="-10" type="line"/>
      <point x="766" y="-10" type="line" smooth="yes"/>
      <point x="836" y="-10"/>
      <point x="954" y="3"/>
      <point x="1046" y="52"/>
      <point x="1109" y="148"/>
      <point x="1123" y="232" type="qcurve" smooth="yes"/>
      <point x="1133" y="287" type="line" smooth="yes"/>
      <point x="1142" y="340"/>
      <point x="1137" y="416"/>
      <point x="1108" y="469"/>
      <point x="1055" y="504"/>
      <point x="1017" y="515" type="qcurve"/>
      <point x="1056" y="525"/>
      <point x="1115" y="553"/>
      <point x="1157" y="599"/>
      <point x="1185" y="668"/>
      <point x="1194" y="720" type="qcurve" smooth="yes"/>
      <point x="1203" y="775" type="line" smooth="yes"/>
      <point x="1216" y="845"/>
      <point x="1185" y="936"/>
      <point x="1113" y="989"/>
      <point x="1006" y="1010"/>
      <point x="942" y="1010" type="qcurve" smooth="yes"/>
      <point x="463" y="1010" type="line" smooth="yes"/>
      <point x="400" y="1010"/>
      <point x="293" y="1002"/>
      <point x="209" y="962"/>
      <point x="152" y="881"/>
      <point x="139" y="807" type="qcurve" smooth="yes"/>
      <point x="121" y="707" type="line"/>
      <point x="362" y="667" type="line"/>
      <point x="383" y="786" type="line"/>
      <point x="383" y="786"/>
      <point x="383" y="786"/>
      <point x="383" y="786" type="qcurve"/>
      <point x="876" y="786" type="line" smooth="yes"/>
      <point x="893" y="786"/>
      <point x="922" y="780"/>
      <point x="941" y="766"/>
      <point x="950" y="741"/>
      <point x="946" y="722" type="qcurve"/>
      <point x="938" y="675" type="line" smooth="yes"/>
      <point x="934" y="653"/>
      <point x="918" y="628"/>
      <point x="894" y="615"/>
      <point x="864" y="611"/>
      <point x="846" y="611" type="qcurve" smooth="yes"/>
      <point x="481" y="611" type="line"/>
      <point x="445" y="407" type="line"/>
      <point x="812" y="407" type="line" smooth="yes"/>
      <point x="832" y="407"/>
      <point x="865" y="402"/>
      <point x="888" y="388"/>
      <point x="898" y="362"/>
      <point x="895" y="342" type="qcurve" smooth="yes"/>
      <point x="884" y="279" type="line"/>
      <point x="879" y="255"/>
      <point x="860" y="229"/>
      <point x="833" y="216"/>
      <point x="798" y="214"/>
      <point x="778" y="214" type="qcurve" smooth="yes"/>
      <point x="283" y="214" type="line"/>
      <point x="283" y="214"/>
      <point x="283" y="214"/>
      <point x="283" y="214" type="qcurve"/>
      <point x="302" y="320" type="line"/>
      <point x="47" y="281" type="line"/>
      <point x="32" y="195" type="line" smooth="yes"/>
      <point x="21" y="131"/>
      <point x="52" y="51"/>
      <point x="122" y="6"/>
      <point x="225" y="-10"/>
      <point x="285" y="-10" type="qcurve"/>
    </contour>
  </outline>
</glyph>
<glyph name="uni0438" format="2">
  <advance width="1412.47" height="1448"/>
  <unicode hex="0438"/>
  <anchor x="793" y="1150" name="top"/>
  <outline>
    <contour>
      <point x="58.4692" y="0" type="line"/>
      <point x="256.469" y="0" type="line"/>
      <point x="989.469" y="636" type="line"/>
      <point x="878.469" y="0" type="line"/>
      <point x="1126.47" y="0" type="line"/>
      <point x="1301.47" y="1000" type="line"/>
      <point x="1101.47" y="1000" type="line"/>
      <point x="368.469" y="358" type="line"/>
      <point x="481.469" y="1000" type="line"/>
      <point x="233.469" y="1000" type="line"/>
    </contour>
  </outline>
</glyph>
<glyph name="uni043A" format="2">
  <advance width="1376" height="1448"/>
  <unicode hex="043A"/>
  <anchor x="861" y="1150" name="top"/>
  <outline>
    <contour>
      <point x="58.4692" y="0" type="line"/>
      <point x="306.469" y="0" type="line"/>
      <point x="389.469" y="476" type="line"/>
      <point x="868.469" y="0" type="line"/>
      <point x="1247.47" y="0" type="line"/>
      <point x="701.469" y="538" type="line"/>
      <point x="1303.47" y="1000" type="line"/>
      <point x="983.469" y="1000" type="line"/>
      <point x="401.469" y="547" type="line"/>
      <point x="481.469" y="1000" type="line"/>
      <point x="233.469" y="1000" type="line"/>
    </contour>
  </outline>
</glyph>
<glyph name="uni043B" format="2">
  <advance width="1202" height="1448"/>
  <unicode hex="043B"/>
  <outline>
    <contour>
      <point x="-111" y="0" type="line"/>
      <point x="170" y="0" type="line"/>
      <point x="622" y="778" type="line"/>
      <point x="802" y="0" type="line"/>
      <point x="1073" y="0" type="line"/>
      <point x="827" y="1000" type="line"/>
      <point x="485" y="1000" type="line"/>
    </contour>
  </outline>
</glyph>
<glyph name="uni043C" format="2">
  <advance width="1566.61" height="1448"/>
  <unicode hex="043C"/>
  <outline>
    <contour>
      <point x="58" y="0" type="line"/>
      <point x="286" y="0" type="line"/>
      <point x="395" y="623" type="line"/>
      <point x="682" y="170" type="line"/>
      <point x="1131" y="629" type="line"/>
      <point x="1021" y="0" type="line"/>
      <point x="1269" y="0" type="line"/>
      <point x="1444" y="1000" type="line"/>
      <point x="1219" y="1000" type="line"/>
      <point x="757" y="532" type="line"/>
      <point x="458" y="1000" type="line"/>
      <point x="233" y="1000" type="line"/>
    </contour>
  </outline>
</glyph>
<glyph name="uni043D" format="2">
  <advance width="1388" height="1448"/>
  <unicode hex="043D"/>
  <outline>
    <contour>
      <point x="58" y="0" type="line"/>
      <point x="306" y="0" type="line"/>
      <point x="378" y="412" type="line"/>
      <point x="914" y="412" type="line"/>
      <point x="842" y="0" type="line"/>
      <point x="1090" y="0" type="line"/>
      <point x="1265" y="1000" type="line"/>
      <point x="1017" y="1000" type="line"/>
      <point x="951" y="626" type="line"/>
      <point x="415" y="626" type="line"/>
      <point x="481" y="1000" type="line"/>
      <point x="233" y="1000" type="line"/>
    </contour>
  </outline>
</glyph>
<glyph name="uni0442" format="2">
  <advance width="1133" height="1448"/>
  <unicode hex="0442"/>
  <outline>
    <contour>
      <point x="323" y="0" type="line"/>
      <point x="571" y="0" type="line"/>
      <point x="706" y="776" type="line"/>
      <point x="1098" y="776" type="line"/>
      <point x="1138" y="1000" type="line"/>
      <point x="107" y="1000" type="line"/>
      <point x="67" y="776" type="line"/>
      <point x="458" y="776" type="line"/>
    </contour>
  </outline>
</glyph>
<glyph name="uni0444" format="2">
  <advance width="1976.53" height="1448"/>
  <unicode hex="0444"/>
  <anchor x="1547.5" y="1598" name="top"/>
  <outline>
    <contour>
      <point x="284" y="-10" type="line"/>
      <point x="501" y="-10" type="line" smooth="yes"/>
      <point x="601" y="-10"/>
      <point x="730" y="44"/>
      <point x="760" y="100" type="qcurve"/>
      <point x="668" y="-428" type="line"/>
      <point x="916" y="-428" type="line"/>
      <point x="989" y="-10" type="line"/>
      <point x="1447" y="-10" type="line" smooth="yes"/>
      <point x="1516" y="-10"/>
      <point x="1617" y="14"/>
      <point x="1688" y="65"/>
      <point x="1730" y="146"/>
      <point x="1741" y="204" type="qcurve" smooth="yes"/>
      <point x="1846" y="806" type="line" smooth="yes"/>
      <point x="1855" y="860"/>
      <point x="1839" y="937"/>
      <point x="1786" y="987"/>
      <point x="1693" y="1010"/>
      <point x="1625" y="1010" type="qcurve" smooth="yes"/>
      <point x="1408" y="1010" type="line" smooth="yes"/>
      <point x="1308" y="1010"/>
      <point x="1179" y="956"/>
      <point x="1149" y="900" type="qcurve"/>
      <point x="1236" y="1400" type="line"/>
      <point x="987" y="1400" type="line"/>
      <point x="919" y="1010" type="line"/>
      <point x="462" y="1010" type="line" smooth="yes"/>
      <point x="393" y="1010"/>
      <point x="292" y="986"/>
      <point x="222" y="935"/>
      <point x="180" y="854"/>
      <point x="169" y="796" type="qcurve" smooth="yes"/>
      <point x="64" y="194" type="line" smooth="yes"/>
      <point x="55" y="140"/>
      <point x="70" y="63"/>
      <point x="123" y="13"/>
      <point x="216" y="-10"/>
      <point x="284" y="-10" type="qcurve"/>
    </contour>
    <contour>
      <point x="780" y="214" type="line"/>
      <point x="315" y="214" type="line"/>
      <point x="315" y="214"/>
      <point x="315" y="214"/>
      <point x="315" y="214" type="qcurve"/>
      <point x="415" y="786" type="line"/>
      <point x="415" y="786"/>
      <point x="415" y="786"/>
      <point x="415" y="786" type="qcurve"/>
      <point x="880" y="786" type="line"/>
    </contour>
    <contour>
      <point x="1029" y="214" type="line"/>
      <point x="1129" y="786" type="line"/>
      <point x="1594" y="786" type="line"/>
      <point x="1594" y="786"/>
      <point x="1594" y="786"/>
      <point x="1594" y="786" type="qcurve"/>
      <point x="1494" y="214" type="line"/>
      <point x="1494" y="214"/>
      <point x="1494" y="214"/>
      <point x="1494" y="214" type="qcurve"/>
    </contour>
  </outline>
  <guideline angle="260.086" color="1,0,0,1" x="1714.5" y="0"/>
  <guideline angle="260.103" color="1,0,0,1" x="867.499" y="0"/>
</glyph>
<glyph name="uni0446" format="2">
  <advance width="1387" height="1448"/>
  <unicode hex="0446"/>
  <outline>
    <contour>
      <point x="58" y="0" type="line"/>
      <point x="958" y="0" type="line"/>
      <point x="928" y="-240" type="line"/>
      <point x="1148" y="-240" type="line"/>
      <point x="1229" y="224" type="line"/>
      <point x="1108" y="224" type="line"/>
      <point x="1244" y="1000" type="line"/>
      <point x="996" y="1000" type="line"/>
      <point x="860" y="224" type="line"/>
      <point x="345" y="224" type="line"/>
      <point x="481" y="1000" type="line"/>
      <point x="233" y="1000" type="line"/>
    </contour>
  </outline>
  <guideline angle="260.112" color="1,0,0,1" name="align" x="1230" y="224"/>
</glyph>
<glyph name="uni0449" format="2">
  <advance width="2050" height="1448"/>
  <unicode hex="0449"/>
  <outline>
    <contour>
      <point x="58" y="0" type="line"/>
      <point x="1621" y="0" type="line"/>
      <point x="1591" y="-240" type="line"/>
      <point x="1811" y="-240" type="line"/>
      <point x="1892" y="224" type="line"/>
      <point x="1771" y="224" type="line"/>
      <point x="1907" y="1000" type="line"/>
      <point x="1659" y="1000" type="line"/>
      <point x="1523" y="224" type="line"/>
      <point x="1058" y="224" type="line"/>
      <point x="1194" y="1000" type="line"/>
      <point x="946" y="1000" type="line"/>
      <point x="810" y="224" type="line"/>
      <point x="345" y="224" type="line"/>
      <point x="481" y="1000" type="line"/>
      <point x="233" y="1000" type="line"/>
    </contour>
  </outline>
  <guideline x="1892" y="224" name="align" angle="260.099" color="1,0,0,1"/>
</glyph>
<glyph name="uni044A" format="2">
  <advance width="1543" height="1448"/>
  <unicode hex="044A"/>
  <outline>
    <contour>
      <point x="200" y="0" type="line"/>
      <point x="1016" y="0" type="line" smooth="yes"/>
      <point x="1084" y="0"/>
      <point x="1184" y="21"/>
      <point x="1253" y="65"/>
      <point x="1294" y="134"/>
      <point x="1303" y="182" type="qcurve" smooth="yes"/>
      <point x="1365" y="538" type="line" smooth="yes"/>
      <point x="1373" y="586"/>
      <point x="1357" y="655"/>
      <point x="1303" y="699"/>
      <point x="1210" y="720"/>
      <point x="1142" y="720" type="qcurve" smooth="yes"/>
      <point x="813" y="720" type="line" smooth="yes"/>
      <point x="714" y="720"/>
      <point x="586" y="671"/>
      <point x="556" y="620" type="qcurve"/>
      <point x="623" y="1000" type="line"/>
      <point x="66" y="1000" type="line"/>
      <point x="26" y="776" type="line"/>
      <point x="335" y="776" type="line"/>
    </contour>
    <contour>
      <point x="485" y="214" type="line"/>
      <point x="536" y="506" type="line"/>
      <point x="1111" y="506" type="line"/>
      <point x="1111" y="506"/>
      <point x="1111" y="506"/>
      <point x="1111" y="506" type="qcurve"/>
      <point x="1060" y="214" type="line"/>
      <point x="1060" y="214"/>
      <point x="1060" y="214"/>
      <point x="1060" y="214" type="qcurve"/>
    </contour>
  </outline>
</glyph>
<glyph name="uni044B" format="2">
  <advance width="2031" height="1448"/>
  <unicode hex="044B"/>
  <anchor x="1097" y="1150" name="top"/>
  <outline>
    <contour>
      <point x="58.4692" y="0" type="line"/>
      <point x="894.469" y="0" type="line" smooth="yes"/>
      <point x="962.469" y="0"/>
      <point x="1063.47" y="21"/>
      <point x="1132.47" y="65"/>
      <point x="1172.47" y="134"/>
      <point x="1181.47" y="182" type="qcurve" smooth="yes"/>
      <point x="1243.47" y="538" type="line" smooth="yes"/>
      <point x="1251.47" y="586"/>
      <point x="1235.47" y="655"/>
      <point x="1181.47" y="699"/>
      <point x="1088.47" y="720"/>
      <point x="1020.47" y="720" type="qcurve" smooth="yes"/>
      <point x="671.469" y="720" type="line" smooth="yes"/>
      <point x="572.469" y="720"/>
      <point x="444.469" y="671"/>
      <point x="414.469" y="620" type="qcurve"/>
      <point x="481.469" y="1000" type="line"/>
      <point x="233.469" y="1000" type="line"/>
    </contour>
    <contour>
      <point x="343.469" y="214" type="line"/>
      <point x="394.469" y="506" type="line"/>
      <point x="989.469" y="506" type="line"/>
      <point x="989.469" y="506"/>
      <point x="989.469" y="506"/>
      <point x="989.469" y="506" type="qcurve"/>
      <point x="938.469" y="214" type="line"/>
      <point x="938.469" y="214"/>
      <point x="938.469" y="214"/>
      <point x="938.469" y="214" type="qcurve"/>
    </contour>
    <contour>
      <point x="1489.47" y="0" type="line"/>
      <point x="1733.47" y="0" type="line"/>
      <point x="1908.47" y="1000" type="line"/>
      <point x="1664.47" y="1000" type="line"/>
    </contour>
  </outline>
  <guideline x="1243" y="538" angle="260.094" color="1,0,0,1"/>
</glyph>
<glyph name="uni044C" format="2">
  <advance width="1421.38" height="1448"/>
  <unicode hex="044C"/>
  <outline>
    <contour>
      <point x="58" y="0" type="line"/>
      <point x="894" y="0" type="line" smooth="yes"/>
      <point x="963" y="0"/>
      <point x="1063" y="21"/>
      <point x="1132" y="65"/>
      <point x="1173" y="134"/>
      <point x="1181" y="182" type="qcurve" smooth="yes"/>
      <point x="1243" y="538" type="line" smooth="yes"/>
      <point x="1252" y="586"/>
      <point x="1235" y="655"/>
      <point x="1182" y="699"/>
      <point x="1089" y="720"/>
      <point x="1020" y="720" type="qcurve" smooth="yes"/>
      <point x="671" y="720" type="line" smooth="yes"/>
      <point x="573" y="720"/>
      <point x="445" y="671"/>
      <point x="414" y="620" type="qcurve"/>
      <point x="481" y="1000" type="line"/>
      <point x="233" y="1000" type="line"/>
    </contour>
    <contour>
      <point x="343" y="214" type="line"/>
      <point x="394" y="506" type="line"/>
      <point x="989" y="506" type="line"/>
      <point x="989" y="506"/>
      <point x="989" y="506"/>
      <point x="989" y="506" type="qcurve"/>
      <point x="938" y="214" type="line"/>
      <point x="938" y="214"/>
      <point x="938" y="214"/>
      <point x="938" y="214" type="qcurve"/>
    </contour>
  </outline>
</glyph>
<glyph name="uni044D" format="2">
  <advance width="1375.14" height="1448"/>
  <unicode hex="044D"/>
  <outline>
    <contour>
      <point x="284" y="-10" type="line"/>
      <point x="846" y="-10" type="line" smooth="yes"/>
      <point x="916" y="-10"/>
      <point x="1017" y="14"/>
      <point x="1087" y="65"/>
      <point x="1129" y="146"/>
      <point x="1139" y="204" type="qcurve" smooth="yes"/>
      <point x="1244" y="806" type="line" smooth="yes"/>
      <point x="1254" y="861"/>
      <point x="1239" y="938"/>
      <point x="1185" y="987"/>
      <point x="1092" y="1010"/>
      <point x="1024" y="1010" type="qcurve" smooth="yes"/>
      <point x="466" y="1010" type="line" smooth="yes"/>
      <point x="397" y="1010"/>
      <point x="296" y="987"/>
      <point x="226" y="938"/>
      <point x="184" y="861"/>
      <point x="174" y="806" type="qcurve" smooth="yes"/>
      <point x="156" y="700" type="line"/>
      <point x="395" y="652" type="line"/>
      <point x="419" y="786" type="line"/>
      <point x="419" y="786"/>
      <point x="419" y="786"/>
      <point x="419" y="786" type="qcurve"/>
      <point x="993" y="786" type="line"/>
      <point x="993" y="786"/>
      <point x="993" y="786"/>
      <point x="993" y="786" type="qcurve"/>
      <point x="963" y="615" type="line"/>
      <point x="518" y="615" type="line"/>
      <point x="482" y="411" type="line"/>
      <point x="927" y="411" type="line"/>
      <point x="893" y="214" type="line"/>
      <point x="893" y="214"/>
      <point x="893" y="214"/>
      <point x="893" y="214" type="qcurve"/>
      <point x="315" y="214" type="line"/>
      <point x="315" y="214"/>
      <point x="315" y="214"/>
      <point x="315" y="214" type="qcurve"/>
      <point x="340" y="358" type="line"/>
      <point x="83" y="306" type="line"/>
      <point x="65" y="204" type="line" smooth="yes"/>
      <point x="55" y="146"/>
      <point x="69" y="65"/>
      <point x="121" y="14"/>
      <point x="214" y="-10"/>
      <point x="284" y="-10" type="qcurve"/>
    </contour>
  </outline>
</glyph>
<glyph name="uni044E" format="2">
  <advance width="1954.5" height="1448"/>
  <unicode hex="044E"/>
  <anchor x="1160.47" y="-150" name="bottom"/>
  <anchor x="1387.47" y="1150" name="top"/>
  <outline>
    <contour>
      <point x="58" y="0" type="line"/>
      <point x="306" y="0" type="line"/>
      <point x="378" y="412" type="line"/>
      <point x="692" y="412" type="line"/>
      <point x="656" y="204" type="line" smooth="yes"/>
      <point x="646" y="146"/>
      <point x="660" y="65"/>
      <point x="713" y="14"/>
      <point x="805" y="-10"/>
      <point x="874" y="-10" type="qcurve" smooth="yes"/>
      <point x="1424" y="-10" type="line" smooth="yes"/>
      <point x="1494" y="-10"/>
      <point x="1596" y="14"/>
      <point x="1666" y="65"/>
      <point x="1708" y="146"/>
      <point x="1718" y="204" type="qcurve" smooth="yes"/>
      <point x="1823" y="806" type="line" smooth="yes"/>
      <point x="1842" y="914"/>
      <point x="1739" y="1010"/>
      <point x="1602" y="1010" type="qcurve" smooth="yes"/>
      <point x="1052" y="1010" type="line" smooth="yes"/>
      <point x="984" y="1010"/>
      <point x="883" y="987"/>
      <point x="813" y="937"/>
      <point x="771" y="860"/>
      <point x="761" y="806" type="qcurve" smooth="yes"/>
      <point x="729" y="626" type="line"/>
      <point x="415" y="626" type="line"/>
      <point x="481" y="1000" type="line"/>
      <point x="233" y="1000" type="line"/>
    </contour>
    <contour>
      <point x="895" y="214" type="line"/>
      <point x="895" y="214"/>
      <point x="895" y="214"/>
      <point x="895" y="214" type="qcurve"/>
      <point x="995" y="786" type="line"/>
      <point x="995" y="786"/>
      <point x="995" y="786"/>
      <point x="995" y="786" type="qcurve"/>
      <point x="1571" y="786" type="line"/>
      <point x="1571" y="786"/>
      <point x="1571" y="786"/>
      <point x="1571" y="786" type="qcurve"/>
      <point x="1471" y="214" type="line"/>
      <point x="1471" y="214"/>
      <point x="1471" y="214"/>
      <point x="1471" y="214" type="qcurve"/>
    </contour>
  </outline>
</glyph>
<glyph name="uni044F" format="2">
  <advance width="1391.14" height="1448"/>
  <unicode hex="044F"/>
  <outline>
    <contour>
      <point x="-27" y="0" type="line"/>
      <point x="306" y="0" type="line"/>
      <point x="764" y="354" type="line"/>
      <point x="908" y="354" type="line"/>
      <point x="846" y="0" type="line"/>
      <point x="1094" y="0" type="line"/>
      <point x="1269" y="1000" type="line"/>
      <point x="522" y="1000" type="line" smooth="yes"/>
      <point x="450" y="1000"/>
      <point x="329" y="973"/>
      <point x="236" y="915"/>
      <point x="176" y="823"/>
      <point x="164" y="758" type="qcurve" smooth="yes"/>
      <point x="136" y="596" type="line" smooth="yes"/>
      <point x="125" y="531"/>
      <point x="153" y="439"/>
      <point x="225" y="381"/>
      <point x="337" y="354"/>
      <point x="409" y="354" type="qcurve" smooth="yes"/>
      <point x="431" y="354" type="line"/>
    </contour>
    <contour>
      <point x="471" y="558" type="line" smooth="yes"/>
      <point x="450" y="558"/>
      <point x="417" y="565"/>
      <point x="395" y="581"/>
      <point x="386" y="605"/>
      <point x="389" y="623" type="qcurve" smooth="yes"/>
      <point x="408" y="731" type="line" smooth="yes"/>
      <point x="411" y="749"/>
      <point x="429" y="773"/>
      <point x="456" y="789"/>
      <point x="492" y="796"/>
      <point x="513" y="796" type="qcurve" smooth="yes"/>
      <point x="985" y="796" type="line"/>
      <point x="943" y="558" type="line"/>
    </contour>
  </outline>
  <guideline angle="0" color="1,0,0,1" x="0" y="354"/>
</glyph>
<glyph name="uni0454" format="2">
  <advance width="1340.51" height="1448"/>
  <unicode hex="0454"/>
  <outline>
    <contour>
      <point x="284.267" y="-10" type="line"/>
      <point x="846.267" y="-10" type="line" smooth="yes"/>
      <point x="916.267" y="-10"/>
      <point x="1017.27" y="14"/>
      <point x="1088.27" y="65"/>
      <point x="1130.27" y="146"/>
      <point x="1140.27" y="204" type="qcurve" smooth="yes"/>
      <point x="1157.27" y="306" type="line"/>
      <point x="918.267" y="358" type="line"/>
      <point x="893.267" y="214" type="line"/>
      <point x="893.267" y="214"/>
      <point x="893.267" y="214"/>
      <point x="893.267" y="214" type="qcurve"/>
      <point x="315.267" y="214" type="line"/>
      <point x="315.267" y="214"/>
      <point x="315.267" y="214"/>
      <point x="315.267" y="214" type="qcurve"/>
      <point x="350.267" y="411" type="line"/>
      <point x="795.267" y="411" type="line"/>
      <point x="830.267" y="615" type="line"/>
      <point x="385.267" y="615" type="line"/>
      <point x="415.267" y="786" type="line"/>
      <point x="415.267" y="786"/>
      <point x="415.267" y="786"/>
      <point x="415.267" y="786" type="qcurve"/>
      <point x="989.267" y="786" type="line"/>
      <point x="989.267" y="786"/>
      <point x="989.267" y="786"/>
      <point x="989.267" y="786" type="qcurve"/>
      <point x="966.267" y="652" type="line"/>
      <point x="1222.27" y="700" type="line"/>
      <point x="1241.27" y="806" type="line" smooth="yes"/>
      <point x="1250.27" y="861"/>
      <point x="1235.27" y="938"/>
      <point x="1182.27" y="987"/>
      <point x="1089.27" y="1010"/>
      <point x="1020.27" y="1010" type="qcurve" smooth="yes"/>
      <point x="462.267" y="1010" type="line" smooth="yes"/>
      <point x="394.267" y="1010"/>
      <point x="293.267" y="987"/>
      <point x="222.267" y="938"/>
      <point x="180.267" y="861"/>
      <point x="171.267" y="806" type="qcurve" smooth="yes"/>
      <point x="66.2673" y="204" type="line" smooth="yes"/>
      <point x="56.2673" y="146"/>
      <point x="69.2673" y="65"/>
      <point x="121.267" y="14"/>
      <point x="214.267" y="-10"/>
      <point x="284.267" y="-10" type="qcurve"/>
    </contour>
  </outline>
</glyph>
<glyph name="uni0459" format="2">
  <advance width="2120.65" height="1448"/>
  <unicode hex="0459"/>
  <outline>
    <contour>
      <point x="-111" y="0" type="line"/>
      <point x="189" y="0" type="line"/>
      <point x="870" y="776" type="line"/>
      <point x="953" y="776" type="line"/>
      <point x="818" y="0" type="line"/>
      <point x="1594" y="0" type="line" smooth="yes"/>
      <point x="1663" y="0"/>
      <point x="1763" y="21"/>
      <point x="1833" y="68"/>
      <point x="1873" y="142"/>
      <point x="1883" y="194" type="qcurve" smooth="yes"/>
      <point x="1943" y="538" type="line" smooth="yes"/>
      <point x="1951" y="586"/>
      <point x="1935" y="655"/>
      <point x="1881" y="699"/>
      <point x="1788" y="720"/>
      <point x="1720" y="720" type="qcurve" smooth="yes"/>
      <point x="1431" y="720" type="line" smooth="yes"/>
      <point x="1332" y="720"/>
      <point x="1204" y="671"/>
      <point x="1174" y="620" type="qcurve"/>
      <point x="1241" y="1000" type="line"/>
      <point x="778" y="1000" type="line"/>
    </contour>
    <contour>
      <point x="1103" y="214" type="line"/>
      <point x="1154" y="506" type="line"/>
      <point x="1689" y="506" type="line"/>
      <point x="1689" y="506"/>
      <point x="1689" y="506"/>
      <point x="1689" y="506" type="qcurve"/>
      <point x="1638" y="214" type="line"/>
      <point x="1638" y="214"/>
      <point x="1638" y="214"/>
      <point x="1638" y="214" type="qcurve"/>
    </contour>
  </outline>
  <guideline angle="260.118" color="1,0,0,1" x="992.857" y="1000"/>
</glyph>
<glyph name="uni045F" format="2">
  <advance width="1366.61" height="1448"/>
  <unicode hex="045F"/>
  <outline>
    <contour>
      <point x="58" y="0" type="line"/>
      <point x="448" y="0" type="line"/>
      <point x="418" y="-240" type="line"/>
      <point x="638" y="-240" type="line"/>
      <point x="680" y="0" type="line"/>
      <point x="1069" y="0" type="line"/>
      <point x="1244" y="1000" type="line"/>
      <point x="996" y="1000" type="line"/>
      <point x="860" y="224" type="line"/>
      <point x="345" y="224" type="line"/>
      <point x="481" y="1000" type="line"/>
      <point x="233" y="1000" type="line"/>
    </contour>
  </outline>
  <guideline angle="260.078" color="1,0,0,1" x="564.469" y="0"/>
</glyph>
<glyph name="uni0462" format="2">
  <advance width="1579" height="1448"/>
  <unicode hex="0462"/>
  <outline>
    <contour>
      <point x="99" y="0" type="line"/>
      <point x="995" y="0" type="line" smooth="yes"/>
      <point x="1071" y="0"/>
      <point x="1201" y="22"/>
      <point x="1303" y="82"/>
      <point x="1372" y="189"/>
      <point x="1387" y="274" type="qcurve" smooth="yes"/>
      <point x="1448" y="622" type="line" smooth="yes"/>
      <point x="1459" y="687"/>
      <point x="1433" y="785"/>
      <point x="1359" y="850"/>
      <point x="1235" y="882"/>
      <point x="1149" y="882" type="qcurve" smooth="yes"/>
      <point x="517" y="882" type="line"/>
      <point x="543" y="1029" type="line"/>
      <point x="983" y="1029" type="line"/>
      <point x="1022" y="1253" type="line"/>
      <point x="582" y="1253" type="line"/>
      <point x="607" y="1400" type="line"/>
      <point x="343" y="1400" type="line"/>
      <point x="318" y="1253" type="line"/>
      <point x="168" y="1253" type="line"/>
      <point x="129" y="1029" type="line"/>
      <point x="279" y="1029" type="line"/>
    </contour>
    <contour>
      <point x="406" y="244" type="line"/>
      <point x="474" y="638" type="line"/>
      <point x="1080" y="638" type="line" smooth="yes"/>
      <point x="1106" y="638"/>
      <point x="1145" y="629"/>
      <point x="1168" y="607"/>
      <point x="1174" y="568"/>
      <point x="1169" y="538" type="qcurve" smooth="yes"/>
      <point x="1135" y="344" type="line" smooth="yes"/>
      <point x="1131" y="318"/>
      <point x="1111" y="280"/>
      <point x="1080" y="256"/>
      <point x="1038" y="244"/>
      <point x="1012" y="244" type="qcurve" smooth="yes"/>
    </contour>
  </outline>
</glyph>
<glyph name="uni0463" format="2">
  <advance width="1561.64" height="1448"/>
  <unicode hex="0463"/>
  <outline>
    <contour>
      <point x="199" y="0" type="line"/>
      <point x="1035" y="0" type="line" smooth="yes"/>
      <point x="1103" y="0"/>
      <point x="1203" y="21"/>
      <point x="1272" y="65"/>
      <point x="1313" y="134"/>
      <point x="1322" y="182" type="qcurve" smooth="yes"/>
      <point x="1377" y="498" type="line" smooth="yes"/>
      <point x="1385" y="546"/>
      <point x="1369" y="615"/>
      <point x="1315" y="659"/>
      <point x="1222" y="680"/>
      <point x="1154" y="680" type="qcurve" smooth="yes"/>
      <point x="805" y="680" type="line" smooth="yes"/>
      <point x="706" y="680"/>
      <point x="578" y="631"/>
      <point x="548" y="580" type="qcurve"/>
      <point x="590" y="820" type="line"/>
      <point x="967" y="820" type="line"/>
      <point x="999" y="1000" type="line"/>
      <point x="622" y="1000" type="line"/>
      <point x="691" y="1400" type="line"/>
      <point x="443" y="1400" type="line"/>
      <point x="374" y="1000" type="line"/>
      <point x="234" y="1000" type="line"/>
      <point x="202" y="820" type="line"/>
      <point x="342" y="820" type="line"/>
    </contour>
    <contour>
      <point x="484" y="214" type="line"/>
      <point x="528" y="466" type="line"/>
      <point x="1123" y="466" type="line"/>
      <point x="1123" y="466"/>
      <point x="1123" y="466"/>
      <point x="1123" y="466" type="qcurve"/>
      <point x="1079" y="214" type="line"/>
      <point x="1079" y="214"/>
      <point x="1079" y="214"/>
      <point x="1079" y="214" type="qcurve"/>
    </contour>
  </outline>
  <guideline angle="0" color="1,0,0,1" x="0" y="300"/>
  <guideline angle="0" color="1,0,0,1" x="0" y="600"/>
</glyph>
<glyph name="uni046A" format="2">
  <advance width="2110" height="1448"/>
  <unicode hex="046A"/>
  <outline>
    <contour>
      <point x="78" y="0" type="line"/>
      <point x="342" y="0" type="line"/>
      <point x="418" y="435" type="line" smooth="yes"/>
      <point x="423" y="461"/>
      <point x="443" y="499"/>
      <point x="473" y="523"/>
      <point x="515" y="535"/>
      <point x="541" y="535" type="qcurve" smooth="yes"/>
      <point x="895" y="535" type="line"/>
      <point x="802" y="0" type="line"/>
      <point x="1066" y="0" type="line"/>
      <point x="1159" y="535" type="line"/>
      <point x="1513" y="535" type="line" smooth="yes"/>
      <point x="1539" y="535"/>
      <point x="1577" y="523"/>
      <point x="1600" y="499"/>
      <point x="1607" y="461"/>
      <point x="1602" y="435" type="qcurve" smooth="yes"/>
      <point x="1526" y="0" type="line"/>
      <point x="1790" y="0" type="line"/>
      <point x="1878" y="505" type="line" smooth="yes"/>
      <point x="1893" y="591"/>
      <point x="1861" y="698"/>
      <point x="1781" y="758"/>
      <point x="1658" y="779"/>
      <point x="1582" y="779" type="qcurve" smooth="yes"/>
      <point x="1398" y="779" type="line"/>
      <point x="1909" y="1278" type="line"/>
      <point x="1930" y="1400" type="line"/>
      <point x="427" y="1400" type="line"/>
      <point x="406" y="1278" type="line"/>
      <point x="750" y="779" type="line"/>
      <point x="558" y="779" type="line" smooth="yes"/>
      <point x="482" y="779"/>
      <point x="352" y="758"/>
      <point x="251" y="698"/>
      <point x="181" y="591"/>
      <point x="166" y="505" type="qcurve" smooth="yes"/>
    </contour>
    <contour>
      <point x="1091" y="800" type="line"/>
      <point x="850" y="1156" type="line"/>
      <point x="1456" y="1156" type="line"/>
    </contour>
  </outline>
</glyph>
<glyph name="uni0472" format="2">
  <advance width="1790.2" height="1448"/>
  <unicode hex="0472"/>
  <outline>
    <contour>
      <point x="389.155" y="-14" type="line"/>
      <point x="1155.16" y="-14" type="line" smooth="yes"/>
      <point x="1235.16" y="-14"/>
      <point x="1367.16" y="9"/>
      <point x="1466.16" y="72"/>
      <point x="1533.16" y="184"/>
      <point x="1548.16" y="272" type="qcurve" smooth="yes"/>
      <point x="1700.16" y="1140" type="line" smooth="yes"/>
      <point x="1715.16" y="1226"/>
      <point x="1683.16" y="1333"/>
      <point x="1602.16" y="1393"/>
      <point x="1480.16" y="1414"/>
      <point x="1404.16" y="1414" type="qcurve" smooth="yes"/>
      <point x="638.155" y="1414" type="line" smooth="yes"/>
      <point x="562.155" y="1414"/>
      <point x="433.155" y="1393"/>
      <point x="332.155" y="1333"/>
      <point x="263.155" y="1226"/>
      <point x="248.155" y="1140" type="qcurve" smooth="yes"/>
      <point x="96.1552" y="272" type="line" smooth="yes"/>
      <point x="81.1552" y="184"/>
      <point x="109.155" y="73"/>
      <point x="186.155" y="10"/>
      <point x="309.155" y="-14"/>
      <point x="389.155" y="-14" type="qcurve"/>
    </contour>
    <contour>
      <point x="455.155" y="812" type="line"/>
      <point x="517.155" y="1170" type="line"/>
      <point x="517.155" y="1170"/>
      <point x="517.155" y="1170"/>
      <point x="517.155" y="1170"/>
      <point x="517.155" y="1170"/>
      <point x="517.155" y="1170" type="qcurve"/>
      <point x="1441.16" y="1170" type="line"/>
      <point x="1441.16" y="1170"/>
      <point x="1441.16" y="1170"/>
      <point x="1441.16" y="1170"/>
      <point x="1441.16" y="1170"/>
      <point x="1441.16" y="1170" type="qcurve"/>
      <point x="1379.16" y="812" type="line"/>
    </contour>
    <contour>
      <point x="353.155" y="230" type="line"/>
      <point x="353.155" y="230"/>
      <point x="353.155" y="230"/>
      <point x="353.155" y="230"/>
      <point x="353.155" y="230"/>
      <point x="353.155" y="230" type="qcurve"/>
      <point x="416.155" y="588" type="line"/>
      <point x="1340.16" y="588" type="line"/>
      <point x="1277.16" y="230" type="line"/>
      <point x="1277.16" y="230"/>
      <point x="1277.16" y="230"/>
      <point x="1277.16" y="230"/>
      <point x="1277.16" y="230"/>
      <point x="1277.16" y="230" type="qcurve"/>
    </contour>
  </outline>
</glyph>
<glyph name="uni0473" format="2">
  <advance width="1394" height="1448"/>
  <unicode hex="0473"/>
  <outline>
    <contour>
      <point x="284" y="-10" type="line"/>
      <point x="864" y="-10" type="line" smooth="yes"/>
      <point x="934" y="-10"/>
      <point x="1035" y="14"/>
      <point x="1106" y="65"/>
      <point x="1148" y="146"/>
      <point x="1158" y="204" type="qcurve" smooth="yes"/>
      <point x="1263" y="806" type="line" smooth="yes"/>
      <point x="1282" y="914"/>
      <point x="1179" y="1010"/>
      <point x="1042" y="1010" type="qcurve" smooth="yes"/>
      <point x="462" y="1010" type="line" smooth="yes"/>
      <point x="394" y="1010"/>
      <point x="293" y="987"/>
      <point x="222" y="937"/>
      <point x="180" y="860"/>
      <point x="171" y="806" type="qcurve" smooth="yes"/>
      <point x="66" y="204" type="line" smooth="yes"/>
      <point x="56" y="146"/>
      <point x="70" y="65"/>
      <point x="122" y="14"/>
      <point x="215" y="-10"/>
      <point x="284" y="-10" type="qcurve"/>
    </contour>
    <contour>
      <point x="350" y="410" type="line"/>
      <point x="946" y="410" type="line"/>
      <point x="911" y="214" type="line"/>
      <point x="911" y="214"/>
      <point x="911" y="214"/>
      <point x="911" y="214" type="qcurve"/>
      <point x="315" y="214" type="line"/>
      <point x="315" y="214"/>
      <point x="315" y="214"/>
      <point x="315" y="214" type="qcurve"/>
    </contour>
    <contour>
      <point x="381" y="590" type="line"/>
      <point x="415" y="786" type="line"/>
      <point x="415" y="786"/>
      <point x="415" y="786"/>
      <point x="415" y="786" type="qcurve"/>
      <point x="1011" y="786" type="line"/>
      <point x="1011" y="786"/>
      <point x="1011" y="786"/>
      <point x="1011" y="786" type="qcurve"/>
      <point x="977" y="590" type="line"/>
    </contour>
  </outline>
</glyph>
<glyph name="uni0475" format="2">
  <advance width="1254.71" height="1448"/>
  <unicode hex="0475"/>
  <outline>
    <contour>
      <point x="392" y="0" type="line"/>
      <point x="561" y="0" type="line"/>
      <point x="1089" y="771" type="line"/>
      <point x="1089" y="771"/>
      <point x="1089" y="771"/>
      <point x="1089" y="771"/>
      <point x="1089" y="771"/>
      <point x="1089" y="771" type="qcurve"/>
      <point x="1215" y="771" type="line"/>
      <point x="1302" y="1000" type="line"/>
      <point x="1128" y="1000" type="line" smooth="yes"/>
      <point x="1091" y="1000"/>
      <point x="1029" y="988"/>
      <point x="976" y="960"/>
      <point x="930" y="915"/>
      <point x="908" y="882" type="qcurve" smooth="yes"/>
      <point x="535" y="336" type="line"/>
      <point x="333" y="1000" type="line"/>
      <point x="65" y="1000" type="line"/>
    </contour>
  </outline>
</glyph>
<glyph name="uni0490" format="2">
  <advance width="1355.14" height="1448"/>
  <unicode hex="0490"/>
  <outline>
    <contour>
      <point x="80" y="0" type="line"/>
      <point x="344" y="0" type="line"/>
      <point x="546" y="1156" type="line"/>
      <point x="1419" y="1156" type="line"/>
      <point x="1493" y="1582" type="line"/>
      <point x="1263" y="1582" type="line"/>
      <point x="1219" y="1400" type="line"/>
      <point x="324" y="1400" type="line"/>
    </contour>
  </outline>
  <guideline angle="0" color="1,0,0,1" x="0" y="1156"/>
</glyph>
<glyph name="uni0491" format="2">
  <advance width="1107.25" height="1448"/>
  <unicode hex="0491"/>
  <outline>
    <contour>
      <point x="58" y="0" type="line"/>
      <point x="306" y="0" type="line"/>
      <point x="441" y="776" type="line"/>
      <point x="1073" y="776" type="line"/>
      <point x="1143" y="1176" type="line"/>
      <point x="923" y="1176" type="line"/>
      <point x="881" y="1000" type="line"/>
      <point x="233" y="1000" type="line"/>
    </contour>
  </outline>
</glyph>
<glyph name="uni0492" format="2">
  <advance width="1403.46" height="1448"/>
  <unicode hex="0492"/>
  <outline>
    <contour>
      <point x="128" y="0" type="line"/>
      <point x="231" y="588" type="line"/>
      <point x="131" y="588" type="line"/>
      <point x="170" y="812" type="line"/>
      <point x="270" y="812" type="line"/>
      <point x="372" y="1400" type="line"/>
      <point x="1509" y="1400" type="line"/>
      <point x="1467" y="1156" type="line"/>
      <point x="594" y="1156" type="line"/>
      <point x="534" y="812" type="line"/>
      <point x="882" y="812" type="line"/>
      <point x="843" y="588" type="line"/>
      <point x="495" y="588" type="line"/>
      <point x="392" y="0" type="line"/>
    </contour>
  </outline>
</glyph>
<glyph name="uni0493" format="2">
  <advance width="1207" height="1448"/>
  <unicode hex="0493"/>
  <outline>
    <contour>
      <point x="158" y="0" type="line"/>
      <point x="406" y="0" type="line"/>
      <point x="466" y="342" type="line"/>
      <point x="784" y="342" type="line"/>
      <point x="815" y="522" type="line"/>
      <point x="497" y="522" type="line"/>
      <point x="541" y="776" type="line"/>
      <point x="1173" y="776" type="line"/>
      <point x="1213" y="1000" type="line"/>
      <point x="333" y="1000" type="line"/>
      <point x="249" y="522" type="line"/>
      <point x="149" y="522" type="line"/>
      <point x="118" y="342" type="line"/>
      <point x="218" y="342" type="line"/>
    </contour>
  </outline>
</glyph>
